<?xml version="1.0" encoding="UTF-8" standalone="no"?><svg xmlns="http://www.w3.org/2000/svg" xmlns:xlink="http://www.w3.org/1999/xlink" contentScriptType="application/ecmascript" contentStyleType="text/css" height="1588px" preserveAspectRatio="none" style="width:1211px;height:1588px;" version="1.1" viewBox="0 0 1211 1588" width="1211px" zoomAndPan="magnify"><defs><filter height="300%" id="f9jqz1hkwdhaq" width="300%" x="-1" y="-1"><feGaussianBlur result="blurOut" stdDeviation="2.0"/><feColorMatrix in="blurOut" result="blurOut2" type="matrix" values="0 0 0 0 0 0 0 0 0 0 0 0 0 0 0 0 0 0 .4 0"/><feOffset dx="4.0" dy="4.0" in="blurOut2" result="blurOut3"/><feBlend in="SourceGraphic" in2="blurOut3" mode="normal"/></filter></defs><g><!--MD5=[660b5dafce0b1b597500e209c2865732]
cluster DLT_Message_Analyzer--><polygon fill="#FFFFFF" filter="url(#f9jqz1hkwdhaq)" points="16,731,187,731,194,754.6094,328,754.6094,328,1023,16,1023,16,731" style="stroke:#000000;stroke-width:1.5;"/><line style="stroke:#000000;stroke-width:1.5;" x1="16" x2="194" y1="754.6094" y2="754.6094"/><text fill="#000000" font-family="sans-serif" font-size="14" font-weight="bold" lengthAdjust="spacingAndGlyphs" textLength="165" x="20" y="747.5332">DLT_Message_Analyzer</text><!--MD5=[00715918961d283e965802c8efe04f09]
cluster DLT_Message_Analyzer_Source--><polygon fill="#FFFFFF" filter="url(#f9jqz1hkwdhaq)" points="40,775,269,775,276,798.6094,304,798.6094,304,875,40,875,40,775" style="stroke:#000000;stroke-width:1.5;"/><line style="stroke:#000000;stroke-width:1.5;" x1="40" x2="276" y1="798.6094" y2="798.6094"/><text fill="#000000" font-family="sans-serif" font-size="14" font-weight="bold" lengthAdjust="spacingAndGlyphs" textLength="223" x="44" y="791.5332">DLT_Message_Analyzer_Source</text><!--MD5=[be7819e071f2084d5b5a0faf64985bb9]
cluster DLT_Message_Analyzer_Github--><polygon fill="#FFFFFF" filter="url(#f9jqz1hkwdhaq)" points="42,899,268,899,275,922.6094,302,922.6094,302,999,42,999,42,899" style="stroke:#000000;stroke-width:1.5;"/><line style="stroke:#000000;stroke-width:1.5;" x1="42" x2="275" y1="922.6094" y2="922.6094"/><text fill="#000000" font-family="sans-serif" font-size="14" font-weight="bold" lengthAdjust="spacingAndGlyphs" textLength="220" x="46" y="915.5332">DLT_Message_Analyzer_Github</text><!--MD5=[87210ba321c8d2ff5b2b4eba58b62580]
cluster DLT_Message_Analyzer Dependencies--><polygon fill="#FFFFFF" filter="url(#f9jqz1hkwdhaq)" points="678,6,955,6,962,29.6094,1194,29.6094,1194,1581,678,1581,678,6" style="stroke:#000000;stroke-width:1.5;"/><line style="stroke:#000000;stroke-width:1.5;" x1="678" x2="962" y1="29.6094" y2="29.6094"/><text fill="#000000" font-family="sans-serif" font-size="14" font-weight="bold" lengthAdjust="spacingAndGlyphs" textLength="271" x="682" y="22.5332">DLT_Message_Analyzer Dependencies</text><!--MD5=[753543caffeb124bdf1cceb6d968d692]
cluster DLT--><polygon fill="#FFFFFF" filter="url(#f9jqz1hkwdhaq)" points="807,50,839,50,846,73.6094,902,73.6094,902,150,807,150,807,50" style="stroke:#000000;stroke-width:1.5;"/><line style="stroke:#000000;stroke-width:1.5;" x1="807" x2="846" y1="73.6094" y2="73.6094"/><text fill="#000000" font-family="sans-serif" font-size="14" font-weight="bold" lengthAdjust="spacingAndGlyphs" textLength="26" x="811" y="66.5332">DLT</text><!--MD5=[0aca3eaa01c17ff0039911bbeeabf854]
cluster Qt--><polygon fill="#FFFFFF" filter="url(#f9jqz1hkwdhaq)" points="808.5,174,830.5,174,837.5,197.6094,900.5,197.6094,900.5,274,808.5,274,808.5,174" style="stroke:#000000;stroke-width:1.5;"/><line style="stroke:#000000;stroke-width:1.5;" x1="808.5" x2="837.5" y1="197.6094" y2="197.6094"/><text fill="#000000" font-family="sans-serif" font-size="14" font-weight="bold" lengthAdjust="spacingAndGlyphs" textLength="16" x="812.5" y="190.5332">Qt</text><!--MD5=[ff3a044f00bfe660ff468ae901f1891e]
cluster DMA_Family--><polygon fill="#FFFFFF" filter="url(#f9jqz1hkwdhaq)" points="755,298,845,298,852,321.6094,954,321.6094,954,564,755,564,755,298" style="stroke:#000000;stroke-width:1.5;"/><line style="stroke:#000000;stroke-width:1.5;" x1="755" x2="852" y1="321.6094" y2="321.6094"/><text fill="#000000" font-family="sans-serif" font-size="14" font-weight="bold" lengthAdjust="spacingAndGlyphs" textLength="84" x="759" y="314.5332">DMA_Family</text><!--MD5=[47b340804ad901fff3abdfb0642a7664]
cluster Plantuml--><polygon fill="#FFFFFF" filter="url(#f9jqz1hkwdhaq)" points="792,588,858,588,865,611.6094,917,611.6094,917,688,792,688,792,588" style="stroke:#000000;stroke-width:1.5;"/><line style="stroke:#000000;stroke-width:1.5;" x1="792" x2="865" y1="611.6094" y2="611.6094"/><text fill="#000000" font-family="sans-serif" font-size="14" font-weight="bold" lengthAdjust="spacingAndGlyphs" textLength="60" x="796" y="604.5332">Plantuml</text><!--MD5=[1fde209031faa46c276f89c7e8d91c77]
cluster Antlr--><polygon fill="#FFFFFF" filter="url(#f9jqz1hkwdhaq)" points="800.5,712,839.5,712,846.5,735.6094,908.5,735.6094,908.5,812,800.5,812,800.5,712" style="stroke:#000000;stroke-width:1.5;"/><line style="stroke:#000000;stroke-width:1.5;" x1="800.5" x2="846.5" y1="735.6094" y2="735.6094"/><text fill="#000000" font-family="sans-serif" font-size="14" font-weight="bold" lengthAdjust="spacingAndGlyphs" textLength="33" x="804.5" y="728.5332">Antlr</text><!--MD5=[ec3ed892f3fac55f394810426a52d654]
cluster uuid--><polygon fill="#FFFFFF" filter="url(#f9jqz1hkwdhaq)" points="1040,712,1077,712,1084,735.6094,1170,735.6094,1170,812,1040,812,1040,712" style="stroke:#000000;stroke-width:1.5;"/><line style="stroke:#000000;stroke-width:1.5;" x1="1040" x2="1084" y1="735.6094" y2="735.6094"/><text fill="#000000" font-family="sans-serif" font-size="14" font-weight="bold" lengthAdjust="spacingAndGlyphs" textLength="31" x="1044" y="728.5332">uuid</text><!--MD5=[d21206043a114b9d7728a080028ac7df]
cluster Pcre_parser--><polygon fill="#FFFFFF" filter="url(#f9jqz1hkwdhaq)" points="780,836,872,836,879,859.6094,929,859.6094,929,936,780,936,780,836" style="stroke:#000000;stroke-width:1.5;"/><line style="stroke:#000000;stroke-width:1.5;" x1="780" x2="879" y1="859.6094" y2="859.6094"/><text fill="#000000" font-family="sans-serif" font-size="14" font-weight="bold" lengthAdjust="spacingAndGlyphs" textLength="86" x="784" y="852.5332">Pcre_parser</text><!--MD5=[1766aac266cf76d64d446e887ff467d2]
cluster Variant_lite--><polygon fill="#FFFFFF" filter="url(#f9jqz1hkwdhaq)" points="784,960,869,960,876,983.6094,925,983.6094,925,1060,784,1060,784,960" style="stroke:#000000;stroke-width:1.5;"/><line style="stroke:#000000;stroke-width:1.5;" x1="784" x2="876" y1="983.6094" y2="983.6094"/><text fill="#000000" font-family="sans-serif" font-size="14" font-weight="bold" lengthAdjust="spacingAndGlyphs" textLength="79" x="788" y="976.5332">Variant_lite</text><!--MD5=[6d6dd3a88c5a8e73c0d5d16eb64420e7]
cluster Github_actions--><polygon fill="#FFFFFF" filter="url(#f9jqz1hkwdhaq)" points="702,1208,814,1208,821,1231.6094,1007,1231.6094,1007,1557,702,1557,702,1208" style="stroke:#000000;stroke-width:1.5;"/><line style="stroke:#000000;stroke-width:1.5;" x1="702" x2="821" y1="1231.6094" y2="1231.6094"/><text fill="#000000" font-family="sans-serif" font-size="14" font-weight="bold" lengthAdjust="spacingAndGlyphs" textLength="106" x="706" y="1224.5332">Github_actions</text><!--MD5=[aa2dd4b7182c95cb5bda1b57c85aaee4]
cluster Build system--><polygon fill="#FFFFFF" filter="url(#f9jqz1hkwdhaq)" points="798,1084,893,1084,900,1107.6094,911,1107.6094,911,1184,798,1184,798,1084" style="stroke:#000000;stroke-width:1.5;"/><line style="stroke:#000000;stroke-width:1.5;" x1="798" x2="900" y1="1107.6094" y2="1107.6094"/><text fill="#000000" font-family="sans-serif" font-size="14" font-weight="bold" lengthAdjust="spacingAndGlyphs" textLength="89" x="802" y="1100.5332">Build system</text><!--MD5=[11618173411f6d5f6c0eb00eb11c2118]
entity dlt_message_analyzer_source--><rect fill="#FEFECE" filter="url(#f9jqz1hkwdhaq)" height="47.6094" style="stroke:#A80036;stroke-width:1.5;" width="232" x="56" y="811"/><rect fill="#FEFECE" height="10" style="stroke:#A80036;stroke-width:1.5;" width="15" x="268" y="816"/><rect fill="#FEFECE" height="2" style="stroke:#A80036;stroke-width:1.5;" width="4" x="266" y="818"/><rect fill="#FEFECE" height="2" style="stroke:#A80036;stroke-width:1.5;" width="4" x="266" y="822"/><text fill="#000000" font-family="sans-serif" font-size="14" lengthAdjust="spacingAndGlyphs" textLength="192" x="71" y="845.5332">dlt_message_analyzer_source</text><!--MD5=[e389352ca7078b9cf463fa9b07370eeb]
entity dlt_message_analyzer_github--><rect fill="#FEFECE" filter="url(#f9jqz1hkwdhaq)" height="47.6094" style="stroke:#A80036;stroke-width:1.5;" width="228" x="58" y="935"/><rect fill="#FEFECE" height="10" style="stroke:#A80036;stroke-width:1.5;" width="15" x="266" y="940"/><rect fill="#FEFECE" height="2" style="stroke:#A80036;stroke-width:1.5;" width="4" x="264" y="942"/><rect fill="#FEFECE" height="2" style="stroke:#A80036;stroke-width:1.5;" width="4" x="264" y="946"/><text fill="#000000" font-family="sans-serif" font-size="14" lengthAdjust="spacingAndGlyphs" textLength="188" x="73" y="969.5332">dlt_message_analyzer_github</text><!--MD5=[c6f9a1eb8a02a6c7613ac2378b32058e]
entity qdlt--><rect fill="#FEFECE" filter="url(#f9jqz1hkwdhaq)" height="47.6094" style="stroke:#A80036;stroke-width:1.5;" width="63" x="823" y="86"/><rect fill="#FEFECE" height="10" style="stroke:#A80036;stroke-width:1.5;" width="15" x="866" y="91"/><rect fill="#FEFECE" height="2" style="stroke:#A80036;stroke-width:1.5;" width="4" x="864" y="93"/><rect fill="#FEFECE" height="2" style="stroke:#A80036;stroke-width:1.5;" width="4" x="864" y="97"/><text fill="#000000" font-family="sans-serif" font-size="14" lengthAdjust="spacingAndGlyphs" textLength="23" x="838" y="120.5332">qdlt</text><!--MD5=[c15f40f9222499a3411b898603282877]
entity qt5--><rect fill="#FEFECE" filter="url(#f9jqz1hkwdhaq)" height="47.6094" style="stroke:#A80036;stroke-width:1.5;" width="60" x="824.5" y="210"/><rect fill="#FEFECE" height="10" style="stroke:#A80036;stroke-width:1.5;" width="15" x="864.5" y="215"/><rect fill="#FEFECE" height="2" style="stroke:#A80036;stroke-width:1.5;" width="4" x="862.5" y="217"/><rect fill="#FEFECE" height="2" style="stroke:#A80036;stroke-width:1.5;" width="4" x="862.5" y="221"/><text fill="#000000" font-family="sans-serif" font-size="14" lengthAdjust="spacingAndGlyphs" textLength="20" x="839.5" y="244.5332">qt5</text><!--MD5=[e7bd85d92d5747c660b8934e8a12e4ab]
entity dma_plantuml--><rect fill="#FEFECE" filter="url(#f9jqz1hkwdhaq)" height="47.6094" style="stroke:#A80036;stroke-width:1.5;" width="128" x="790.5" y="334"/><rect fill="#FEFECE" height="10" style="stroke:#A80036;stroke-width:1.5;" width="15" x="898.5" y="339"/><rect fill="#FEFECE" height="2" style="stroke:#A80036;stroke-width:1.5;" width="4" x="896.5" y="341"/><rect fill="#FEFECE" height="2" style="stroke:#A80036;stroke-width:1.5;" width="4" x="896.5" y="345"/><text fill="#000000" font-family="sans-serif" font-size="14" lengthAdjust="spacingAndGlyphs" textLength="88" x="805.5" y="368.5332">dma_plantuml</text><!--MD5=[27520cc21299a69f974a7317780de2c8]
entity dma_framework--><rect fill="#FEFECE" filter="url(#f9jqz1hkwdhaq)" height="47.6094" style="stroke:#A80036;stroke-width:1.5;" width="140" x="784.5" y="417"/><rect fill="#FEFECE" height="10" style="stroke:#A80036;stroke-width:1.5;" width="15" x="904.5" y="422"/><rect fill="#FEFECE" height="2" style="stroke:#A80036;stroke-width:1.5;" width="4" x="902.5" y="424"/><rect fill="#FEFECE" height="2" style="stroke:#A80036;stroke-width:1.5;" width="4" x="902.5" y="428"/><text fill="#000000" font-family="sans-serif" font-size="14" lengthAdjust="spacingAndGlyphs" textLength="100" x="799.5" y="451.5332">dma_framework</text><!--MD5=[0e158f5823b0df0ca5e88a3d1975bc25]
entity dma_common_deps--><rect fill="#FEFECE" filter="url(#f9jqz1hkwdhaq)" height="47.6094" style="stroke:#A80036;stroke-width:1.5;" width="167" x="771" y="500"/><rect fill="#FEFECE" height="10" style="stroke:#A80036;stroke-width:1.5;" width="15" x="918" y="505"/><rect fill="#FEFECE" height="2" style="stroke:#A80036;stroke-width:1.5;" width="4" x="916" y="507"/><rect fill="#FEFECE" height="2" style="stroke:#A80036;stroke-width:1.5;" width="4" x="916" y="511"/><text fill="#000000" font-family="sans-serif" font-size="14" lengthAdjust="spacingAndGlyphs" textLength="127" x="786" y="534.5332">dma_common_deps</text><!--MD5=[f34abdc907f3da33f3fd0e2cc8b4f06b]
entity plantuml--><rect fill="#FEFECE" filter="url(#f9jqz1hkwdhaq)" height="47.6094" style="stroke:#A80036;stroke-width:1.5;" width="93" x="808" y="624"/><rect fill="#FEFECE" height="10" style="stroke:#A80036;stroke-width:1.5;" width="15" x="881" y="629"/><rect fill="#FEFECE" height="2" style="stroke:#A80036;stroke-width:1.5;" width="4" x="879" y="631"/><rect fill="#FEFECE" height="2" style="stroke:#A80036;stroke-width:1.5;" width="4" x="879" y="635"/><text fill="#000000" font-family="sans-serif" font-size="14" lengthAdjust="spacingAndGlyphs" textLength="53" x="823" y="658.5332">plantuml</text><!--MD5=[0a984248fbf66a1e8e0e1beb9046e2d3]
entity antlr4--><rect fill="#FEFECE" filter="url(#f9jqz1hkwdhaq)" height="47.6094" style="stroke:#A80036;stroke-width:1.5;" width="76" x="816.5" y="748"/><rect fill="#FEFECE" height="10" style="stroke:#A80036;stroke-width:1.5;" width="15" x="872.5" y="753"/><rect fill="#FEFECE" height="2" style="stroke:#A80036;stroke-width:1.5;" width="4" x="870.5" y="755"/><rect fill="#FEFECE" height="2" style="stroke:#A80036;stroke-width:1.5;" width="4" x="870.5" y="759"/><text fill="#000000" font-family="sans-serif" font-size="14" lengthAdjust="spacingAndGlyphs" textLength="36" x="831.5" y="782.5332">antlr4</text><!--MD5=[46211472ad6f30fc1017063da72ed381]
entity uuid_dev--><rect fill="#FEFECE" filter="url(#f9jqz1hkwdhaq)" height="47.6094" style="stroke:#A80036;stroke-width:1.5;" width="98" x="1056" y="748"/><rect fill="#FEFECE" height="10" style="stroke:#A80036;stroke-width:1.5;" width="15" x="1134" y="753"/><rect fill="#FEFECE" height="2" style="stroke:#A80036;stroke-width:1.5;" width="4" x="1132" y="755"/><rect fill="#FEFECE" height="2" style="stroke:#A80036;stroke-width:1.5;" width="4" x="1132" y="759"/><text fill="#000000" font-family="sans-serif" font-size="14" lengthAdjust="spacingAndGlyphs" textLength="58" x="1071" y="782.5332">uuid_dev</text><!--MD5=[3920431e64f21f95d01538a7d6ce2e75]
entity pcre_parser--><rect fill="#FEFECE" filter="url(#f9jqz1hkwdhaq)" height="47.6094" style="stroke:#A80036;stroke-width:1.5;" width="117" x="796" y="872"/><rect fill="#FEFECE" height="10" style="stroke:#A80036;stroke-width:1.5;" width="15" x="893" y="877"/><rect fill="#FEFECE" height="2" style="stroke:#A80036;stroke-width:1.5;" width="4" x="891" y="879"/><rect fill="#FEFECE" height="2" style="stroke:#A80036;stroke-width:1.5;" width="4" x="891" y="883"/><text fill="#000000" font-family="sans-serif" font-size="14" lengthAdjust="spacingAndGlyphs" textLength="77" x="811" y="906.5332">pcre_parser</text><!--MD5=[88f6b56f4e7801f78f23a8249090a7ff]
entity variant_lite--><rect fill="#FEFECE" filter="url(#f9jqz1hkwdhaq)" height="47.6094" style="stroke:#A80036;stroke-width:1.5;" width="109" x="800" y="996"/><rect fill="#FEFECE" height="10" style="stroke:#A80036;stroke-width:1.5;" width="15" x="889" y="1001"/><rect fill="#FEFECE" height="2" style="stroke:#A80036;stroke-width:1.5;" width="4" x="887" y="1003"/><rect fill="#FEFECE" height="2" style="stroke:#A80036;stroke-width:1.5;" width="4" x="887" y="1007"/><text fill="#000000" font-family="sans-serif" font-size="14" lengthAdjust="spacingAndGlyphs" textLength="69" x="815" y="1030.5332">variant_lite</text><!--MD5=[3ba07de7792a87893c1e49977f536306]
entity actions/cache--><rect fill="#FEFECE" filter="url(#f9jqz1hkwdhaq)" height="47.6094" style="stroke:#A80036;stroke-width:1.5;" width="127" x="791" y="1244"/><rect fill="#FEFECE" height="10" style="stroke:#A80036;stroke-width:1.5;" width="15" x="898" y="1249"/><rect fill="#FEFECE" height="2" style="stroke:#A80036;stroke-width:1.5;" width="4" x="896" y="1251"/><rect fill="#FEFECE" height="2" style="stroke:#A80036;stroke-width:1.5;" width="4" x="896" y="1255"/><text fill="#000000" font-family="sans-serif" font-size="14" lengthAdjust="spacingAndGlyphs" textLength="87" x="806" y="1278.5332">actions/cache</text><!--MD5=[e69ff48adaa685c3fc6bf1379e60b585]
entity actions/checkout--><rect fill="#FEFECE" filter="url(#f9jqz1hkwdhaq)" height="47.6094" style="stroke:#A80036;stroke-width:1.5;" width="146" x="781.5" y="1327"/><rect fill="#FEFECE" height="10" style="stroke:#A80036;stroke-width:1.5;" width="15" x="907.5" y="1332"/><rect fill="#FEFECE" height="2" style="stroke:#A80036;stroke-width:1.5;" width="4" x="905.5" y="1334"/><rect fill="#FEFECE" height="2" style="stroke:#A80036;stroke-width:1.5;" width="4" x="905.5" y="1338"/><text fill="#000000" font-family="sans-serif" font-size="14" lengthAdjust="spacingAndGlyphs" textLength="106" x="796.5" y="1361.5332">actions/checkout</text><!--MD5=[461956e3378b7b91da0c3d70c6a5e88f]
entity jurplel/install_qt_action--><rect fill="#FEFECE" filter="url(#f9jqz1hkwdhaq)" height="47.6094" style="stroke:#A80036;stroke-width:1.5;" width="184" x="762.5" y="1410"/><rect fill="#FEFECE" height="10" style="stroke:#A80036;stroke-width:1.5;" width="15" x="926.5" y="1415"/><rect fill="#FEFECE" height="2" style="stroke:#A80036;stroke-width:1.5;" width="4" x="924.5" y="1417"/><rect fill="#FEFECE" height="2" style="stroke:#A80036;stroke-width:1.5;" width="4" x="924.5" y="1421"/><text fill="#000000" font-family="sans-serif" font-size="14" lengthAdjust="spacingAndGlyphs" textLength="144" x="777.5" y="1444.5332">jurplel/install_qt_action</text><!--MD5=[289f97c89d2fe0d9a1db176bd003a91f]
entity stefanzweifel/git_auto_commit_action--><rect fill="#FEFECE" filter="url(#f9jqz1hkwdhaq)" height="47.6094" style="stroke:#A80036;stroke-width:1.5;" width="273" x="718" y="1493"/><rect fill="#FEFECE" height="10" style="stroke:#A80036;stroke-width:1.5;" width="15" x="971" y="1498"/><rect fill="#FEFECE" height="2" style="stroke:#A80036;stroke-width:1.5;" width="4" x="969" y="1500"/><rect fill="#FEFECE" height="2" style="stroke:#A80036;stroke-width:1.5;" width="4" x="969" y="1504"/><text fill="#000000" font-family="sans-serif" font-size="14" lengthAdjust="spacingAndGlyphs" textLength="233" x="733" y="1527.5332">stefanzweifel/git_auto_commit_action</text><!--MD5=[37b44c279ac23edd7aa0f34ec474ec48]
entity cmake--><rect fill="#FEFECE" filter="url(#f9jqz1hkwdhaq)" height="47.6094" style="stroke:#A80036;stroke-width:1.5;" width="81" x="814" y="1120"/><rect fill="#FEFECE" height="10" style="stroke:#A80036;stroke-width:1.5;" width="15" x="875" y="1125"/><rect fill="#FEFECE" height="2" style="stroke:#A80036;stroke-width:1.5;" width="4" x="873" y="1127"/><rect fill="#FEFECE" height="2" style="stroke:#A80036;stroke-width:1.5;" width="4" x="873" y="1131"/><text fill="#000000" font-family="sans-serif" font-size="14" lengthAdjust="spacingAndGlyphs" textLength="41" x="829" y="1154.5332">cmake</text><!--MD5=[8e9af746d17fa1fb2c2c7d4e32a22ad1]
link dlt_message_analyzer_source to dma_common_deps--><path d="M189.425,810.927 C216.866,772.597 275.795,697.954 344,658 C478.397,579.27 659.45,545.99 765.613,532.53 " fill="none" id="dlt_message_analyzer_source-to-dma_common_deps" style="stroke:#A80036;stroke-width:1.0;"/><polygon fill="#A80036" points="770.611,531.9,761.1833,529.0505,765.6498,532.5219,762.1784,536.9884,770.611,531.9" style="stroke:#A80036;stroke-width:1.0;"/><text fill="#000000" font-family="sans-serif" font-size="13" lengthAdjust="spacingAndGlyphs" textLength="278" x="364" y="548.4951">https://github.com/svlad-90/DMA_CommonDeps</text><!--MD5=[e1215037b653fe22c877ed90831ae2d1]
link dlt_message_analyzer_source to dma_framework--><path d="M178.658,810.868 C193.92,751.548 241.864,598.198 344,526 C412.797,477.37 655.076,454.33 779.115,445.52 " fill="none" id="dlt_message_analyzer_source-to-dma_framework" style="stroke:#A80036;stroke-width:1.0;"/><polygon fill="#A80036" points="784.205,445.16,774.946,441.8027,779.2174,445.5116,775.5085,449.7829,784.205,445.16" style="stroke:#A80036;stroke-width:1.0;"/><text fill="#000000" font-family="sans-serif" font-size="13" lengthAdjust="spacingAndGlyphs" textLength="260" x="373" y="452.4951">https://github.com/svlad-90/DMA_Framework</text><!--MD5=[b2b4d5a49c1246ccf5f13d1611c5f987]
link dlt_message_analyzer_source to dma_plantuml--><path d="M175.163,810.961 C182.963,739.657 216.368,528.21 344,430 C473.851,330.09 679.152,336.38 785.147,347.98 " fill="none" id="dlt_message_analyzer_source-to-dma_plantuml" style="stroke:#A80036;stroke-width:1.0;"/><polygon fill="#A80036" points="790.43,348.57,781.9315,343.5925,785.4611,348.0131,781.0405,351.5428,790.43,348.57" style="stroke:#A80036;stroke-width:1.0;"/><text fill="#000000" font-family="sans-serif" font-size="13" lengthAdjust="spacingAndGlyphs" textLength="247" x="379.5" y="338.4951">https://github.com/svlad-90/DMA_Plantuml</text><!--MD5=[30a38588e4c7224d7a36b5d1a1354a3e]
link dlt_message_analyzer_source to qt5--><path d="M172.797,810.975 C173.502,727.676 187.891,449.11 344,316 C484.537,196.17 729.112,216.15 819.045,228.48 " fill="none" id="dlt_message_analyzer_source-to-qt5" style="stroke:#A80036;stroke-width:1.0;"/><polygon fill="#A80036" points="824.233,229.21,815.8748,224.0003,819.2813,228.5165,814.7652,231.923,824.233,229.21" style="stroke:#A80036;stroke-width:1.0;"/><text fill="#000000" font-family="sans-serif" font-size="13" lengthAdjust="spacingAndGlyphs" textLength="142" x="432" y="216.4951">https://github.com/qt/qt5</text><!--MD5=[b32eb9404b40d392fd6493d3cd9ba3d6]
link dlt_message_analyzer_source to qdlt--><path d="M175.959,810.811 C189.457,704.534 248.67,280.48 344,194 C480.525,70.15 726.417,91.06 817.923,104.09 " fill="none" id="dlt_message_analyzer_source-to-qdlt" style="stroke:#A80036;stroke-width:1.0;"/><polygon fill="#A80036" points="822.945,104.82,814.6141,99.5668,817.997,104.1007,813.4632,107.4836,822.945,104.82" style="stroke:#A80036;stroke-width:1.0;"/><text fill="#000000" font-family="sans-serif" font-size="13" lengthAdjust="spacingAndGlyphs" textLength="304" x="351" y="91.4951">https://github.com/GENIVI/dlt-viewer/tree/master/qdlt</text><!--MD5=[bb72a1e80e6e081d1743e0b8c646fbf2]
link dlt_message_analyzer_source to plantuml--><path d="M223.74,810.848 C257.301,795.573 302.59,776.276 344,763 C508.412,710.288 710.099,672.371 802.667,656.4 " fill="none" id="dlt_message_analyzer_source-to-plantuml" style="stroke:#A80036;stroke-width:1.0;"/><polygon fill="#A80036" points="807.799,655.518,798.2515,653.1004,802.8713,656.365,799.6067,660.9848,807.799,655.518" style="stroke:#A80036;stroke-width:1.0;"/><text fill="#000000" font-family="sans-serif" font-size="13" lengthAdjust="spacingAndGlyphs" textLength="211" x="397.5" y="680.4951">https://github.com/plantuml/plantuml</text><!--MD5=[ce1ecf902e71acdb69f5ffc61731f2e6]
link dlt_message_analyzer_source to antlr4--><path d="M288.053,824.349 C442.164,810.081 708.148,785.456 811.096,775.926 " fill="none" id="dlt_message_analyzer_source-to-antlr4" style="stroke:#A80036;stroke-width:1.0;"/><polygon fill="#A80036" points="816.169,775.456,806.8383,772.3037,811.1903,775.9174,807.5766,780.2695,816.169,775.456" style="stroke:#A80036;stroke-width:1.0;"/><text fill="#000000" font-family="sans-serif" font-size="13" lengthAdjust="spacingAndGlyphs" textLength="170" x="418" y="785.4951">https://github.com/antlr/antlr4</text><!--MD5=[537f0eac6aef9f4114ba4f20a5aedb47]
link dlt_message_analyzer_source to pcre_parser--><path d="M288.053,845.313 C432.947,858.302 676.734,880.155 790.935,890.392 " fill="none" id="dlt_message_analyzer_source-to-pcre_parser" style="stroke:#A80036;stroke-width:1.0;"/><polygon fill="#A80036" points="795.942,890.84,787.3358,886.0512,790.962,890.3929,786.6203,894.0191,795.942,890.84" style="stroke:#A80036;stroke-width:1.0;"/><text fill="#000000" font-family="sans-serif" font-size="13" lengthAdjust="spacingAndGlyphs" textLength="213" x="396.5" y="846.4951">https://github.com/bkiers/pcre-parser</text><!--MD5=[026128cd3de1182f08cb80436ddc48d5]
link dlt_message_analyzer_source to variant_lite--><path d="M226.491,859.153 C259.808,873.549 303.829,891.411 344,904 C504.311,954.239 699.303,992.495 794.912,1009.815 " fill="none" id="dlt_message_analyzer_source-to-variant_lite" style="stroke:#A80036;stroke-width:1.0;"/><polygon fill="#A80036" points="799.948,1010.725,791.8022,1005.1891,795.0276,1009.8364,790.3804,1013.0618,799.948,1010.725" style="stroke:#A80036;stroke-width:1.0;"/><text fill="#000000" font-family="sans-serif" font-size="13" lengthAdjust="spacingAndGlyphs" textLength="246" x="380" y="900.4951">https://github.com/martinmoene/variant-lite</text><!--MD5=[712a8e51ea465cfee6c7158532f571a3]
link dlt_message_analyzer_source to cmake--><path d="M256.341,859.059 C286.287,871.96 317.264,891.126 336,919 C347.201,935.664 330.446,994.187 344,1009 C440.929,1114.932 524.089,1026.033 662,1066 C713.853,1081.027 770.87,1105.316 809.089,1122.8 " fill="none" id="dlt_message_analyzer_source-to-cmake" style="stroke:#A80036;stroke-width:1.0;"/><polygon fill="#A80036" points="813.656,1124.897,807.1469,1117.5057,809.1123,1122.8101,803.8079,1124.7756,813.656,1124.897" style="stroke:#A80036;stroke-width:1.0;"/><text fill="#000000" font-family="sans-serif" font-size="13" lengthAdjust="spacingAndGlyphs" textLength="232" x="387" y="1005.4951">https://gitlab.kitware.com/cmake/cmake</text><!--MD5=[93935c1c0e262d0f63d5b07ea0650def]
link antlr4 to uuid_dev--><path d="M892.703,772 C934.637,772 1003.16,772 1050.75,772 " fill="none" id="antlr4-to-uuid_dev" style="stroke:#A80036;stroke-width:1.0;"/><polygon fill="#A80036" points="1055.87,772,1046.87,768,1050.87,772,1046.87,776,1055.87,772" style="stroke:#A80036;stroke-width:1.0;"/><!--MD5=[dc52e0a4caaca387c1357d3e86113ecb]
link dlt_message_analyzer_github to actions/cache--><path d="M196.376,983.008 C227.277,1013.269 284.765,1064.629 344,1092 C475.033,1152.546 555.257,1060.833 662,1158 C670.941,1166.139 662.028,1174.911 670,1184 C699.959,1218.158 746.652,1239.265 785.438,1251.777 " fill="none" id="dlt_message_analyzer_github-to-actions/cache" style="stroke:#A80036;stroke-width:1.0;"/><polygon fill="#A80036" points="790.612,1253.411,783.2347,1246.8861,785.8442,1251.9051,780.8252,1254.5146,790.612,1253.411" style="stroke:#A80036;stroke-width:1.0;"/><text fill="#000000" font-family="sans-serif" font-size="13" lengthAdjust="spacingAndGlyphs" textLength="190" x="408" y="1088.4951">https://github.com/actions/cache</text><!--MD5=[b962dd241540cdad23a0e1de24deb9dd]
link dlt_message_analyzer_github to actions/checkout--><path d="M184.897,983.277 C208.682,1029.31 266.538,1129.537 344,1184 C465.198,1269.214 557.561,1178.914 662,1284 C670.523,1292.575 661.121,1301.794 670,1310 C698.332,1336.186 739.615,1346.932 775.852,1350.914 " fill="none" id="dlt_message_analyzer_github-to-actions/checkout" style="stroke:#A80036;stroke-width:1.0;"/><polygon fill="#A80036" points="781.16,1351.453,772.6093,1346.5656,776.1855,1350.9487,771.8024,1354.5248,781.16,1351.453" style="stroke:#A80036;stroke-width:1.0;"/><text fill="#000000" font-family="sans-serif" font-size="13" lengthAdjust="spacingAndGlyphs" textLength="208" x="399" y="1180.4951">https://github.com/actions/checkout</text><!--MD5=[f20309ba69bfac8c6db4b9764b586b8b]
link dlt_message_analyzer_github to jurplel/install_qt_action--><path d="M177.533,983.381 C190.76,1047.436 235.458,1221.617 344,1310 C462.829,1406.759 645.672,1429.885 756.97,1434.376 " fill="none" id="dlt_message_analyzer_github-to-jurplel/install_qt_action" style="stroke:#A80036;stroke-width:1.0;"/><polygon fill="#A80036" points="762.216,1434.576,753.3745,1430.2368,757.2196,1434.386,753.0705,1438.2311,762.216,1434.576" style="stroke:#A80036;stroke-width:1.0;"/><text fill="#000000" font-family="sans-serif" font-size="13" lengthAdjust="spacingAndGlyphs" textLength="235" x="385.5" y="1306.4951">https://github.com/jurplel/install-qt-action</text><!--MD5=[7592ffcbf9d3e23dac11c68d30bc782e]
link dlt_message_analyzer_github to stefanzweifel/git_auto_commit_action--><path d="M173.138,983.097 C175.022,1064.078 192.961,1328.22 344,1451 C446.365,1534.2125 600.513,1543.304 712.442,1536.1451 " fill="none" id="dlt_message_analyzer_github-to-stefanzweifel/git_auto_commit_action" style="stroke:#A80036;stroke-width:1.0;"/><polygon fill="#A80036" points="717.739,1535.7921,708.4927,1532.4001,712.7501,1536.125,709.0253,1540.3824,717.739,1535.7921" style="stroke:#A80036;stroke-width:1.0;"/><text fill="#000000" font-family="sans-serif" font-size="13" lengthAdjust="spacingAndGlyphs" textLength="316" x="345" y="1447.4951">https://github.com/stefanzweifel/git-auto-commit-action</text><!--MD5=[4c395de774df039daae8f1e3801132d4]
@startuml

left to right direction

package "DLT_Message_Analyzer" {
    package "DLT_Message_Analyzer_Source" {
        [dlt_message_analyzer_source]
    }
    
    package "DLT_Message_Analyzer_Github" {
        [dlt_message_analyzer_github]
    }
}

package "DLT_Message_Analyzer Dependencies" {
    package "DLT" {
        [qdlt]
    }

    package "Qt" {
        [qt5]
    }

    package "DMA_Family" {
        [dma_plantuml]
        [dma_framework]
        [dma_common_deps]
    }

    package "Plantuml" {
        [plantuml]
    }

    package "Antlr" {
        [antlr4]
    }
    
    package "uuid" {
        [uuid_dev]
    }

    package "Pcre_parser" {
        [pcre_parser]
    }

    package "Variant_lite" {
        [variant_lite]
    }

    package "Github_actions"{
        [actions/cache]
        [actions/checkout]
        [jurplel/install_qt_action]
        [stefanzweifel/git_auto_commit_action]
    }
    
    package "Build system"{
        [cmake]
    }
}

[dlt_message_analyzer_source] - -> [dma_common_deps] : https://github.com/svlad-90/DMA_CommonDeps
[dlt_message_analyzer_source] - -> [dma_framework] : https://github.com/svlad-90/DMA_Framework
[dlt_message_analyzer_source] - -> [dma_plantuml] : https://github.com/svlad-90/DMA_Plantuml

[dlt_message_analyzer_source] - -> [qt5] : https://github.com/qt/qt5
[dlt_message_analyzer_source] - -> [qdlt] : https://github.com/GENIVI/dlt-viewer/tree/master/qdlt
[dlt_message_analyzer_source] - -> [plantuml] : https://github.com/plantuml/plantuml
[dlt_message_analyzer_source] - -> [antlr4] : https://github.com/antlr/antlr4
[dlt_message_analyzer_source] - -> [pcre_parser] : https://github.com/bkiers/pcre-parser
[dlt_message_analyzer_source] - -> [variant_lite] : https://github.com/martinmoene/variant-lite
[dlt_message_analyzer_source] - -> [cmake] : https://gitlab.kitware.com/cmake/cmake

[antlr4] - -> [uuid_dev]

[dlt_message_analyzer_github] - -> [actions/cache] : https://github.com/actions/cache
[dlt_message_analyzer_github] - -> [actions/checkout] : https://github.com/actions/checkout
[dlt_message_analyzer_github] - -> [jurplel/install_qt_action] : https://github.com/jurplel/install-qt-action
[dlt_message_analyzer_github] - -> [stefanzweifel/git_auto_commit_action] : https://github.com/stefanzweifel/git-auto-commit-action

@enduml

PlantUML version 1.2020.22(Sun Dec 06 11:36:27 EET 2020)
(GPL source distribution)
Java Runtime: Java(TM) SE Runtime Environment
JVM: Java HotSpot(TM) 64-Bit Server VM
Default Encoding: Cp1251
Language: en
Country: US
--></g></svg>