<?xml version="1.0" encoding="UTF-8" standalone="no"?><svg xmlns="http://www.w3.org/2000/svg" xmlns:xlink="http://www.w3.org/1999/xlink" contentScriptType="application/ecmascript" contentStyleType="text/css" height="1427px" preserveAspectRatio="none" style="width:1181px;height:1427px;" version="1.1" viewBox="0 0 1181 1427" width="1181px" zoomAndPan="magnify"><defs><filter height="300%" id="f1ka457w0o6v22" width="300%" x="-1" y="-1"><feGaussianBlur result="blurOut" stdDeviation="2.0"/><feColorMatrix in="blurOut" result="blurOut2" type="matrix" values="0 0 0 0 0 0 0 0 0 0 0 0 0 0 0 0 0 0 .4 0"/><feOffset dx="4.0" dy="4.0" in="blurOut2" result="blurOut3"/><feBlend in="SourceGraphic" in2="blurOut3" mode="normal"/></filter></defs><g><!--MD5=[f18fb48e15cc4c52f085f749a7a6ff81]
cluster DMA--><polygon fill="#FFFFFF" filter="url(#f1ka457w0o6v22)" points="16,722,54,722,61,745.6094,305,745.6094,305,1014,16,1014,16,722" style="stroke: #000000; stroke-width: 1.5;"/><line style="stroke: #000000; stroke-width: 1.5;" x1="16" x2="61" y1="745.6094" y2="745.6094"/><text fill="#000000" font-family="sans-serif" font-size="14" font-weight="bold" lengthAdjust="spacingAndGlyphs" textLength="32" x="20" y="738.5332">DMA</text><!--MD5=[f8ab59934724fc07cfeccfa68e0f15a6]
cluster DMA_Source--><polygon fill="#FFFFFF" filter="url(#f1ka457w0o6v22)" points="57,766,153,766,160,789.6094,264,789.6094,264,866,57,866,57,766" style="stroke: #000000; stroke-width: 1.5;"/><line style="stroke: #000000; stroke-width: 1.5;" x1="57" x2="160" y1="789.6094" y2="789.6094"/><text fill="#000000" font-family="sans-serif" font-size="14" font-weight="bold" lengthAdjust="spacingAndGlyphs" textLength="90" x="61" y="782.5332">DMA_Source</text><!--MD5=[7f9c9ab481600a1052383d7c193bd916]
cluster DMA_Github--><polygon fill="#FFFFFF" filter="url(#f1ka457w0o6v22)" points="40,890,133,890,140,913.6094,281,913.6094,281,990,40,990,40,890" style="stroke: #000000; stroke-width: 1.5;"/><line style="stroke: #000000; stroke-width: 1.5;" x1="40" x2="140" y1="913.6094" y2="913.6094"/><text fill="#000000" font-family="sans-serif" font-size="14" font-weight="bold" lengthAdjust="spacingAndGlyphs" textLength="87" x="44" y="906.5332">DMA_Github</text><!--MD5=[62a0c4befd7484c6f570d47ec06cda84]
cluster DMA Dependencies--><polygon fill="#FFFFFF" filter="url(#f1ka457w0o6v22)" points="655,6,799,6,806,29.6094,1159,29.6094,1159,1415,655,1415,655,6" style="stroke: #000000; stroke-width: 1.5;"/><line style="stroke: #000000; stroke-width: 1.5;" x1="655" x2="806" y1="29.6094" y2="29.6094"/><text fill="#000000" font-family="sans-serif" font-size="14" font-weight="bold" lengthAdjust="spacingAndGlyphs" textLength="138" x="659" y="22.5332">DMA Dependencies</text><!--MD5=[753543caffeb124bdf1cceb6d968d692]
cluster DLT--><polygon fill="#FFFFFF" filter="url(#f1ka457w0o6v22)" points="779.5,50,811.5,50,818.5,73.6094,874.5,73.6094,874.5,150,779.5,150,779.5,50" style="stroke: #000000; stroke-width: 1.5;"/><line style="stroke: #000000; stroke-width: 1.5;" x1="779.5" x2="818.5" y1="73.6094" y2="73.6094"/><text fill="#000000" font-family="sans-serif" font-size="14" font-weight="bold" lengthAdjust="spacingAndGlyphs" textLength="26" x="783.5" y="66.5332">DLT</text><!--MD5=[0aca3eaa01c17ff0039911bbeeabf854]
cluster Qt--><polygon fill="#FFFFFF" filter="url(#f1ka457w0o6v22)" points="781,174,803,174,810,197.6094,873,197.6094,873,274,781,274,781,174" style="stroke: #000000; stroke-width: 1.5;"/><line style="stroke: #000000; stroke-width: 1.5;" x1="781" x2="810" y1="197.6094" y2="197.6094"/><text fill="#000000" font-family="sans-serif" font-size="14" font-weight="bold" lengthAdjust="spacingAndGlyphs" textLength="16" x="785" y="190.5332">Qt</text><!--MD5=[26873405a73bab6945c73804d0f4c65d]
cluster DMA_Plantuml--><polygon fill="#FFFFFF" filter="url(#f1ka457w0o6v22)" points="747,298,853,298,860,321.6094,907,321.6094,907,398,747,398,747,298" style="stroke: #000000; stroke-width: 1.5;"/><line style="stroke: #000000; stroke-width: 1.5;" x1="747" x2="860" y1="321.6094" y2="321.6094"/><text fill="#000000" font-family="sans-serif" font-size="14" font-weight="bold" lengthAdjust="spacingAndGlyphs" textLength="100" x="751" y="314.5332">DMA_Plantuml</text><!--MD5=[47b340804ad901fff3abdfb0642a7664]
cluster Plantuml--><polygon fill="#FFFFFF" filter="url(#f1ka457w0o6v22)" points="764.5,422,830.5,422,837.5,445.6094,889.5,445.6094,889.5,522,764.5,522,764.5,422" style="stroke: #000000; stroke-width: 1.5;"/><line style="stroke: #000000; stroke-width: 1.5;" x1="764.5" x2="837.5" y1="445.6094" y2="445.6094"/><text fill="#000000" font-family="sans-serif" font-size="14" font-weight="bold" lengthAdjust="spacingAndGlyphs" textLength="60" x="768.5" y="438.5332">Plantuml</text><!--MD5=[1fde209031faa46c276f89c7e8d91c77]
cluster Antlr--><polygon fill="#FFFFFF" filter="url(#f1ka457w0o6v22)" points="773,546,812,546,819,569.6094,881,569.6094,881,646,773,646,773,546" style="stroke: #000000; stroke-width: 1.5;"/><line style="stroke: #000000; stroke-width: 1.5;" x1="773" x2="819" y1="569.6094" y2="569.6094"/><text fill="#000000" font-family="sans-serif" font-size="14" font-weight="bold" lengthAdjust="spacingAndGlyphs" textLength="33" x="777" y="562.5332">Antlr</text><!--MD5=[ec3ed892f3fac55f394810426a52d654]
cluster uuid--><polygon fill="#FFFFFF" filter="url(#f1ka457w0o6v22)" points="1008,546,1045,546,1052,569.6094,1135,569.6094,1135,646,1008,646,1008,546" style="stroke: #000000; stroke-width: 1.5;"/><line style="stroke: #000000; stroke-width: 1.5;" x1="1008" x2="1052" y1="569.6094" y2="569.6094"/><text fill="#000000" font-family="sans-serif" font-size="14" font-weight="bold" lengthAdjust="spacingAndGlyphs" textLength="31" x="1012" y="562.5332">uuid</text><!--MD5=[1c99f26a57702704f4354a807870145b]
cluster Pcre-parser--><polygon fill="#FFFFFF" filter="url(#f1ka457w0o6v22)" points="754,670,843,670,850,693.6094,900,693.6094,900,770,754,770,754,670" style="stroke: #000000; stroke-width: 1.5;"/><line style="stroke: #000000; stroke-width: 1.5;" x1="754" x2="850" y1="693.6094" y2="693.6094"/><text fill="#000000" font-family="sans-serif" font-size="14" font-weight="bold" lengthAdjust="spacingAndGlyphs" textLength="83" x="758" y="686.5332">Pcre-parser</text><!--MD5=[b1d0c50dfe21e51fbae7c89a6739be66]
cluster Variant-lite--><polygon fill="#FFFFFF" filter="url(#f1ka457w0o6v22)" points="758,794,840,794,847,817.6094,896,817.6094,896,894,758,894,758,794" style="stroke: #000000; stroke-width: 1.5;"/><line style="stroke: #000000; stroke-width: 1.5;" x1="758" x2="847" y1="817.6094" y2="817.6094"/><text fill="#000000" font-family="sans-serif" font-size="14" font-weight="bold" lengthAdjust="spacingAndGlyphs" textLength="76" x="762" y="810.5332">Variant-lite</text><!--MD5=[525b807aa8147559d42241ec679a0b9f]
cluster Github-actions--><polygon fill="#FFFFFF" filter="url(#f1ka457w0o6v22)" points="679,918,788,918,795,941.6094,975,941.6094,975,1267,679,1267,679,918" style="stroke: #000000; stroke-width: 1.5;"/><line style="stroke: #000000; stroke-width: 1.5;" x1="679" x2="795" y1="941.6094" y2="941.6094"/><text fill="#000000" font-family="sans-serif" font-size="14" font-weight="bold" lengthAdjust="spacingAndGlyphs" textLength="103" x="683" y="934.5332">Github-actions</text><!--MD5=[aa2dd4b7182c95cb5bda1b57c85aaee4]
cluster Build system--><polygon fill="#FFFFFF" filter="url(#f1ka457w0o6v22)" points="770.5,1291,865.5,1291,872.5,1314.6094,883.5,1314.6094,883.5,1391,770.5,1391,770.5,1291" style="stroke: #000000; stroke-width: 1.5;"/><line style="stroke: #000000; stroke-width: 1.5;" x1="770.5" x2="872.5" y1="1314.6094" y2="1314.6094"/><text fill="#000000" font-family="sans-serif" font-size="14" font-weight="bold" lengthAdjust="spacingAndGlyphs" textLength="89" x="774.5" y="1307.5332">Build system</text><!--MD5=[6baf1a3cd9bfc8f0931b3d3de4ebec4b]
entity dlt-message-analyzer--><rect fill="#FEFECE" filter="url(#f1ka457w0o6v22)" height="47.6094" style="stroke: #A80036; stroke-width: 1.5;" width="175" x="73" y="802"/><rect fill="#FEFECE" height="10" style="stroke: #A80036; stroke-width: 1.5;" width="15" x="228" y="807"/><rect fill="#FEFECE" height="2" style="stroke: #A80036; stroke-width: 1.5;" width="4" x="226" y="809"/><rect fill="#FEFECE" height="2" style="stroke: #A80036; stroke-width: 1.5;" width="4" x="226" y="813"/><text fill="#000000" font-family="sans-serif" font-size="14" lengthAdjust="spacingAndGlyphs" textLength="135" x="88" y="836.5332">dlt-message-analyzer</text><!--MD5=[0894e546d147887343a01f6c5346e958]
entity dlt-message-analyzer-repo--><rect fill="#FEFECE" filter="url(#f1ka457w0o6v22)" height="47.6094" style="stroke: #A80036; stroke-width: 1.5;" width="209" x="56" y="926"/><rect fill="#FEFECE" height="10" style="stroke: #A80036; stroke-width: 1.5;" width="15" x="245" y="931"/><rect fill="#FEFECE" height="2" style="stroke: #A80036; stroke-width: 1.5;" width="4" x="243" y="933"/><rect fill="#FEFECE" height="2" style="stroke: #A80036; stroke-width: 1.5;" width="4" x="243" y="937"/><text fill="#000000" font-family="sans-serif" font-size="14" lengthAdjust="spacingAndGlyphs" textLength="169" x="71" y="960.5332">dlt-message-analyzer-repo</text><!--MD5=[c6f9a1eb8a02a6c7613ac2378b32058e]
entity qdlt--><rect fill="#FEFECE" filter="url(#f1ka457w0o6v22)" height="47.6094" style="stroke: #A80036; stroke-width: 1.5;" width="63" x="795.5" y="86"/><rect fill="#FEFECE" height="10" style="stroke: #A80036; stroke-width: 1.5;" width="15" x="838.5" y="91"/><rect fill="#FEFECE" height="2" style="stroke: #A80036; stroke-width: 1.5;" width="4" x="836.5" y="93"/><rect fill="#FEFECE" height="2" style="stroke: #A80036; stroke-width: 1.5;" width="4" x="836.5" y="97"/><text fill="#000000" font-family="sans-serif" font-size="14" lengthAdjust="spacingAndGlyphs" textLength="23" x="810.5" y="120.5332">qdlt</text><!--MD5=[c15f40f9222499a3411b898603282877]
entity qt5--><rect fill="#FEFECE" filter="url(#f1ka457w0o6v22)" height="47.6094" style="stroke: #A80036; stroke-width: 1.5;" width="60" x="797" y="210"/><rect fill="#FEFECE" height="10" style="stroke: #A80036; stroke-width: 1.5;" width="15" x="837" y="215"/><rect fill="#FEFECE" height="2" style="stroke: #A80036; stroke-width: 1.5;" width="4" x="835" y="217"/><rect fill="#FEFECE" height="2" style="stroke: #A80036; stroke-width: 1.5;" width="4" x="835" y="221"/><text fill="#000000" font-family="sans-serif" font-size="14" lengthAdjust="spacingAndGlyphs" textLength="20" x="812" y="244.5332">qt5</text><!--MD5=[e7bd85d92d5747c660b8934e8a12e4ab]
entity dma_plantuml--><rect fill="#FEFECE" filter="url(#f1ka457w0o6v22)" height="47.6094" style="stroke: #A80036; stroke-width: 1.5;" width="128" x="763" y="334"/><rect fill="#FEFECE" height="10" style="stroke: #A80036; stroke-width: 1.5;" width="15" x="871" y="339"/><rect fill="#FEFECE" height="2" style="stroke: #A80036; stroke-width: 1.5;" width="4" x="869" y="341"/><rect fill="#FEFECE" height="2" style="stroke: #A80036; stroke-width: 1.5;" width="4" x="869" y="345"/><text fill="#000000" font-family="sans-serif" font-size="14" lengthAdjust="spacingAndGlyphs" textLength="88" x="778" y="368.5332">dma_plantuml</text><!--MD5=[f34abdc907f3da33f3fd0e2cc8b4f06b]
entity plantuml--><rect fill="#FEFECE" filter="url(#f1ka457w0o6v22)" height="47.6094" style="stroke: #A80036; stroke-width: 1.5;" width="93" x="780.5" y="458"/><rect fill="#FEFECE" height="10" style="stroke: #A80036; stroke-width: 1.5;" width="15" x="853.5" y="463"/><rect fill="#FEFECE" height="2" style="stroke: #A80036; stroke-width: 1.5;" width="4" x="851.5" y="465"/><rect fill="#FEFECE" height="2" style="stroke: #A80036; stroke-width: 1.5;" width="4" x="851.5" y="469"/><text fill="#000000" font-family="sans-serif" font-size="14" lengthAdjust="spacingAndGlyphs" textLength="53" x="795.5" y="492.5332">plantuml</text><!--MD5=[0a984248fbf66a1e8e0e1beb9046e2d3]
entity antlr4--><rect fill="#FEFECE" filter="url(#f1ka457w0o6v22)" height="47.6094" style="stroke: #A80036; stroke-width: 1.5;" width="76" x="789" y="582"/><rect fill="#FEFECE" height="10" style="stroke: #A80036; stroke-width: 1.5;" width="15" x="845" y="587"/><rect fill="#FEFECE" height="2" style="stroke: #A80036; stroke-width: 1.5;" width="4" x="843" y="589"/><rect fill="#FEFECE" height="2" style="stroke: #A80036; stroke-width: 1.5;" width="4" x="843" y="593"/><text fill="#000000" font-family="sans-serif" font-size="14" lengthAdjust="spacingAndGlyphs" textLength="36" x="804" y="616.5332">antlr4</text><!--MD5=[3f22955db10fdec5e3a68d137dfd42f1]
entity uuid-dev--><rect fill="#FEFECE" filter="url(#f1ka457w0o6v22)" height="47.6094" style="stroke: #A80036; stroke-width: 1.5;" width="95" x="1024" y="582"/><rect fill="#FEFECE" height="10" style="stroke: #A80036; stroke-width: 1.5;" width="15" x="1099" y="587"/><rect fill="#FEFECE" height="2" style="stroke: #A80036; stroke-width: 1.5;" width="4" x="1097" y="589"/><rect fill="#FEFECE" height="2" style="stroke: #A80036; stroke-width: 1.5;" width="4" x="1097" y="593"/><text fill="#000000" font-family="sans-serif" font-size="14" lengthAdjust="spacingAndGlyphs" textLength="55" x="1039" y="616.5332">uuid-dev</text><!--MD5=[741d4c8f59718125879c4e4fdc76ef39]
entity pcre-parser--><rect fill="#FEFECE" filter="url(#f1ka457w0o6v22)" height="47.6094" style="stroke: #A80036; stroke-width: 1.5;" width="114" x="770" y="706"/><rect fill="#FEFECE" height="10" style="stroke: #A80036; stroke-width: 1.5;" width="15" x="864" y="711"/><rect fill="#FEFECE" height="2" style="stroke: #A80036; stroke-width: 1.5;" width="4" x="862" y="713"/><rect fill="#FEFECE" height="2" style="stroke: #A80036; stroke-width: 1.5;" width="4" x="862" y="717"/><text fill="#000000" font-family="sans-serif" font-size="14" lengthAdjust="spacingAndGlyphs" textLength="74" x="785" y="740.5332">pcre-parser</text><!--MD5=[6c3c4ad56689b631b1b8f6d1dafc8d71]
entity variant-lite--><rect fill="#FEFECE" filter="url(#f1ka457w0o6v22)" height="47.6094" style="stroke: #A80036; stroke-width: 1.5;" width="106" x="774" y="830"/><rect fill="#FEFECE" height="10" style="stroke: #A80036; stroke-width: 1.5;" width="15" x="860" y="835"/><rect fill="#FEFECE" height="2" style="stroke: #A80036; stroke-width: 1.5;" width="4" x="858" y="837"/><rect fill="#FEFECE" height="2" style="stroke: #A80036; stroke-width: 1.5;" width="4" x="858" y="841"/><text fill="#000000" font-family="sans-serif" font-size="14" lengthAdjust="spacingAndGlyphs" textLength="66" x="789" y="864.5332">variant-lite</text><!--MD5=[3ba07de7792a87893c1e49977f536306]
entity actions/cache--><rect fill="#FEFECE" filter="url(#f1ka457w0o6v22)" height="47.6094" style="stroke: #A80036; stroke-width: 1.5;" width="127" x="763.5" y="954"/><rect fill="#FEFECE" height="10" style="stroke: #A80036; stroke-width: 1.5;" width="15" x="870.5" y="959"/><rect fill="#FEFECE" height="2" style="stroke: #A80036; stroke-width: 1.5;" width="4" x="868.5" y="961"/><rect fill="#FEFECE" height="2" style="stroke: #A80036; stroke-width: 1.5;" width="4" x="868.5" y="965"/><text fill="#000000" font-family="sans-serif" font-size="14" lengthAdjust="spacingAndGlyphs" textLength="87" x="778.5" y="988.5332">actions/cache</text><!--MD5=[e69ff48adaa685c3fc6bf1379e60b585]
entity actions/checkout--><rect fill="#FEFECE" filter="url(#f1ka457w0o6v22)" height="47.6094" style="stroke: #A80036; stroke-width: 1.5;" width="146" x="754" y="1037"/><rect fill="#FEFECE" height="10" style="stroke: #A80036; stroke-width: 1.5;" width="15" x="880" y="1042"/><rect fill="#FEFECE" height="2" style="stroke: #A80036; stroke-width: 1.5;" width="4" x="878" y="1044"/><rect fill="#FEFECE" height="2" style="stroke: #A80036; stroke-width: 1.5;" width="4" x="878" y="1048"/><text fill="#000000" font-family="sans-serif" font-size="14" lengthAdjust="spacingAndGlyphs" textLength="106" x="769" y="1071.5332">actions/checkout</text><!--MD5=[46011c6f895068890480043f9bcabf71]
entity jurplel/install-qt-action--><rect fill="#FEFECE" filter="url(#f1ka457w0o6v22)" height="47.6094" style="stroke: #A80036; stroke-width: 1.5;" width="178" x="738" y="1120"/><rect fill="#FEFECE" height="10" style="stroke: #A80036; stroke-width: 1.5;" width="15" x="896" y="1125"/><rect fill="#FEFECE" height="2" style="stroke: #A80036; stroke-width: 1.5;" width="4" x="894" y="1127"/><rect fill="#FEFECE" height="2" style="stroke: #A80036; stroke-width: 1.5;" width="4" x="894" y="1131"/><text fill="#000000" font-family="sans-serif" font-size="14" lengthAdjust="spacingAndGlyphs" textLength="138" x="753" y="1154.5332">jurplel/install-qt-action</text><!--MD5=[71663a57264ee1bad9ae74327eeba65c]
entity stefanzweifel/git-auto-commit-action--><rect fill="#FEFECE" filter="url(#f1ka457w0o6v22)" height="47.6094" style="stroke: #A80036; stroke-width: 1.5;" width="264" x="695" y="1203"/><rect fill="#FEFECE" height="10" style="stroke: #A80036; stroke-width: 1.5;" width="15" x="939" y="1208"/><rect fill="#FEFECE" height="2" style="stroke: #A80036; stroke-width: 1.5;" width="4" x="937" y="1210"/><rect fill="#FEFECE" height="2" style="stroke: #A80036; stroke-width: 1.5;" width="4" x="937" y="1214"/><text fill="#000000" font-family="sans-serif" font-size="14" lengthAdjust="spacingAndGlyphs" textLength="224" x="710" y="1237.5332">stefanzweifel/git-auto-commit-action</text><!--MD5=[37b44c279ac23edd7aa0f34ec474ec48]
entity cmake--><rect fill="#FEFECE" filter="url(#f1ka457w0o6v22)" height="47.6094" style="stroke: #A80036; stroke-width: 1.5;" width="81" x="786.5" y="1327"/><rect fill="#FEFECE" height="10" style="stroke: #A80036; stroke-width: 1.5;" width="15" x="847.5" y="1332"/><rect fill="#FEFECE" height="2" style="stroke: #A80036; stroke-width: 1.5;" width="4" x="845.5" y="1334"/><rect fill="#FEFECE" height="2" style="stroke: #A80036; stroke-width: 1.5;" width="4" x="845.5" y="1338"/><text fill="#000000" font-family="sans-serif" font-size="14" lengthAdjust="spacingAndGlyphs" textLength="41" x="801.5" y="1361.5332">cmake</text><!--MD5=[bdd0957ba4e82f4bb7afce4b29d220d5]
link dlt-message-analyzer to qt5--><path d="M161.501,801.784 C162.901,722.148 178.749,466.212 321,339 C458.602,215.95 702.051,222.99 791.656,230.39 " fill="none" id="dlt-message-analyzer-to-qt5" style="stroke: #A80036; stroke-width: 1.0;"/><polygon fill="#A80036" points="796.826,230.84,788.2001,226.0867,791.8442,230.4134,787.5175,234.0575,796.826,230.84" style="stroke: #A80036; stroke-width: 1.0;"/><text fill="#000000" font-family="sans-serif" font-size="13" lengthAdjust="spacingAndGlyphs" textLength="254" x="353" y="226.4951">https://doc.qt.io/qt-5/reference-overview.html</text><!--MD5=[8112a7b961131300ebebe2d4775ca779]
link dlt-message-analyzer to qdlt--><path d="M164.242,801.89 C176.565,697.865 230.212,288.9 321,204 C454.768,78.91 698.908,94.02 790.248,104.9 " fill="none" id="dlt-message-analyzer-to-qdlt" style="stroke: #A80036; stroke-width: 1.0;"/><polygon fill="#A80036" points="795.263,105.51,786.8146,100.4479,790.2999,104.9036,785.8443,108.3889,795.263,105.51" style="stroke: #A80036; stroke-width: 1.0;"/><text fill="#000000" font-family="sans-serif" font-size="13" lengthAdjust="spacingAndGlyphs" textLength="304" x="328" y="95.4951">https://github.com/GENIVI/dlt-viewer/tree/master/qdlt</text><!--MD5=[296feac73e22f9053c5fa7e3b918fa1e]
link dlt-message-analyzer to plantuml--><path d="M172.862,801.891 C194.94,757.743 247.954,663.963 321,615 C466.197,517.674 679.126,491.508 775.41,484.52 " fill="none" id="dlt-message-analyzer-to-plantuml" style="stroke: #A80036; stroke-width: 1.0;"/><polygon fill="#A80036" points="780.465,484.163,771.2061,480.8055,775.4774,484.5145,771.7684,488.7857,780.465,484.163" style="stroke: #A80036; stroke-width: 1.0;"/><text fill="#000000" font-family="sans-serif" font-size="13" lengthAdjust="spacingAndGlyphs" textLength="141" x="409.5" y="499.4951">https://plantuml.com/en/</text><!--MD5=[b7c9fee982c166734ee1d28d7c565cff]
link dlt-message-analyzer to antlr4--><path d="M195.117,801.967 C226.382,780.611 274.941,749.928 321,731 C485.227,663.51 695.02,625.962 783.557,612.168 " fill="none" id="dlt-message-analyzer-to-antlr4" style="stroke: #A80036; stroke-width: 1.0;"/><polygon fill="#A80036" points="788.703,611.372,779.1974,608.7947,783.7618,612.1363,780.4202,616.7007,788.703,611.372" style="stroke: #A80036; stroke-width: 1.0;"/><text fill="#000000" font-family="sans-serif" font-size="13" lengthAdjust="spacingAndGlyphs" textLength="170" x="395" y="637.4951">https://github.com/antlr/antlr4</text><!--MD5=[7a395dd35d8596c77786a6a99e02cc1d]
link dlt-message-analyzer to pcre-parser--><path d="M248.031,813.499 C384.314,793.81 645.648,756.055 764.473,738.889 " fill="none" id="dlt-message-analyzer-to-pcre-parser" style="stroke: #A80036; stroke-width: 1.0;"/><polygon fill="#A80036" points="769.677,738.137,760.1971,735.4665,764.7285,738.8527,761.3422,743.3841,769.677,738.137" style="stroke: #A80036; stroke-width: 1.0;"/><text fill="#000000" font-family="sans-serif" font-size="13" lengthAdjust="spacingAndGlyphs" textLength="213" x="373.5" y="753.4951">https://github.com/bkiers/pcre-parser</text><!--MD5=[ec77e3408bd8758d67f9b109069ed4c3]
link dlt-message-analyzer to variant-lite--><path d="M248.031,829.646 C385.872,835.454 651.641,846.653 768.494,851.577 " fill="none" id="dlt-message-analyzer-to-variant-lite" style="stroke: #A80036; stroke-width: 1.0;"/><polygon fill="#A80036" points="773.605,851.792,764.7809,847.4175,768.6094,851.582,764.4449,855.4105,773.605,851.792" style="stroke: #A80036; stroke-width: 1.0;"/><text fill="#000000" font-family="sans-serif" font-size="13" lengthAdjust="spacingAndGlyphs" textLength="246" x="357" y="828.4951">https://github.com/martinmoene/variant-lite</text><!--MD5=[b7fec570020494298b47a41d671a5db8]
link antlr4 to uuid-dev--><path d="M865.095,606 C906.104,606 972.457,606 1018.61,606 " fill="none" id="antlr4-to-uuid-dev" style="stroke: #A80036; stroke-width: 1.0;"/><polygon fill="#A80036" points="1023.85,606,1014.85,602,1018.85,606,1014.85,610,1023.85,606" style="stroke: #A80036; stroke-width: 1.0;"/><!--MD5=[966907078f9348c7553423abb3bfd90c]
link dlt-message-analyzer-repo to actions/cache--><path d="M265.328,954.375 C402.903,960.172 641.751,970.236 758.223,975.144 " fill="none" id="dlt-message-analyzer-repo-to-actions/cache" style="stroke: #A80036; stroke-width: 1.0;"/><polygon fill="#A80036" points="763.336,975.36,754.5119,970.9855,758.3404,975.15,754.1759,978.9785,763.336,975.36" style="stroke: #A80036; stroke-width: 1.0;"/><text fill="#000000" font-family="sans-serif" font-size="13" lengthAdjust="spacingAndGlyphs" textLength="190" x="385" y="952.4951">https://github.com/actions/cache</text><!--MD5=[ccfffe396a6dec0d80b4ea9a4d3b02bc]
link dlt-message-analyzer-repo to actions/checkout--><path d="M235.964,974.029 C262.575,981.935 292.921,990.18 321,996 C470.875,1027.068 649.035,1045.845 748.653,1054.745 " fill="none" id="dlt-message-analyzer-repo-to-actions/checkout" style="stroke: #A80036; stroke-width: 1.0;"/><polygon fill="#A80036" points="753.924,1055.213,745.3136,1050.4317,748.9436,1054.7702,744.6051,1058.4003,753.924,1055.213" style="stroke: #A80036; stroke-width: 1.0;"/><text fill="#000000" font-family="sans-serif" font-size="13" lengthAdjust="spacingAndGlyphs" textLength="208" x="376" y="992.4951">https://github.com/actions/checkout</text><!--MD5=[82954dd632eec7b428e6368ff8f3322c]
link dlt-message-analyzer-repo to jurplel/install-qt-action--><path d="M185.565,974.12 C214.848,1001.897 267.091,1046.575 321,1069 C456.606,1125.41 628.241,1140.217 732.449,1143.644 " fill="none" id="dlt-message-analyzer-repo-to-jurplel/install-qt-action" style="stroke: #A80036; stroke-width: 1.0;"/><polygon fill="#A80036" points="737.669,1143.808,728.7992,1139.5271,732.6715,1143.6508,728.5477,1147.5231,737.669,1143.808" style="stroke: #A80036; stroke-width: 1.0;"/><text fill="#000000" font-family="sans-serif" font-size="13" lengthAdjust="spacingAndGlyphs" textLength="235" x="362.5" y="1065.4951">https://github.com/jurplel/install-qt-action</text><!--MD5=[869f948e6e1d1cce7593c1e5fd36cc5d]
link dlt-message-analyzer-repo to stefanzweifel/git-auto-commit-action--><path d="M171.723,974.202 C192.415,1019.863 243.938,1118.152 321,1163 C433.125,1228.253 582.709,1239.715 689.925,1237.62 " fill="none" id="dlt-message-analyzer-repo-to-stefanzweifel/git-auto-commit-action" style="stroke: #A80036; stroke-width: 1.0;"/><polygon fill="#A80036" points="694.998,1237.51,685.9133,1233.7064,689.9992,1237.6186,686.087,1241.7045,694.998,1237.51" style="stroke: #A80036; stroke-width: 1.0;"/><text fill="#000000" font-family="sans-serif" font-size="13" lengthAdjust="spacingAndGlyphs" textLength="316" x="322" y="1159.4951">https://github.com/stefanzweifel/git-auto-commit-action</text><!--MD5=[2920239a69d1bdab75234902a2aa571f]
link dlt-message-analyzer-repo to cmake--><path d="M166.18,974.349 C179.054,1034.219 220.91,1189.096 321,1263 C462.408,1367.412 686.229,1363.0916 781.114,1355.6682 " fill="none" id="dlt-message-analyzer-repo-to-cmake" style="stroke: #A80036; stroke-width: 1.0;"/><polygon fill="#A80036" points="786.356,1355.2445,777.063,1351.9827,781.3723,1355.6474,777.7075,1359.9566,786.356,1355.2445" style="stroke: #A80036; stroke-width: 1.0;"/><text fill="#000000" font-family="sans-serif" font-size="13" lengthAdjust="spacingAndGlyphs" textLength="232" x="364" y="1259.4951">https://gitlab.kitware.com/cmake/cmake</text><!--MD5=[0f0012da5867b234f48678e40d7e1143]
link dlt-message-analyzer to dma_plantuml--><path d="M165.152,801.684 C176.079,737.814 214.62,564.223 321,477 C448.578,372.4 652.103,356.56 757.596,356.01 " fill="none" id="dlt-message-analyzer-to-dma_plantuml" style="stroke: #A80036; stroke-width: 1.0;"/><polygon fill="#A80036" points="762.854,356,753.8426,352.0257,757.854,356.0143,753.8655,360.0257,762.854,356" style="stroke: #A80036; stroke-width: 1.0;"/><text fill="#000000" font-family="sans-serif" font-size="13" lengthAdjust="spacingAndGlyphs" textLength="247" x="356.5" y="361.4951">https://github.com/svlad-90/DMA_Plantuml</text><!--MD5=[58b5e26074a55280454b7cd9ff4a06b9]
@startuml

left to right direction

package "DMA" {
    package "DMA_Source" {
        [dlt-message-analyzer]
    }
    
    package "DMA_Github" {
        [dlt-message-analyzer-repo]
    }
}

package "DMA Dependencies" {
    package "DLT" {
        [qdlt]
    }

    package "Qt" {
        [qt5]
    }

    package "DMA_Plantuml" {
        [dma_plantuml]
    }

    package "Plantuml" {
        [plantuml]
    }

    package "Antlr" {
        [antlr4]
    }
    
    package "uuid" {
        [uuid-dev]
    }

    package "Pcre-parser" {
        [pcre-parser]
    }

    package "Variant-lite" {
        [variant-lite]
    }

    package "Github-actions"{
        [actions/cache]
        [actions/checkout]
        [jurplel/install-qt-action]
        [stefanzweifel/git-auto-commit-action]
    }
    
    package "Build system"{
        [cmake]
    }
}

[dlt-message-analyzer] - -> [qt5] : https://doc.qt.io/qt-5/reference-overview.html
[dlt-message-analyzer] - -> [qdlt] : https://github.com/GENIVI/dlt-viewer/tree/master/qdlt
[dlt-message-analyzer] - -> [plantuml] : https://plantuml.com/en/
[dlt-message-analyzer] - -> [antlr4] : https://github.com/antlr/antlr4
[dlt-message-analyzer] - -> [pcre-parser] : https://github.com/bkiers/pcre-parser
[dlt-message-analyzer] - -> [variant-lite] : https://github.com/martinmoene/variant-lite

[antlr4] - -> [uuid-dev]

[dlt-message-analyzer-repo] - -> [actions/cache] : https://github.com/actions/cache
[dlt-message-analyzer-repo] - -> [actions/checkout] : https://github.com/actions/checkout
[dlt-message-analyzer-repo] - -> [jurplel/install-qt-action] : https://github.com/jurplel/install-qt-action
[dlt-message-analyzer-repo] - -> [stefanzweifel/git-auto-commit-action] : https://github.com/stefanzweifel/git-auto-commit-action
[dlt-message-analyzer-repo] - -> [cmake] : https://gitlab.kitware.com/cmake/cmake

[dlt-message-analyzer] - -> [dma_plantuml] : https://github.com/svlad-90/DMA_Plantuml

@enduml

PlantUML version 1.2020.16(Sun Aug 23 23:20:43 EEST 2020)
(GPL source distribution)
Java Runtime: Java(TM) SE Runtime Environment
JVM: Java HotSpot(TM) 64-Bit Server VM
Default Encoding: Cp1251
Language: en
Country: US
--></g></svg>