<?xml version="1.0" encoding="UTF-8" standalone="no"?><svg xmlns="http://www.w3.org/2000/svg" xmlns:xlink="http://www.w3.org/1999/xlink" contentScriptType="application/ecmascript" contentStyleType="text/css" height="1728px" preserveAspectRatio="none" style="width:1246px;height:1728px;" version="1.1" viewBox="0 0 1246 1728" width="1246px" zoomAndPan="magnify"><defs><filter height="300%" id="f1tdvc7z4c829d" width="300%" x="-1" y="-1"><feGaussianBlur result="blurOut" stdDeviation="2.0"/><feColorMatrix in="blurOut" result="blurOut2" type="matrix" values="0 0 0 0 0 0 0 0 0 0 0 0 0 0 0 0 0 0 .4 0"/><feOffset dx="4.0" dy="4.0" in="blurOut2" result="blurOut3"/><feBlend in="SourceGraphic" in2="blurOut3" mode="normal"/></filter></defs><g><!--MD5=[660b5dafce0b1b597500e209c2865732]
cluster DLT_Message_Analyzer--><polygon fill="#FFFFFF" filter="url(#f1tdvc7z4c829d)" points="21,792,210,792,217,814.2969,331,814.2969,331,1057,21,1057,21,792" style="stroke: #000000; stroke-width: 1.5;"/><line style="stroke: #000000; stroke-width: 1.5;" x1="21" x2="217" y1="814.2969" y2="814.2969"/><text fill="#000000" font-family="sans-serif" font-size="14" font-weight="bold" lengthAdjust="spacingAndGlyphs" textLength="183" x="25" y="806.9951">DLT_Message_Analyzer</text><!--MD5=[00715918961d283e965802c8efe04f09]
cluster DLT_Message_Analyzer_Source--><polygon fill="#FFFFFF" filter="url(#f1tdvc7z4c829d)" points="45,835,297,835,304,857.2969,307,857.2969,307,922,45,922,45,835" style="stroke: #000000; stroke-width: 1.5;"/><line style="stroke: #000000; stroke-width: 1.5;" x1="45" x2="304" y1="857.2969" y2="857.2969"/><text fill="#000000" font-family="sans-serif" font-size="14" font-weight="bold" lengthAdjust="spacingAndGlyphs" textLength="246" x="49" y="849.9951">DLT_Message_Analyzer_Source</text><!--MD5=[be7819e071f2084d5b5a0faf64985bb9]
cluster DLT_Message_Analyzer_Github--><polygon fill="#FFFFFF" filter="url(#f1tdvc7z4c829d)" points="47,946,295,946,302,968.2969,305,968.2969,305,1033,47,1033,47,946" style="stroke: #000000; stroke-width: 1.5;"/><line style="stroke: #000000; stroke-width: 1.5;" x1="47" x2="302" y1="968.2969" y2="968.2969"/><text fill="#000000" font-family="sans-serif" font-size="14" font-weight="bold" lengthAdjust="spacingAndGlyphs" textLength="242" x="51" y="960.9951">DLT_Message_Analyzer_Github</text><!--MD5=[87210ba321c8d2ff5b2b4eba58b62580]
cluster DLT_Message_Analyzer Dependencies--><polygon fill="#FFFFFF" filter="url(#f1tdvc7z4c829d)" points="720,24,1027,24,1034,46.2969,1224,46.2969,1224,1714,720,1714,720,24" style="stroke: #000000; stroke-width: 1.5;"/><line style="stroke: #000000; stroke-width: 1.5;" x1="720" x2="1034" y1="46.2969" y2="46.2969"/><text fill="#000000" font-family="sans-serif" font-size="14" font-weight="bold" lengthAdjust="spacingAndGlyphs" textLength="301" x="724" y="38.9951">DLT_Message_Analyzer Dependencies</text><!--MD5=[753543caffeb124bdf1cceb6d968d692]
cluster DLT--><polygon fill="#FFFFFF" filter="url(#f1tdvc7z4c829d)" points="859.5,67,895.5,67,902.5,89.2969,937.5,89.2969,937.5,154,859.5,154,859.5,67" style="stroke: #000000; stroke-width: 1.5;"/><line style="stroke: #000000; stroke-width: 1.5;" x1="859.5" x2="902.5" y1="89.2969" y2="89.2969"/><text fill="#000000" font-family="sans-serif" font-size="14" font-weight="bold" lengthAdjust="spacingAndGlyphs" textLength="30" x="863.5" y="81.9951">DLT</text><!--MD5=[0aca3eaa01c17ff0039911bbeeabf854]
cluster Qt--><polygon fill="#FFFFFF" filter="url(#f1tdvc7z4c829d)" points="861,178,885,178,892,200.2969,936,200.2969,936,336,861,336,861,178" style="stroke: #000000; stroke-width: 1.5;"/><line style="stroke: #000000; stroke-width: 1.5;" x1="861" x2="892" y1="200.2969" y2="200.2969"/><text fill="#000000" font-family="sans-serif" font-size="14" font-weight="bold" lengthAdjust="spacingAndGlyphs" textLength="18" x="865" y="192.9951">Qt</text><!--MD5=[99e233c5ccc5f47666714d3b38841b92]
cluster QCustomPlot--><polygon fill="#FFFFFF" filter="url(#f1tdvc7z4c829d)" points="829,360,937,360,944,382.2969,968,382.2969,968,447,829,447,829,360" style="stroke: #000000; stroke-width: 1.5;"/><line style="stroke: #000000; stroke-width: 1.5;" x1="829" x2="944" y1="382.2969" y2="382.2969"/><text fill="#000000" font-family="sans-serif" font-size="14" font-weight="bold" lengthAdjust="spacingAndGlyphs" textLength="102" x="833" y="374.9951">QCustomPlot</text><!--MD5=[ff3a044f00bfe660ff468ae901f1891e]
cluster DMA_Family--><polygon fill="#FFFFFF" filter="url(#f1tdvc7z4c829d)" points="802.5,471,899.5,471,906.5,493.2969,994.5,493.2969,994.5,700,802.5,700,802.5,471" style="stroke: #000000; stroke-width: 1.5;"/><line style="stroke: #000000; stroke-width: 1.5;" x1="802.5" x2="906.5" y1="493.2969" y2="493.2969"/><text fill="#000000" font-family="sans-serif" font-size="14" font-weight="bold" lengthAdjust="spacingAndGlyphs" textLength="91" x="806.5" y="485.9951">DMA_Family</text><!--MD5=[47b340804ad901fff3abdfb0642a7664]
cluster Plantuml--><polygon fill="#FFFFFF" filter="url(#f1tdvc7z4c829d)" points="843,724,916,724,923,746.2969,954,746.2969,954,811,843,811,843,724" style="stroke: #000000; stroke-width: 1.5;"/><line style="stroke: #000000; stroke-width: 1.5;" x1="843" x2="923" y1="746.2969" y2="746.2969"/><text fill="#000000" font-family="sans-serif" font-size="14" font-weight="bold" lengthAdjust="spacingAndGlyphs" textLength="67" x="847" y="738.9951">Plantuml</text><!--MD5=[1fde209031faa46c276f89c7e8d91c77]
cluster Antlr--><polygon fill="#FFFFFF" filter="url(#f1tdvc7z4c829d)" points="853,835,897,835,904,857.2969,944,857.2969,944,922,853,922,853,835" style="stroke: #000000; stroke-width: 1.5;"/><line style="stroke: #000000; stroke-width: 1.5;" x1="853" x2="904" y1="857.2969" y2="857.2969"/><text fill="#000000" font-family="sans-serif" font-size="14" font-weight="bold" lengthAdjust="spacingAndGlyphs" textLength="38" x="857" y="849.9951">Antlr</text><!--MD5=[ec3ed892f3fac55f394810426a52d654]
cluster uuid--><polygon fill="#FFFFFF" filter="url(#f1tdvc7z4c829d)" points="1086,835,1126,835,1133,857.2969,1200,857.2969,1200,922,1086,922,1086,835" style="stroke: #000000; stroke-width: 1.5;"/><line style="stroke: #000000; stroke-width: 1.5;" x1="1086" x2="1133" y1="857.2969" y2="857.2969"/><text fill="#000000" font-family="sans-serif" font-size="14" font-weight="bold" lengthAdjust="spacingAndGlyphs" textLength="34" x="1090" y="849.9951">uuid</text><!--MD5=[d21206043a114b9d7728a080028ac7df]
cluster Pcre_parser--><polygon fill="#FFFFFF" filter="url(#f1tdvc7z4c829d)" points="831.5,946,932.5,946,939.5,968.2969,965.5,968.2969,965.5,1033,831.5,1033,831.5,946" style="stroke: #000000; stroke-width: 1.5;"/><line style="stroke: #000000; stroke-width: 1.5;" x1="831.5" x2="939.5" y1="968.2969" y2="968.2969"/><text fill="#000000" font-family="sans-serif" font-size="14" font-weight="bold" lengthAdjust="spacingAndGlyphs" textLength="95" x="835.5" y="960.9951">Pcre_parser</text><!--MD5=[1766aac266cf76d64d446e887ff467d2]
cluster Variant_lite--><polygon fill="#FFFFFF" filter="url(#f1tdvc7z4c829d)" points="836.5,1057,929.5,1057,936.5,1079.2969,960.5,1079.2969,960.5,1144,836.5,1144,836.5,1057" style="stroke: #000000; stroke-width: 1.5;"/><line style="stroke: #000000; stroke-width: 1.5;" x1="836.5" x2="936.5" y1="1079.2969" y2="1079.2969"/><text fill="#000000" font-family="sans-serif" font-size="14" font-weight="bold" lengthAdjust="spacingAndGlyphs" textLength="87" x="840.5" y="1071.9951">Variant_lite</text><!--MD5=[4ac75f36695ece63879c728112de416c]
cluster json--><polygon fill="#FFFFFF" filter="url(#f1tdvc7z4c829d)" points="821,1279,860,1279,867,1301.2969,976,1301.2969,976,1366,821,1366,821,1279" style="stroke: #000000; stroke-width: 1.5;"/><line style="stroke: #000000; stroke-width: 1.5;" x1="821" x2="867" y1="1301.2969" y2="1301.2969"/><text fill="#000000" font-family="sans-serif" font-size="14" font-weight="bold" lengthAdjust="spacingAndGlyphs" textLength="33" x="825" y="1293.9951">json</text><!--MD5=[6d6dd3a88c5a8e73c0d5d16eb64420e7]
cluster Github_actions--><polygon fill="#FFFFFF" filter="url(#f1tdvc7z4c829d)" points="744,1390,866,1390,873,1412.2969,1053,1412.2969,1053,1690,744,1690,744,1390" style="stroke: #000000; stroke-width: 1.5;"/><line style="stroke: #000000; stroke-width: 1.5;" x1="744" x2="873" y1="1412.2969" y2="1412.2969"/><text fill="#000000" font-family="sans-serif" font-size="14" font-weight="bold" lengthAdjust="spacingAndGlyphs" textLength="116" x="748" y="1404.9951">Github_actions</text><!--MD5=[aa2dd4b7182c95cb5bda1b57c85aaee4]
cluster Build system--><polygon fill="#FFFFFF" filter="url(#f1tdvc7z4c829d)" points="840.5,1168,946.5,1168,953.5,1190.2969,956.5,1190.2969,956.5,1255,840.5,1255,840.5,1168" style="stroke: #000000; stroke-width: 1.5;"/><line style="stroke: #000000; stroke-width: 1.5;" x1="840.5" x2="953.5" y1="1190.2969" y2="1190.2969"/><text fill="#000000" font-family="sans-serif" font-size="14" font-weight="bold" lengthAdjust="spacingAndGlyphs" textLength="100" x="844.5" y="1182.9951">Build system</text><!--MD5=[11618173411f6d5f6c0eb00eb11c2118]
entity dlt_message_analyzer_source--><rect fill="#FEFECE" filter="url(#f1tdvc7z4c829d)" height="36.2969" style="stroke: #A80036; stroke-width: 1.5;" width="227" x="62" y="870"/><rect fill="#FEFECE" height="5" style="stroke: #A80036; stroke-width: 1.5;" width="10" x="57" y="875"/><rect fill="#FEFECE" height="5" style="stroke: #A80036; stroke-width: 1.5;" width="10" x="57" y="896.2969"/><text fill="#000000" font-family="sans-serif" font-size="14" lengthAdjust="spacingAndGlyphs" textLength="207" x="72" y="892.9951">dlt_message_analyzer_source</text><!--MD5=[e389352ca7078b9cf463fa9b07370eeb]
entity dlt_message_analyzer_github--><rect fill="#FEFECE" filter="url(#f1tdvc7z4c829d)" height="36.2969" style="stroke: #A80036; stroke-width: 1.5;" width="223" x="64" y="981"/><rect fill="#FEFECE" height="5" style="stroke: #A80036; stroke-width: 1.5;" width="10" x="59" y="986"/><rect fill="#FEFECE" height="5" style="stroke: #A80036; stroke-width: 1.5;" width="10" x="59" y="1007.2969"/><text fill="#000000" font-family="sans-serif" font-size="14" lengthAdjust="spacingAndGlyphs" textLength="203" x="74" y="1003.9951">dlt_message_analyzer_github</text><!--MD5=[c6f9a1eb8a02a6c7613ac2378b32058e]
entity qdlt--><rect fill="#FEFECE" filter="url(#f1tdvc7z4c829d)" height="36.2969" style="stroke: #A80036; stroke-width: 1.5;" width="46" x="875.5" y="102"/><rect fill="#FEFECE" height="5" style="stroke: #A80036; stroke-width: 1.5;" width="10" x="870.5" y="107"/><rect fill="#FEFECE" height="5" style="stroke: #A80036; stroke-width: 1.5;" width="10" x="870.5" y="128.2969"/><text fill="#000000" font-family="sans-serif" font-size="14" lengthAdjust="spacingAndGlyphs" textLength="26" x="885.5" y="124.9951">qdlt</text><!--MD5=[c15f40f9222499a3411b898603282877]
entity qt5--><rect fill="#FEFECE" filter="url(#f1tdvc7z4c829d)" height="36.2969" style="stroke: #A80036; stroke-width: 1.5;" width="43" x="877" y="213"/><rect fill="#FEFECE" height="5" style="stroke: #A80036; stroke-width: 1.5;" width="10" x="872" y="218"/><rect fill="#FEFECE" height="5" style="stroke: #A80036; stroke-width: 1.5;" width="10" x="872" y="239.2969"/><text fill="#000000" font-family="sans-serif" font-size="14" lengthAdjust="spacingAndGlyphs" textLength="23" x="887" y="235.9951">qt5</text><!--MD5=[bd4019b5b4036e2ca54e98528b0780fc]
entity qt6--><rect fill="#FEFECE" filter="url(#f1tdvc7z4c829d)" height="36.2969" style="stroke: #A80036; stroke-width: 1.5;" width="43" x="877" y="284"/><rect fill="#FEFECE" height="5" style="stroke: #A80036; stroke-width: 1.5;" width="10" x="872" y="289"/><rect fill="#FEFECE" height="5" style="stroke: #A80036; stroke-width: 1.5;" width="10" x="872" y="310.2969"/><text fill="#000000" font-family="sans-serif" font-size="14" lengthAdjust="spacingAndGlyphs" textLength="23" x="887" y="306.9951">qt6</text><!--MD5=[219eb1d85024281f483929aa80b27aa6]
entity qcustomplot--><rect fill="#FEFECE" filter="url(#f1tdvc7z4c829d)" height="36.2969" style="stroke: #A80036; stroke-width: 1.5;" width="107" x="845" y="395"/><rect fill="#FEFECE" height="5" style="stroke: #A80036; stroke-width: 1.5;" width="10" x="840" y="400"/><rect fill="#FEFECE" height="5" style="stroke: #A80036; stroke-width: 1.5;" width="10" x="840" y="421.2969"/><text fill="#000000" font-family="sans-serif" font-size="14" lengthAdjust="spacingAndGlyphs" textLength="87" x="855" y="417.9951">qcustomplot</text><!--MD5=[e7bd85d92d5747c660b8934e8a12e4ab]
entity dma_plantuml--><rect fill="#FEFECE" filter="url(#f1tdvc7z4c829d)" height="36.2969" style="stroke: #A80036; stroke-width: 1.5;" width="116" x="840.5" y="506"/><rect fill="#FEFECE" height="5" style="stroke: #A80036; stroke-width: 1.5;" width="10" x="835.5" y="511"/><rect fill="#FEFECE" height="5" style="stroke: #A80036; stroke-width: 1.5;" width="10" x="835.5" y="532.2969"/><text fill="#000000" font-family="sans-serif" font-size="14" lengthAdjust="spacingAndGlyphs" textLength="96" x="850.5" y="528.9951">dma_plantuml</text><!--MD5=[27520cc21299a69f974a7317780de2c8]
entity dma_framework--><rect fill="#FEFECE" filter="url(#f1tdvc7z4c829d)" height="36.2969" style="stroke: #A80036; stroke-width: 1.5;" width="129" x="834" y="577"/><rect fill="#FEFECE" height="5" style="stroke: #A80036; stroke-width: 1.5;" width="10" x="829" y="582"/><rect fill="#FEFECE" height="5" style="stroke: #A80036; stroke-width: 1.5;" width="10" x="829" y="603.2969"/><text fill="#000000" font-family="sans-serif" font-size="14" lengthAdjust="spacingAndGlyphs" textLength="109" x="844" y="599.9951">dma_framework</text><!--MD5=[0e158f5823b0df0ca5e88a3d1975bc25]
entity dma_common_deps--><rect fill="#FEFECE" filter="url(#f1tdvc7z4c829d)" height="36.2969" style="stroke: #A80036; stroke-width: 1.5;" width="160" x="818.5" y="648"/><rect fill="#FEFECE" height="5" style="stroke: #A80036; stroke-width: 1.5;" width="10" x="813.5" y="653"/><rect fill="#FEFECE" height="5" style="stroke: #A80036; stroke-width: 1.5;" width="10" x="813.5" y="674.2969"/><text fill="#000000" font-family="sans-serif" font-size="14" lengthAdjust="spacingAndGlyphs" textLength="140" x="828.5" y="670.9951">dma_common_deps</text><!--MD5=[f34abdc907f3da33f3fd0e2cc8b4f06b]
entity plantuml--><rect fill="#FEFECE" filter="url(#f1tdvc7z4c829d)" height="36.2969" style="stroke: #A80036; stroke-width: 1.5;" width="79" x="859" y="759"/><rect fill="#FEFECE" height="5" style="stroke: #A80036; stroke-width: 1.5;" width="10" x="854" y="764"/><rect fill="#FEFECE" height="5" style="stroke: #A80036; stroke-width: 1.5;" width="10" x="854" y="785.2969"/><text fill="#000000" font-family="sans-serif" font-size="14" lengthAdjust="spacingAndGlyphs" textLength="59" x="869" y="781.9951">plantuml</text><!--MD5=[0a984248fbf66a1e8e0e1beb9046e2d3]
entity antlr4--><rect fill="#FEFECE" filter="url(#f1tdvc7z4c829d)" height="36.2969" style="stroke: #A80036; stroke-width: 1.5;" width="59" x="869" y="870"/><rect fill="#FEFECE" height="5" style="stroke: #A80036; stroke-width: 1.5;" width="10" x="864" y="875"/><rect fill="#FEFECE" height="5" style="stroke: #A80036; stroke-width: 1.5;" width="10" x="864" y="896.2969"/><text fill="#000000" font-family="sans-serif" font-size="14" lengthAdjust="spacingAndGlyphs" textLength="39" x="879" y="892.9951">antlr4</text><!--MD5=[46211472ad6f30fc1017063da72ed381]
entity uuid_dev--><rect fill="#FEFECE" filter="url(#f1tdvc7z4c829d)" height="36.2969" style="stroke: #A80036; stroke-width: 1.5;" width="82" x="1102" y="870"/><rect fill="#FEFECE" height="5" style="stroke: #A80036; stroke-width: 1.5;" width="10" x="1097" y="875"/><rect fill="#FEFECE" height="5" style="stroke: #A80036; stroke-width: 1.5;" width="10" x="1097" y="896.2969"/><text fill="#000000" font-family="sans-serif" font-size="14" lengthAdjust="spacingAndGlyphs" textLength="62" x="1112" y="892.9951">uuid_dev</text><!--MD5=[3920431e64f21f95d01538a7d6ce2e75]
entity pcre_parser--><rect fill="#FEFECE" filter="url(#f1tdvc7z4c829d)" height="36.2969" style="stroke: #A80036; stroke-width: 1.5;" width="102" x="847.5" y="981"/><rect fill="#FEFECE" height="5" style="stroke: #A80036; stroke-width: 1.5;" width="10" x="842.5" y="986"/><rect fill="#FEFECE" height="5" style="stroke: #A80036; stroke-width: 1.5;" width="10" x="842.5" y="1007.2969"/><text fill="#000000" font-family="sans-serif" font-size="14" lengthAdjust="spacingAndGlyphs" textLength="82" x="857.5" y="1003.9951">pcre_parser</text><!--MD5=[88f6b56f4e7801f78f23a8249090a7ff]
entity variant_lite--><rect fill="#FEFECE" filter="url(#f1tdvc7z4c829d)" height="36.2969" style="stroke: #A80036; stroke-width: 1.5;" width="92" x="852.5" y="1092"/><rect fill="#FEFECE" height="5" style="stroke: #A80036; stroke-width: 1.5;" width="10" x="847.5" y="1097"/><rect fill="#FEFECE" height="5" style="stroke: #A80036; stroke-width: 1.5;" width="10" x="847.5" y="1118.2969"/><text fill="#000000" font-family="sans-serif" font-size="14" lengthAdjust="spacingAndGlyphs" textLength="72" x="862.5" y="1114.9951">variant_lite</text><!--MD5=[75b567971e9f345d76b6ce0fe0ffaea8]
entity nlohmann/json--><rect fill="#FEFECE" filter="url(#f1tdvc7z4c829d)" height="36.2969" style="stroke: #A80036; stroke-width: 1.5;" width="123" x="837" y="1314"/><rect fill="#FEFECE" height="5" style="stroke: #A80036; stroke-width: 1.5;" width="10" x="832" y="1319"/><rect fill="#FEFECE" height="5" style="stroke: #A80036; stroke-width: 1.5;" width="10" x="832" y="1340.2969"/><text fill="#000000" font-family="sans-serif" font-size="14" lengthAdjust="spacingAndGlyphs" textLength="103" x="847" y="1336.9951">nlohmann/json</text><!--MD5=[3ba07de7792a87893c1e49977f536306]
entity actions/cache--><rect fill="#FEFECE" filter="url(#f1tdvc7z4c829d)" height="36.2969" style="stroke: #A80036; stroke-width: 1.5;" width="117" x="840" y="1425"/><rect fill="#FEFECE" height="5" style="stroke: #A80036; stroke-width: 1.5;" width="10" x="835" y="1430"/><rect fill="#FEFECE" height="5" style="stroke: #A80036; stroke-width: 1.5;" width="10" x="835" y="1451.2969"/><text fill="#000000" font-family="sans-serif" font-size="14" lengthAdjust="spacingAndGlyphs" textLength="97" x="850" y="1447.9951">actions/cache</text><!--MD5=[e69ff48adaa685c3fc6bf1379e60b585]
entity actions/checkout--><rect fill="#FEFECE" filter="url(#f1tdvc7z4c829d)" height="36.2969" style="stroke: #A80036; stroke-width: 1.5;" width="140" x="828.5" y="1496"/><rect fill="#FEFECE" height="5" style="stroke: #A80036; stroke-width: 1.5;" width="10" x="823.5" y="1501"/><rect fill="#FEFECE" height="5" style="stroke: #A80036; stroke-width: 1.5;" width="10" x="823.5" y="1522.2969"/><text fill="#000000" font-family="sans-serif" font-size="14" lengthAdjust="spacingAndGlyphs" textLength="120" x="838.5" y="1518.9951">actions/checkout</text><!--MD5=[461956e3378b7b91da0c3d70c6a5e88f]
entity jurplel/install_qt_action--><rect fill="#FEFECE" filter="url(#f1tdvc7z4c829d)" height="36.2969" style="stroke: #A80036; stroke-width: 1.5;" width="175" x="811" y="1567"/><rect fill="#FEFECE" height="5" style="stroke: #A80036; stroke-width: 1.5;" width="10" x="806" y="1572"/><rect fill="#FEFECE" height="5" style="stroke: #A80036; stroke-width: 1.5;" width="10" x="806" y="1593.2969"/><text fill="#000000" font-family="sans-serif" font-size="14" lengthAdjust="spacingAndGlyphs" textLength="155" x="821" y="1589.9951">jurplel/install_qt_action</text><!--MD5=[289f97c89d2fe0d9a1db176bd003a91f]
entity stefanzweifel/git_auto_commit_action--><rect fill="#FEFECE" filter="url(#f1tdvc7z4c829d)" height="36.2969" style="stroke: #A80036; stroke-width: 1.5;" width="277" x="760" y="1638"/><rect fill="#FEFECE" height="5" style="stroke: #A80036; stroke-width: 1.5;" width="10" x="755" y="1643"/><rect fill="#FEFECE" height="5" style="stroke: #A80036; stroke-width: 1.5;" width="10" x="755" y="1664.2969"/><text fill="#000000" font-family="sans-serif" font-size="14" lengthAdjust="spacingAndGlyphs" textLength="257" x="770" y="1660.9951">stefanzweifel/git_auto_commit_action</text><!--MD5=[37b44c279ac23edd7aa0f34ec474ec48]
entity cmake--><rect fill="#FEFECE" filter="url(#f1tdvc7z4c829d)" height="36.2969" style="stroke: #A80036; stroke-width: 1.5;" width="66" x="865.5" y="1203"/><rect fill="#FEFECE" height="5" style="stroke: #A80036; stroke-width: 1.5;" width="10" x="860.5" y="1208"/><rect fill="#FEFECE" height="5" style="stroke: #A80036; stroke-width: 1.5;" width="10" x="860.5" y="1229.2969"/><text fill="#000000" font-family="sans-serif" font-size="14" lengthAdjust="spacingAndGlyphs" textLength="46" x="875.5" y="1225.9951">cmake</text><!--MD5=[8e9af746d17fa1fb2c2c7d4e32a22ad1]
link dlt_message_analyzer_source to dma_common_deps--><path d="M200.25,869.9 C232,846.59 290.8,806.41 347,784 C505.19,720.92 703.05,689.04 813.31,675.12 " fill="none" id="dlt_message_analyzer_source-&gt;dma_common_deps" style="stroke: #A80036; stroke-width: 1.0;"/><polygon fill="#A80036" points="818.49,674.47,809.0593,671.6305,813.5295,675.0972,810.0628,679.5673,818.49,674.47" style="stroke: #A80036; stroke-width: 1.0;"/><text fill="#000000" font-family="sans-serif" font-size="13" lengthAdjust="spacingAndGlyphs" textLength="308" x="371.5" y="689.0669">https://github.com/svlad-90/DMA_CommonDeps</text><!--MD5=[e1215037b653fe22c877ed90831ae2d1]
link dlt_message_analyzer_source to dma_framework--><path d="M184.46,869.9 C204.58,826.58 261.95,716.88 347,668 C427.69,621.62 699.8,603.68 828.69,597.66 " fill="none" id="dlt_message_analyzer_source-&gt;dma_framework" style="stroke: #A80036; stroke-width: 1.0;"/><polygon fill="#A80036" points="833.97,597.41,824.786,593.8526,828.9759,597.6533,825.1753,601.8431,833.97,597.41" style="stroke: #A80036; stroke-width: 1.0;"/><text fill="#000000" font-family="sans-serif" font-size="13" lengthAdjust="spacingAndGlyphs" textLength="286" x="382.5" y="603.0669">https://github.com/svlad-90/DMA_Framework</text><!--MD5=[b2b4d5a49c1246ccf5f13d1611c5f987]
link dlt_message_analyzer_source to dma_plantuml--><path d="M180.58,869.65 C193.73,815.27 240.49,654.41 347,584 C425.81,531.9 708.04,524.43 834.93,523.78 " fill="none" id="dlt_message_analyzer_source-&gt;dma_plantuml" style="stroke: #A80036; stroke-width: 1.0;"/><polygon fill="#A80036" points="840.12,523.75,831.1086,519.7757,835.12,523.7643,831.1315,527.7757,840.12,523.75" style="stroke: #A80036; stroke-width: 1.0;"/><text fill="#000000" font-family="sans-serif" font-size="13" lengthAdjust="spacingAndGlyphs" textLength="272" x="389.5" y="524.0669">https://github.com/svlad-90/DMA_Plantuml</text><!--MD5=[30a38588e4c7224d7a36b5d1a1354a3e]
link dlt_message_analyzer_source to qt5--><path d="M179.1,869.89 C192.43,779.79 255.94,381.05 347,303 C427.25,234.21 774.06,230.44 871.78,230.77 " fill="none" id="dlt_message_analyzer_source-&gt;qt5" style="stroke: #A80036; stroke-width: 1.0;"/><polygon fill="#A80036" points="876.79,230.8,867.813,226.7486,871.7901,230.7714,867.7673,234.7485,876.79,230.8" style="stroke: #A80036; stroke-width: 1.0;"/><text fill="#000000" font-family="sans-serif" font-size="13" lengthAdjust="spacingAndGlyphs" textLength="159" x="446" y="231.0669">https://github.com/qt/qt5</text><!--MD5=[382d66665348b1b50b7fd8cfdb1a9369]
link dlt_message_analyzer_source to qt6--><path d="M176.76,869.9 C178.82,797.84 196.69,529.15 347,401 C387.83,366.19 768.49,317.69 871.76,305.09 " fill="none" id="dlt_message_analyzer_source-&gt;qt6" style="stroke: #A80036; stroke-width: 1.0;"/><polygon fill="#A80036" points="876.75,304.48,867.3264,301.6172,871.788,305.0949,868.3102,309.5564,876.75,304.48" style="stroke: #A80036; stroke-width: 1.0;"/><text fill="#000000" font-family="sans-serif" font-size="13" lengthAdjust="spacingAndGlyphs" textLength="182" x="434.5" y="324.0669">https://github.com/qt/qtbase</text><!--MD5=[1d4458ca568ac74ab60dd9abfe7c9fdf]
link dlt_message_analyzer_source to qcustomplot--><path d="M178.54,869.81 C186.58,807.26 222.07,599.56 347,503 C423.33,444.01 714.29,422.32 839.57,415.61 " fill="none" id="dlt_message_analyzer_source-&gt;qcustomplot" style="stroke: #A80036; stroke-width: 1.0;"/><polygon fill="#A80036" points="844.68,415.34,835.4859,411.8089,839.6866,415.5975,835.898,419.7983,844.68,415.34" style="stroke: #A80036; stroke-width: 1.0;"/><text fill="#000000" font-family="sans-serif" font-size="13" lengthAdjust="spacingAndGlyphs" textLength="262" x="394.5" y="422.0669">https://gitlab.com/DerManu/QCustomPlot</text><!--MD5=[b32eb9404b40d392fd6493d3cd9ba3d6]
link dlt_message_analyzer_source to qdlt--><path d="M178.41,869.78 C189.11,771.34 244.79,303.94 347,210 C499.58,69.77 781.72,101.09 870.22,115.15 " fill="none" id="dlt_message_analyzer_source-&gt;qdlt" style="stroke: #A80036; stroke-width: 1.0;"/><polygon fill="#A80036" points="875.27,115.96,867.012,110.593,870.3324,115.1728,865.7525,118.4932,875.27,115.96" style="stroke: #A80036; stroke-width: 1.0;"/><text fill="#000000" font-family="sans-serif" font-size="13" lengthAdjust="spacingAndGlyphs" textLength="337" x="357" y="99.0669">https://github.com/GENIVI/dlt-viewer/tree/master/qdlt</text><!--MD5=[bb72a1e80e6e081d1743e0b8c646fbf2]
link dlt_message_analyzer_source to plantuml--><path d="M289.16,870.66 C451.34,845.69 743.24,800.75 853.62,783.76 " fill="none" id="dlt_message_analyzer_source-&gt;plantuml" style="stroke: #A80036; stroke-width: 1.0;"/><polygon fill="#A80036" points="858.74,782.97,849.2381,780.3788,853.7976,783.7271,850.4494,788.2866,858.74,782.97" style="stroke: #A80036; stroke-width: 1.0;"/><text fill="#000000" font-family="sans-serif" font-size="13" lengthAdjust="spacingAndGlyphs" textLength="237" x="407" y="805.0669">https://github.com/plantuml/plantuml</text><!--MD5=[ce1ecf902e71acdb69f5ffc61731f2e6]
link dlt_message_analyzer_source to antlr4--><path d="M289.16,888 C456.47,888 761.82,888 863.53,888 " fill="none" id="dlt_message_analyzer_source-&gt;antlr4" style="stroke: #A80036; stroke-width: 1.0;"/><polygon fill="#A80036" points="868.79,888,859.79,884,863.79,888,859.79,892,868.79,888" style="stroke: #A80036; stroke-width: 1.0;"/><text fill="#000000" font-family="sans-serif" font-size="13" lengthAdjust="spacingAndGlyphs" textLength="191" x="430" y="884.0669">https://github.com/antlr/antlr4</text><!--MD5=[537f0eac6aef9f4114ba4f20a5aedb47]
link dlt_message_analyzer_source to pcre_parser--><path d="M289.16,905.34 C446.04,929.5 724.29,972.33 842.22,990.49 " fill="none" id="dlt_message_analyzer_source-&gt;pcre_parser" style="stroke: #A80036; stroke-width: 1.0;"/><polygon fill="#A80036" points="847.37,991.28,839.0794,985.9634,842.4276,990.5229,837.8681,993.8712,847.37,991.28" style="stroke: #A80036; stroke-width: 1.0;"/><text fill="#000000" font-family="sans-serif" font-size="13" lengthAdjust="spacingAndGlyphs" textLength="237" x="407" y="911.0669">https://github.com/bkiers/pcre-parser</text><!--MD5=[026128cd3de1182f08cb80436ddc48d5]
link dlt_message_analyzer_source to variant_lite--><path d="M245.25,906.06 C277.86,917.88 314.87,936.55 339,965 C347.37,974.87 337.54,984.17 347,993 C488.36,1124.95 740.16,1122.81 847.16,1115.04 " fill="none" id="dlt_message_analyzer_source-&gt;variant_lite" style="stroke: #A80036; stroke-width: 1.0;"/><polygon fill="#A80036" points="852.46,1114.65,843.1877,1111.3297,847.4738,1115.0215,843.782,1119.3076,852.46,1114.65" style="stroke: #A80036; stroke-width: 1.0;"/><text fill="#000000" font-family="sans-serif" font-size="13" lengthAdjust="spacingAndGlyphs" textLength="280" x="385.5" y="989.0669">https://github.com/martinmoene/variant-lite</text><!--MD5=[712a8e51ea465cfee6c7158532f571a3]
link dlt_message_analyzer_source to cmake--><path d="M254.53,906.04 C286.11,917.51 319.64,935.89 339,965 C349.84,981.3 333.86,1126.49 347,1141 C481.68,1289.71 760.29,1249.75 860.55,1229.4 " fill="none" id="dlt_message_analyzer_source-&gt;cmake" style="stroke: #A80036; stroke-width: 1.0;"/><polygon fill="#A80036" points="865.47,1228.38,855.8448,1226.2929,860.5744,1229.3963,857.471,1234.1259,865.47,1228.38" style="stroke: #A80036; stroke-width: 1.0;"/><text fill="#000000" font-family="sans-serif" font-size="13" lengthAdjust="spacingAndGlyphs" textLength="255" x="398" y="1137.0669">https://gitlab.kitware.com/cmake/cmake</text><!--MD5=[93935c1c0e262d0f63d5b07ea0650def]
link antlr4 to uuid_dev--><path d="M928.27,888 C969.79,888 1046.93,888 1096.3,888 " fill="none" id="antlr4-&gt;uuid_dev" style="stroke: #A80036; stroke-width: 1.0;"/><polygon fill="#A80036" points="1101.58,888,1092.58,884,1096.58,888,1092.58,892,1101.58,888" style="stroke: #A80036; stroke-width: 1.0;"/><!--MD5=[dc52e0a4caaca387c1357d3e86113ecb]
link dlt_message_analyzer_github to actions/cache--><path d="M178.48,1017.12 C186.35,1079.38 221.33,1285.83 347,1378 C423.26,1433.93 706.86,1442.29 834.52,1443.16 " fill="none" id="dlt_message_analyzer_github-&gt;actions/cache" style="stroke: #A80036; stroke-width: 1.0;"/><polygon fill="#A80036" points="839.73,1443.19,830.753,1439.1386,834.7301,1443.1614,830.7073,1447.1385,839.73,1443.19" style="stroke: #A80036; stroke-width: 1.0;"/><text fill="#000000" font-family="sans-serif" font-size="13" lengthAdjust="spacingAndGlyphs" textLength="209" x="421" y="1374.0669">https://github.com/actions/cache</text><!--MD5=[b962dd241540cdad23a0e1de24deb9dd]
link dlt_message_analyzer_github to actions/checkout--><path d="M176.73,1017.26 C178.69,1088.63 196.28,1350.5 347,1466 C419.74,1521.74 690.49,1521.02 823.21,1517.06 " fill="none" id="dlt_message_analyzer_github-&gt;actions/checkout" style="stroke: #A80036; stroke-width: 1.0;"/><polygon fill="#A80036" points="828.26,1516.91,819.1494,1513.1687,823.262,1517.0528,819.3779,1521.1654,828.26,1516.91" style="stroke: #A80036; stroke-width: 1.0;"/><text fill="#000000" font-family="sans-serif" font-size="13" lengthAdjust="spacingAndGlyphs" textLength="229" x="411" y="1462.0669">https://github.com/actions/checkout</text><!--MD5=[f20309ba69bfac8c6db4b9764b586b8b]
link dlt_message_analyzer_github to jurplel/install_qt_action--><path d="M179.41,1017.12 C193.7,1103.75 259.35,1474.42 347,1544 C382,1571.79 658.29,1580.85 805.64,1583.72 " fill="none" id="dlt_message_analyzer_github-&gt;jurplel/install_qt_action" style="stroke: #A80036; stroke-width: 1.0;"/><polygon fill="#A80036" points="810.82,1583.82,801.9018,1579.6408,805.821,1583.72,801.7418,1587.6392,810.82,1583.82" style="stroke: #A80036; stroke-width: 1.0;"/><text fill="#000000" font-family="sans-serif" font-size="13" lengthAdjust="spacingAndGlyphs" textLength="262" x="394.5" y="1540.0669">https://github.com/jurplel/install-qt-action</text><!--MD5=[7592ffcbf9d3e23dac11c68d30bc782e]
link dlt_message_analyzer_github to stefanzweifel/git_auto_commit_action--><path d="M178.84,1017.27 C191.12,1110.02 251.18,1527.41 347,1607 C479.37,1716.94 696.43,1696.89 814.57,1675.03 " fill="none" id="dlt_message_analyzer_github-&gt;stefanzweifel/git_auto_commit_action" style="stroke: #A80036; stroke-width: 1.0;"/><polygon fill="#A80036" points="819.77,1674.05,810.1902,1671.7637,814.8543,1674.9645,811.6535,1679.6287,819.77,1674.05" style="stroke: #A80036; stroke-width: 1.0;"/><text fill="#000000" font-family="sans-serif" font-size="13" lengthAdjust="spacingAndGlyphs" textLength="355" x="348" y="1603.0669">https://github.com/stefanzweifel/git-auto-commit-action</text><!--MD5=[729f8cac6a3b2b01842ecd0bfe3bf00b]
link dlt_message_analyzer_github to nlohmann/json--><path d="M181.55,1017.17 C196.74,1068.07 247.29,1212.44 347,1275 C498.83,1370.25 721.68,1356.95 831.44,1342.73 " fill="none" id="dlt_message_analyzer_github-&gt;nlohmann/json" style="stroke: #A80036; stroke-width: 1.0;"/><polygon fill="#A80036" points="836.58,1342.05,827.1403,1339.2407,831.6215,1342.693,828.1692,1347.1742,836.58,1342.05" style="stroke: #A80036; stroke-width: 1.0;"/><text fill="#000000" font-family="sans-serif" font-size="13" lengthAdjust="spacingAndGlyphs" textLength="215" x="418" y="1271.0669">https://github.com/nlohmann/json</text><!--MD5=[7565478800e60001de31c391ec61b630]
@startuml

left to right direction

package "DLT_Message_Analyzer" {
    package "DLT_Message_Analyzer_Source" {
        [dlt_message_analyzer_source]
    }
    
    package "DLT_Message_Analyzer_Github" {
        [dlt_message_analyzer_github]
    }
}

package "DLT_Message_Analyzer Dependencies" {
    package "DLT" {
        [qdlt]
    }

    package "Qt" {
        [qt5]
        [qt6]
    }

    package "QCustomPlot" {
        [qcustomplot]
    }

    package "DMA_Family" {
        [dma_plantuml]
        [dma_framework]
        [dma_common_deps]
    }

    package "Plantuml" {
        [plantuml]
    }

    package "Antlr" {
        [antlr4]
    }
    
    package "uuid" {
        [uuid_dev]
    }

    package "Pcre_parser" {
        [pcre_parser]
    }

    package "Variant_lite" {
        [variant_lite]
    }

    package "json"{
        [nlohmann/json]
    }

    package "Github_actions"{
        [actions/cache]
        [actions/checkout]
        [jurplel/install_qt_action]
        [stefanzweifel/git_auto_commit_action]
    }
    
    package "Build system"{
        [cmake]
    }
}

[dlt_message_analyzer_source] - -> [dma_common_deps] : https://github.com/svlad-90/DMA_CommonDeps
[dlt_message_analyzer_source] - -> [dma_framework] : https://github.com/svlad-90/DMA_Framework
[dlt_message_analyzer_source] - -> [dma_plantuml] : https://github.com/svlad-90/DMA_Plantuml

[dlt_message_analyzer_source] - -> [qt5] : https://github.com/qt/qt5
[dlt_message_analyzer_source] - -> [qt6] : https://github.com/qt/qtbase
[dlt_message_analyzer_source] - -> [qcustomplot] : https://gitlab.com/DerManu/QCustomPlot
[dlt_message_analyzer_source] - -> [qdlt] : https://github.com/GENIVI/dlt-viewer/tree/master/qdlt
[dlt_message_analyzer_source] - -> [plantuml] : https://github.com/plantuml/plantuml
[dlt_message_analyzer_source] - -> [antlr4] : https://github.com/antlr/antlr4
[dlt_message_analyzer_source] - -> [pcre_parser] : https://github.com/bkiers/pcre-parser
[dlt_message_analyzer_source] - -> [variant_lite] : https://github.com/martinmoene/variant-lite
[dlt_message_analyzer_source] - -> [cmake] : https://gitlab.kitware.com/cmake/cmake

[antlr4] - -> [uuid_dev]

[dlt_message_analyzer_github] - -> [actions/cache] : https://github.com/actions/cache
[dlt_message_analyzer_github] - -> [actions/checkout] : https://github.com/actions/checkout
[dlt_message_analyzer_github] - -> [jurplel/install_qt_action] : https://github.com/jurplel/install-qt-action
[dlt_message_analyzer_github] - -> [stefanzweifel/git_auto_commit_action] : https://github.com/stefanzweifel/git-auto-commit-action

[dlt_message_analyzer_github] - -> [nlohmann/json] : https://github.com/nlohmann/json

@enduml

PlantUML version 1.2020.02(Sun Mar 01 12:22:07 EET 2020)
(GPL source distribution)
Java Runtime: OpenJDK Runtime Environment
JVM: OpenJDK 64-Bit Server VM
Java Version: 11.0.24+8-post-Ubuntu-1ubuntu322.04
Operating System: Linux
Default Encoding: UTF-8
Language: en
Country: US
--></g></svg>