<?xml version="1.0" encoding="UTF-8" standalone="no"?><svg xmlns="http://www.w3.org/2000/svg" xmlns:xlink="http://www.w3.org/1999/xlink" contentScriptType="application/ecmascript" contentStyleType="text/css" height="1575px" preserveAspectRatio="none" style="width:1246px;height:1575px;" version="1.1" viewBox="0 0 1246 1575" width="1246px" zoomAndPan="magnify"><defs><filter height="300%" id="fcu8kgt8ko6xg" width="300%" x="-1" y="-1"><feGaussianBlur result="blurOut" stdDeviation="2.0"/><feColorMatrix in="blurOut" result="blurOut2" type="matrix" values="0 0 0 0 0 0 0 0 0 0 0 0 0 0 0 0 0 0 .4 0"/><feOffset dx="4.0" dy="4.0" in="blurOut2" result="blurOut3"/><feBlend in="SourceGraphic" in2="blurOut3" mode="normal"/></filter></defs><g><!--cluster DLT_Message_Analyzer--><polygon fill="#FFFFFF" filter="url(#fcu8kgt8ko6xg)" points="21,700,210,700,217,722.2969,331,722.2969,331,965,21,965,21,700" style="stroke: #000000; stroke-width: 1.5;"/><line style="stroke: #000000; stroke-width: 1.5;" x1="21" x2="217" y1="722.2969" y2="722.2969"/><text fill="#000000" font-family="sans-serif" font-size="14" font-weight="bold" lengthAdjust="spacingAndGlyphs" textLength="183" x="25" y="714.9951">DLT_Message_Analyzer</text><!--cluster DLT_Message_Analyzer_Source--><polygon fill="#FFFFFF" filter="url(#fcu8kgt8ko6xg)" points="45,743,297,743,304,765.2969,307,765.2969,307,830,45,830,45,743" style="stroke: #000000; stroke-width: 1.5;"/><line style="stroke: #000000; stroke-width: 1.5;" x1="45" x2="304" y1="765.2969" y2="765.2969"/><text fill="#000000" font-family="sans-serif" font-size="14" font-weight="bold" lengthAdjust="spacingAndGlyphs" textLength="246" x="49" y="757.9951">DLT_Message_Analyzer_Source</text><!--cluster DLT_Message_Analyzer_Github--><polygon fill="#FFFFFF" filter="url(#fcu8kgt8ko6xg)" points="47,854,295,854,302,876.2969,305,876.2969,305,941,47,941,47,854" style="stroke: #000000; stroke-width: 1.5;"/><line style="stroke: #000000; stroke-width: 1.5;" x1="47" x2="302" y1="876.2969" y2="876.2969"/><text fill="#000000" font-family="sans-serif" font-size="14" font-weight="bold" lengthAdjust="spacingAndGlyphs" textLength="242" x="51" y="868.9951">DLT_Message_Analyzer_Github</text><!--cluster DLT_Message_Analyzer Dependencies--><polygon fill="#FFFFFF" filter="url(#fcu8kgt8ko6xg)" points="720,24,1027,24,1034,46.2969,1224,46.2969,1224,1563,720,1563,720,24" style="stroke: #000000; stroke-width: 1.5;"/><line style="stroke: #000000; stroke-width: 1.5;" x1="720" x2="1034" y1="46.2969" y2="46.2969"/><text fill="#000000" font-family="sans-serif" font-size="14" font-weight="bold" lengthAdjust="spacingAndGlyphs" textLength="301" x="724" y="38.9951">DLT_Message_Analyzer Dependencies</text><!--cluster DLT--><polygon fill="#FFFFFF" filter="url(#fcu8kgt8ko6xg)" points="859.5,67,895.5,67,902.5,89.2969,937.5,89.2969,937.5,154,859.5,154,859.5,67" style="stroke: #000000; stroke-width: 1.5;"/><line style="stroke: #000000; stroke-width: 1.5;" x1="859.5" x2="902.5" y1="89.2969" y2="89.2969"/><text fill="#000000" font-family="sans-serif" font-size="14" font-weight="bold" lengthAdjust="spacingAndGlyphs" textLength="30" x="863.5" y="81.9951">DLT</text><!--cluster Qt--><polygon fill="#FFFFFF" filter="url(#fcu8kgt8ko6xg)" points="829,178,853,178,860,200.2969,968,200.2969,968,407,829,407,829,178" style="stroke: #000000; stroke-width: 1.5;"/><line style="stroke: #000000; stroke-width: 1.5;" x1="829" x2="860" y1="200.2969" y2="200.2969"/><text fill="#000000" font-family="sans-serif" font-size="14" font-weight="bold" lengthAdjust="spacingAndGlyphs" textLength="18" x="833" y="192.9951">Qt</text><!--cluster DMA_Family--><polygon fill="#FFFFFF" filter="url(#fcu8kgt8ko6xg)" points="802.5,431,899.5,431,906.5,453.2969,994.5,453.2969,994.5,660,802.5,660,802.5,431" style="stroke: #000000; stroke-width: 1.5;"/><line style="stroke: #000000; stroke-width: 1.5;" x1="802.5" x2="906.5" y1="453.2969" y2="453.2969"/><text fill="#000000" font-family="sans-serif" font-size="14" font-weight="bold" lengthAdjust="spacingAndGlyphs" textLength="91" x="806.5" y="445.9951">DMA_Family</text><!--cluster Plantuml--><polygon fill="#FFFFFF" filter="url(#fcu8kgt8ko6xg)" points="843,684,916,684,923,706.2969,954,706.2969,954,771,843,771,843,684" style="stroke: #000000; stroke-width: 1.5;"/><line style="stroke: #000000; stroke-width: 1.5;" x1="843" x2="923" y1="706.2969" y2="706.2969"/><text fill="#000000" font-family="sans-serif" font-size="14" font-weight="bold" lengthAdjust="spacingAndGlyphs" textLength="67" x="847" y="698.9951">Plantuml</text><!--cluster Antlr--><polygon fill="#FFFFFF" filter="url(#fcu8kgt8ko6xg)" points="853,795,897,795,904,817.2969,944,817.2969,944,882,853,882,853,795" style="stroke: #000000; stroke-width: 1.5;"/><line style="stroke: #000000; stroke-width: 1.5;" x1="853" x2="904" y1="817.2969" y2="817.2969"/><text fill="#000000" font-family="sans-serif" font-size="14" font-weight="bold" lengthAdjust="spacingAndGlyphs" textLength="38" x="857" y="809.9951">Antlr</text><!--cluster uuid--><polygon fill="#FFFFFF" filter="url(#fcu8kgt8ko6xg)" points="1086,795,1126,795,1133,817.2969,1200,817.2969,1200,882,1086,882,1086,795" style="stroke: #000000; stroke-width: 1.5;"/><line style="stroke: #000000; stroke-width: 1.5;" x1="1086" x2="1133" y1="817.2969" y2="817.2969"/><text fill="#000000" font-family="sans-serif" font-size="14" font-weight="bold" lengthAdjust="spacingAndGlyphs" textLength="34" x="1090" y="809.9951">uuid</text><!--cluster Pcre_parser--><polygon fill="#FFFFFF" filter="url(#fcu8kgt8ko6xg)" points="831.5,906,932.5,906,939.5,928.2969,965.5,928.2969,965.5,993,831.5,993,831.5,906" style="stroke: #000000; stroke-width: 1.5;"/><line style="stroke: #000000; stroke-width: 1.5;" x1="831.5" x2="939.5" y1="928.2969" y2="928.2969"/><text fill="#000000" font-family="sans-serif" font-size="14" font-weight="bold" lengthAdjust="spacingAndGlyphs" textLength="95" x="835.5" y="920.9951">Pcre_parser</text><!--cluster Variant_lite--><polygon fill="#FFFFFF" filter="url(#fcu8kgt8ko6xg)" points="836.5,1017,929.5,1017,936.5,1039.2969,960.5,1039.2969,960.5,1104,836.5,1104,836.5,1017" style="stroke: #000000; stroke-width: 1.5;"/><line style="stroke: #000000; stroke-width: 1.5;" x1="836.5" x2="936.5" y1="1039.2969" y2="1039.2969"/><text fill="#000000" font-family="sans-serif" font-size="14" font-weight="bold" lengthAdjust="spacingAndGlyphs" textLength="87" x="840.5" y="1031.9951">Variant_lite</text><!--cluster Github_actions--><polygon fill="#FFFFFF" filter="url(#fcu8kgt8ko6xg)" points="744,1239,866,1239,873,1261.2969,1053,1261.2969,1053,1539,744,1539,744,1239" style="stroke: #000000; stroke-width: 1.5;"/><line style="stroke: #000000; stroke-width: 1.5;" x1="744" x2="873" y1="1261.2969" y2="1261.2969"/><text fill="#000000" font-family="sans-serif" font-size="14" font-weight="bold" lengthAdjust="spacingAndGlyphs" textLength="116" x="748" y="1253.9951">Github_actions</text><!--cluster Build system--><polygon fill="#FFFFFF" filter="url(#fcu8kgt8ko6xg)" points="840.5,1128,946.5,1128,953.5,1150.2969,956.5,1150.2969,956.5,1215,840.5,1215,840.5,1128" style="stroke: #000000; stroke-width: 1.5;"/><line style="stroke: #000000; stroke-width: 1.5;" x1="840.5" x2="953.5" y1="1150.2969" y2="1150.2969"/><text fill="#000000" font-family="sans-serif" font-size="14" font-weight="bold" lengthAdjust="spacingAndGlyphs" textLength="100" x="844.5" y="1142.9951">Build system</text><!--entity dlt_message_analyzer_source--><rect fill="#FEFECE" filter="url(#fcu8kgt8ko6xg)" height="36.2969" style="stroke: #A80036; stroke-width: 1.5;" width="227" x="62" y="778"/><rect fill="#FEFECE" height="5" style="stroke: #A80036; stroke-width: 1.5;" width="10" x="57" y="783"/><rect fill="#FEFECE" height="5" style="stroke: #A80036; stroke-width: 1.5;" width="10" x="57" y="804.2969"/><text fill="#000000" font-family="sans-serif" font-size="14" lengthAdjust="spacingAndGlyphs" textLength="207" x="72" y="800.9951">dlt_message_analyzer_source</text><!--entity dlt_message_analyzer_github--><rect fill="#FEFECE" filter="url(#fcu8kgt8ko6xg)" height="36.2969" style="stroke: #A80036; stroke-width: 1.5;" width="223" x="64" y="889"/><rect fill="#FEFECE" height="5" style="stroke: #A80036; stroke-width: 1.5;" width="10" x="59" y="894"/><rect fill="#FEFECE" height="5" style="stroke: #A80036; stroke-width: 1.5;" width="10" x="59" y="915.2969"/><text fill="#000000" font-family="sans-serif" font-size="14" lengthAdjust="spacingAndGlyphs" textLength="203" x="74" y="911.9951">dlt_message_analyzer_github</text><!--entity qdlt--><rect fill="#FEFECE" filter="url(#fcu8kgt8ko6xg)" height="36.2969" style="stroke: #A80036; stroke-width: 1.5;" width="46" x="875.5" y="102"/><rect fill="#FEFECE" height="5" style="stroke: #A80036; stroke-width: 1.5;" width="10" x="870.5" y="107"/><rect fill="#FEFECE" height="5" style="stroke: #A80036; stroke-width: 1.5;" width="10" x="870.5" y="128.2969"/><text fill="#000000" font-family="sans-serif" font-size="14" lengthAdjust="spacingAndGlyphs" textLength="26" x="885.5" y="124.9951">qdlt</text><!--entity qt5--><rect fill="#FEFECE" filter="url(#fcu8kgt8ko6xg)" height="36.2969" style="stroke: #A80036; stroke-width: 1.5;" width="43" x="877" y="213"/><rect fill="#FEFECE" height="5" style="stroke: #A80036; stroke-width: 1.5;" width="10" x="872" y="218"/><rect fill="#FEFECE" height="5" style="stroke: #A80036; stroke-width: 1.5;" width="10" x="872" y="239.2969"/><text fill="#000000" font-family="sans-serif" font-size="14" lengthAdjust="spacingAndGlyphs" textLength="23" x="887" y="235.9951">qt5</text><!--entity qt6--><rect fill="#FEFECE" filter="url(#fcu8kgt8ko6xg)" height="36.2969" style="stroke: #A80036; stroke-width: 1.5;" width="43" x="877" y="284"/><rect fill="#FEFECE" height="5" style="stroke: #A80036; stroke-width: 1.5;" width="10" x="872" y="289"/><rect fill="#FEFECE" height="5" style="stroke: #A80036; stroke-width: 1.5;" width="10" x="872" y="310.2969"/><text fill="#000000" font-family="sans-serif" font-size="14" lengthAdjust="spacingAndGlyphs" textLength="23" x="887" y="306.9951">qt6</text><!--entity qcustomplot--><rect fill="#FEFECE" filter="url(#fcu8kgt8ko6xg)" height="36.2969" style="stroke: #A80036; stroke-width: 1.5;" width="107" x="845" y="355"/><rect fill="#FEFECE" height="5" style="stroke: #A80036; stroke-width: 1.5;" width="10" x="840" y="360"/><rect fill="#FEFECE" height="5" style="stroke: #A80036; stroke-width: 1.5;" width="10" x="840" y="381.2969"/><text fill="#000000" font-family="sans-serif" font-size="14" lengthAdjust="spacingAndGlyphs" textLength="87" x="855" y="377.9951">qcustomplot</text><!--entity dma_plantuml--><rect fill="#FEFECE" filter="url(#fcu8kgt8ko6xg)" height="36.2969" style="stroke: #A80036; stroke-width: 1.5;" width="116" x="840.5" y="466"/><rect fill="#FEFECE" height="5" style="stroke: #A80036; stroke-width: 1.5;" width="10" x="835.5" y="471"/><rect fill="#FEFECE" height="5" style="stroke: #A80036; stroke-width: 1.5;" width="10" x="835.5" y="492.2969"/><text fill="#000000" font-family="sans-serif" font-size="14" lengthAdjust="spacingAndGlyphs" textLength="96" x="850.5" y="488.9951">dma_plantuml</text><!--entity dma_framework--><rect fill="#FEFECE" filter="url(#fcu8kgt8ko6xg)" height="36.2969" style="stroke: #A80036; stroke-width: 1.5;" width="129" x="834" y="537"/><rect fill="#FEFECE" height="5" style="stroke: #A80036; stroke-width: 1.5;" width="10" x="829" y="542"/><rect fill="#FEFECE" height="5" style="stroke: #A80036; stroke-width: 1.5;" width="10" x="829" y="563.2969"/><text fill="#000000" font-family="sans-serif" font-size="14" lengthAdjust="spacingAndGlyphs" textLength="109" x="844" y="559.9951">dma_framework</text><!--entity dma_common_deps--><rect fill="#FEFECE" filter="url(#fcu8kgt8ko6xg)" height="36.2969" style="stroke: #A80036; stroke-width: 1.5;" width="160" x="818.5" y="608"/><rect fill="#FEFECE" height="5" style="stroke: #A80036; stroke-width: 1.5;" width="10" x="813.5" y="613"/><rect fill="#FEFECE" height="5" style="stroke: #A80036; stroke-width: 1.5;" width="10" x="813.5" y="634.2969"/><text fill="#000000" font-family="sans-serif" font-size="14" lengthAdjust="spacingAndGlyphs" textLength="140" x="828.5" y="630.9951">dma_common_deps</text><!--entity plantuml--><rect fill="#FEFECE" filter="url(#fcu8kgt8ko6xg)" height="36.2969" style="stroke: #A80036; stroke-width: 1.5;" width="79" x="859" y="719"/><rect fill="#FEFECE" height="5" style="stroke: #A80036; stroke-width: 1.5;" width="10" x="854" y="724"/><rect fill="#FEFECE" height="5" style="stroke: #A80036; stroke-width: 1.5;" width="10" x="854" y="745.2969"/><text fill="#000000" font-family="sans-serif" font-size="14" lengthAdjust="spacingAndGlyphs" textLength="59" x="869" y="741.9951">plantuml</text><!--entity antlr4--><rect fill="#FEFECE" filter="url(#fcu8kgt8ko6xg)" height="36.2969" style="stroke: #A80036; stroke-width: 1.5;" width="59" x="869" y="830"/><rect fill="#FEFECE" height="5" style="stroke: #A80036; stroke-width: 1.5;" width="10" x="864" y="835"/><rect fill="#FEFECE" height="5" style="stroke: #A80036; stroke-width: 1.5;" width="10" x="864" y="856.2969"/><text fill="#000000" font-family="sans-serif" font-size="14" lengthAdjust="spacingAndGlyphs" textLength="39" x="879" y="852.9951">antlr4</text><!--entity uuid_dev--><rect fill="#FEFECE" filter="url(#fcu8kgt8ko6xg)" height="36.2969" style="stroke: #A80036; stroke-width: 1.5;" width="82" x="1102" y="830"/><rect fill="#FEFECE" height="5" style="stroke: #A80036; stroke-width: 1.5;" width="10" x="1097" y="835"/><rect fill="#FEFECE" height="5" style="stroke: #A80036; stroke-width: 1.5;" width="10" x="1097" y="856.2969"/><text fill="#000000" font-family="sans-serif" font-size="14" lengthAdjust="spacingAndGlyphs" textLength="62" x="1112" y="852.9951">uuid_dev</text><!--entity pcre_parser--><rect fill="#FEFECE" filter="url(#fcu8kgt8ko6xg)" height="36.2969" style="stroke: #A80036; stroke-width: 1.5;" width="102" x="847.5" y="941"/><rect fill="#FEFECE" height="5" style="stroke: #A80036; stroke-width: 1.5;" width="10" x="842.5" y="946"/><rect fill="#FEFECE" height="5" style="stroke: #A80036; stroke-width: 1.5;" width="10" x="842.5" y="967.2969"/><text fill="#000000" font-family="sans-serif" font-size="14" lengthAdjust="spacingAndGlyphs" textLength="82" x="857.5" y="963.9951">pcre_parser</text><!--entity variant_lite--><rect fill="#FEFECE" filter="url(#fcu8kgt8ko6xg)" height="36.2969" style="stroke: #A80036; stroke-width: 1.5;" width="92" x="852.5" y="1052"/><rect fill="#FEFECE" height="5" style="stroke: #A80036; stroke-width: 1.5;" width="10" x="847.5" y="1057"/><rect fill="#FEFECE" height="5" style="stroke: #A80036; stroke-width: 1.5;" width="10" x="847.5" y="1078.2969"/><text fill="#000000" font-family="sans-serif" font-size="14" lengthAdjust="spacingAndGlyphs" textLength="72" x="862.5" y="1074.9951">variant_lite</text><!--entity actions/cache--><rect fill="#FEFECE" filter="url(#fcu8kgt8ko6xg)" height="36.2969" style="stroke: #A80036; stroke-width: 1.5;" width="117" x="840" y="1274"/><rect fill="#FEFECE" height="5" style="stroke: #A80036; stroke-width: 1.5;" width="10" x="835" y="1279"/><rect fill="#FEFECE" height="5" style="stroke: #A80036; stroke-width: 1.5;" width="10" x="835" y="1300.2969"/><text fill="#000000" font-family="sans-serif" font-size="14" lengthAdjust="spacingAndGlyphs" textLength="97" x="850" y="1296.9951">actions/cache</text><!--entity actions/checkout--><rect fill="#FEFECE" filter="url(#fcu8kgt8ko6xg)" height="36.2969" style="stroke: #A80036; stroke-width: 1.5;" width="140" x="828.5" y="1345"/><rect fill="#FEFECE" height="5" style="stroke: #A80036; stroke-width: 1.5;" width="10" x="823.5" y="1350"/><rect fill="#FEFECE" height="5" style="stroke: #A80036; stroke-width: 1.5;" width="10" x="823.5" y="1371.2969"/><text fill="#000000" font-family="sans-serif" font-size="14" lengthAdjust="spacingAndGlyphs" textLength="120" x="838.5" y="1367.9951">actions/checkout</text><!--entity jurplel/install_qt_action--><rect fill="#FEFECE" filter="url(#fcu8kgt8ko6xg)" height="36.2969" style="stroke: #A80036; stroke-width: 1.5;" width="175" x="811" y="1416"/><rect fill="#FEFECE" height="5" style="stroke: #A80036; stroke-width: 1.5;" width="10" x="806" y="1421"/><rect fill="#FEFECE" height="5" style="stroke: #A80036; stroke-width: 1.5;" width="10" x="806" y="1442.2969"/><text fill="#000000" font-family="sans-serif" font-size="14" lengthAdjust="spacingAndGlyphs" textLength="155" x="821" y="1438.9951">jurplel/install_qt_action</text><!--entity stefanzweifel/git_auto_commit_action--><rect fill="#FEFECE" filter="url(#fcu8kgt8ko6xg)" height="36.2969" style="stroke: #A80036; stroke-width: 1.5;" width="277" x="760" y="1487"/><rect fill="#FEFECE" height="5" style="stroke: #A80036; stroke-width: 1.5;" width="10" x="755" y="1492"/><rect fill="#FEFECE" height="5" style="stroke: #A80036; stroke-width: 1.5;" width="10" x="755" y="1513.2969"/><text fill="#000000" font-family="sans-serif" font-size="14" lengthAdjust="spacingAndGlyphs" textLength="257" x="770" y="1509.9951">stefanzweifel/git_auto_commit_action</text><!--entity cmake--><rect fill="#FEFECE" filter="url(#fcu8kgt8ko6xg)" height="36.2969" style="stroke: #A80036; stroke-width: 1.5;" width="66" x="865.5" y="1163"/><rect fill="#FEFECE" height="5" style="stroke: #A80036; stroke-width: 1.5;" width="10" x="860.5" y="1168"/><rect fill="#FEFECE" height="5" style="stroke: #A80036; stroke-width: 1.5;" width="10" x="860.5" y="1189.2969"/><text fill="#000000" font-family="sans-serif" font-size="14" lengthAdjust="spacingAndGlyphs" textLength="46" x="875.5" y="1185.9951">cmake</text><!--link dlt_message_analyzer_source to dma_common_deps--><path d="M216.06,777.97 C250.15,763.05 300.99,742.21 347,729 C509.14,682.43 704.35,651.67 813.34,636.69 " fill="none" id="dlt_message_analyzer_source-dma_common_deps" style="stroke: #A80036; stroke-width: 1.0;"/><polygon fill="#A80036" points="818.47,635.99,809.0146,633.2342,813.5152,636.6611,810.0883,641.1618,818.47,635.99" style="stroke: #A80036; stroke-width: 1.0;"/><text fill="#000000" font-family="sans-serif" font-size="13" lengthAdjust="spacingAndGlyphs" textLength="308" x="371.5" y="650.0669">https://github.com/svlad-90/DMA_CommonDeps</text><!--link dlt_message_analyzer_source to dma_framework--><path d="M188.75,777.84 C213.79,742.39 274.59,664.37 347,629 C430.54,588.2 700.56,566.88 828.74,558.84 " fill="none" id="dlt_message_analyzer_source-dma_framework" style="stroke: #A80036; stroke-width: 1.0;"/><polygon fill="#A80036" points="833.99,558.51,824.766,555.0578,828.999,558.8103,825.2465,563.0433,833.99,558.51" style="stroke: #A80036; stroke-width: 1.0;"/><text fill="#000000" font-family="sans-serif" font-size="13" lengthAdjust="spacingAndGlyphs" textLength="286" x="382.5" y="566.0669">https://github.com/svlad-90/DMA_Framework</text><!--link dlt_message_analyzer_source to dma_plantuml--><path d="M182.71,777.77 C200.03,730.03 253.82,601.14 347,545 C502.26,451.46 727.36,462.6 835.26,474.98 " fill="none" id="dlt_message_analyzer_source-dma_plantuml" style="stroke: #A80036; stroke-width: 1.0;"/><polygon fill="#A80036" points="840.31,475.57,831.8398,470.5444,835.3443,474.985,830.9038,478.4895,840.31,475.57" style="stroke: #A80036; stroke-width: 1.0;"/><text fill="#000000" font-family="sans-serif" font-size="13" lengthAdjust="spacingAndGlyphs" textLength="272" x="389.5" y="463.0669">https://github.com/svlad-90/DMA_Plantuml</text><!--link dlt_message_analyzer_source to qt5--><path d="M176.04,778 C175.18,702.6 182.86,410.1 347,280 C429.38,214.71 774.01,225.29 871.63,229.69 " fill="none" id="dlt_message_analyzer_source-qt5" style="stroke: #A80036; stroke-width: 1.0;"/><polygon fill="#A80036" points="876.9,229.93,868.0926,225.522,871.9052,229.701,867.7263,233.5136,876.9,229.93" style="stroke: #A80036; stroke-width: 1.0;"/><text fill="#000000" font-family="sans-serif" font-size="13" lengthAdjust="spacingAndGlyphs" textLength="159" x="446" y="223.0669">https://github.com/qt/qt5</text><!--link dlt_message_analyzer_source to qt6--><path d="M177.4,777.8 C181.81,710.09 207.12,471.11 347,364 C430.65,299.94 774.38,300.12 871.71,301.5 " fill="none" id="dlt_message_analyzer_source-qt6" style="stroke: #A80036; stroke-width: 1.0;"/><polygon fill="#A80036" points="876.96,301.58,868.0181,297.4518,871.9605,301.5086,867.9038,305.451,876.96,301.58" style="stroke: #A80036; stroke-width: 1.0;"/><text fill="#000000" font-family="sans-serif" font-size="13" lengthAdjust="spacingAndGlyphs" textLength="182" x="434.5" y="300.0669">https://github.com/qt/qtbase</text><!--link dlt_message_analyzer_source to qcustomplot--><path d="M179.12,777.84 C188.78,718.22 228.19,527.41 347,442 C386.52,413.58 706.89,387.02 839.92,377.1 " fill="none" id="dlt_message_analyzer_source-qcustomplot" style="stroke: #A80036; stroke-width: 1.0;"/><polygon fill="#A80036" points="844.96,376.73,835.6877,373.4097,839.9738,377.1015,836.282,381.3876,844.96,376.73" style="stroke: #A80036; stroke-width: 1.0;"/><text fill="#000000" font-family="sans-serif" font-size="13" lengthAdjust="spacingAndGlyphs" textLength="262" x="394.5" y="385.0669">https://gitlab.com/DerManu/QCustomPlot</text><!--link dlt_message_analyzer_source to qdlt--><path d="M179.04,777.95 C192.19,687.23 255.42,282.26 347,202 C502.51,65.73 782.68,99.98 870.45,114.89 " fill="none" id="dlt_message_analyzer_source-qdlt" style="stroke: #A80036; stroke-width: 1.0;"/><polygon fill="#A80036" points="875.47,115.76,867.2885,110.2771,870.5439,114.9033,865.9177,118.1588,875.47,115.76" style="stroke: #A80036; stroke-width: 1.0;"/><text fill="#000000" font-family="sans-serif" font-size="13" lengthAdjust="spacingAndGlyphs" textLength="337" x="357" y="96.0669">https://github.com/GENIVI/dlt-viewer/tree/master/qdlt</text><!--link dlt_message_analyzer_source to plantuml--><path d="M289.16,786.78 C451.34,773.51 743.24,749.62 853.62,740.59 " fill="none" id="dlt_message_analyzer_source-plantuml" style="stroke: #A80036; stroke-width: 1.0;"/><polygon fill="#A80036" points="858.74,740.17,849.4389,736.9312,853.7573,740.5852,850.1033,744.9036,858.74,740.17" style="stroke: #A80036; stroke-width: 1.0;"/><text fill="#000000" font-family="sans-serif" font-size="13" lengthAdjust="spacingAndGlyphs" textLength="237" x="407" y="750.0669">https://github.com/plantuml/plantuml</text><!--link dlt_message_analyzer_source to antlr4--><path d="M289.24,808.6 C308.5,810.55 328.31,812.44 347,814 C542.34,830.34 777.29,842.29 863.59,846.42 " fill="none" id="dlt_message_analyzer_source-antlr4" style="stroke: #A80036; stroke-width: 1.0;"/><polygon fill="#A80036" points="868.81,846.67,860.0021,842.2632,863.8152,846.4417,859.6367,850.2548,868.81,846.67" style="stroke: #A80036; stroke-width: 1.0;"/><text fill="#000000" font-family="sans-serif" font-size="13" lengthAdjust="spacingAndGlyphs" textLength="191" x="430" y="810.0669">https://github.com/antlr/antlr4</text><!--link dlt_message_analyzer_source to pcre_parser--><path d="M215.68,814.02 C249.75,829.05 300.76,850.03 347,863 C524.57,912.82 741.98,941.59 842.14,953.09 " fill="none" id="dlt_message_analyzer_source-pcre_parser" style="stroke: #A80036; stroke-width: 1.0;"/><polygon fill="#A80036" points="847.4,953.7,838.9156,948.6984,842.4327,953.129,838.0021,956.6461,847.4,953.7" style="stroke: #A80036; stroke-width: 1.0;"/><text fill="#000000" font-family="sans-serif" font-size="13" lengthAdjust="spacingAndGlyphs" textLength="237" x="407" y="859.0669">https://github.com/bkiers/pcre-parser</text><!--link dlt_message_analyzer_source to variant_lite--><path d="M252.63,814.02 C284.46,825.53 318.7,843.96 339,873 C350.12,888.91 334.01,945.57 347,960 C476.78,1104.25 737.65,1090.66 847.22,1077.49 " fill="none" id="dlt_message_analyzer_source-variant_lite" style="stroke: #A80036; stroke-width: 1.0;"/><polygon fill="#A80036" points="852.32,1076.87,842.9046,1073.9804,847.3562,1077.4708,843.8659,1081.9225,852.32,1076.87" style="stroke: #A80036; stroke-width: 1.0;"/><text fill="#000000" font-family="sans-serif" font-size="13" lengthAdjust="spacingAndGlyphs" textLength="280" x="385.5" y="956.0669">https://github.com/martinmoene/variant-lite</text><!--link dlt_message_analyzer_source to cmake--><path d="M255.11,814.09 C286.61,825.55 319.89,843.9 339,873 C353.46,895.02 329.27,1090.51 347,1110 C481.71,1258.09 760.31,1212.58 860.55,1190.17 " fill="none" id="dlt_message_analyzer_source-cmake" style="stroke: #A80036; stroke-width: 1.0;"/><polygon fill="#A80036" points="865.47,1189.05,855.81,1187.1306,860.5928,1190.1513,857.5721,1194.9341,865.47,1189.05" style="stroke: #A80036; stroke-width: 1.0;"/><text fill="#000000" font-family="sans-serif" font-size="13" lengthAdjust="spacingAndGlyphs" textLength="255" x="398" y="1106.0669">https://gitlab.kitware.com/cmake/cmake</text><!--link antlr4 to uuid_dev--><path d="M928.27,848 C969.79,848 1046.93,848 1096.3,848 " fill="none" id="antlr4-uuid_dev" style="stroke: #A80036; stroke-width: 1.0;"/><polygon fill="#A80036" points="1101.58,848,1092.58,844,1096.58,848,1092.58,852,1101.58,848" style="stroke: #A80036; stroke-width: 1.0;"/><!--link dlt_message_analyzer_github to actions/cache--><path d="M179.55,925.05 C190.31,982.55 232.23,1162.17 347,1240 C424.98,1292.88 706.99,1295.24 834.33,1293.46 " fill="none" id="dlt_message_analyzer_github-actions/cache" style="stroke: #A80036; stroke-width: 1.0;"/><polygon fill="#A80036" points="839.54,1293.39,830.4838,1289.519,834.5405,1293.4614,830.5981,1297.5182,839.54,1293.39" style="stroke: #A80036; stroke-width: 1.0;"/><text fill="#000000" font-family="sans-serif" font-size="13" lengthAdjust="spacingAndGlyphs" textLength="209" x="421" y="1236.0669">https://github.com/actions/cache</text><!--link dlt_message_analyzer_github to actions/checkout--><path d="M177.69,925.38 C183.08,991.57 211.19,1219.07 347,1318 C421.04,1371.93 691.15,1370.43 823.46,1366.2 " fill="none" id="dlt_message_analyzer_github-actions/checkout" style="stroke: #A80036; stroke-width: 1.0;"/><polygon fill="#A80036" points="828.49,1366.03,819.3685,1362.3155,823.4925,1366.1875,819.6205,1370.3115,828.49,1366.03" style="stroke: #A80036; stroke-width: 1.0;"/><text fill="#000000" font-family="sans-serif" font-size="13" lengthAdjust="spacingAndGlyphs" textLength="229" x="411" y="1314.0669">https://github.com/actions/checkout</text><!--link dlt_message_analyzer_github to jurplel/install_qt_action--><path d="M176.37,925.07 C176.95,998.16 189.79,1273.67 347,1394 C382.49,1421.16 658.55,1429.98 805.74,1432.76 " fill="none" id="dlt_message_analyzer_github-jurplel/install_qt_action" style="stroke: #A80036; stroke-width: 1.0;"/><polygon fill="#A80036" points="810.92,1432.86,802.0018,1428.6808,805.921,1432.76,801.8418,1436.6792,810.92,1432.86" style="stroke: #A80036; stroke-width: 1.0;"/><text fill="#000000" font-family="sans-serif" font-size="13" lengthAdjust="spacingAndGlyphs" textLength="262" x="394.5" y="1390.0669">https://github.com/jurplel/install-qt-action</text><!--link dlt_message_analyzer_github to stefanzweifel/git_auto_commit_action--><path d="M179.41,925.22 C193.7,1012.35 259.35,1385.23 347,1456 C479.96,1563.35 694.37,1545.05 812.54,1523.97 " fill="none" id="dlt_message_analyzer_github-stefanzweifel/git_auto_commit_action" style="stroke: #A80036; stroke-width: 1.0;"/><polygon fill="#A80036" points="817.75,1523.03,808.1767,1520.7167,812.8318,1523.9307,809.6178,1528.5859,817.75,1523.03" style="stroke: #A80036; stroke-width: 1.0;"/><text fill="#000000" font-family="sans-serif" font-size="13" lengthAdjust="spacingAndGlyphs" textLength="355" x="348" y="1452.0669">https://github.com/stefanzweifel/git-auto-commit-action</text><!--
@startuml

left to right direction

package "DLT_Message_Analyzer" {
    package "DLT_Message_Analyzer_Source" {
        [dlt_message_analyzer_source]
    }
    
    package "DLT_Message_Analyzer_Github" {
        [dlt_message_analyzer_github]
    }
}

package "DLT_Message_Analyzer Dependencies" {
    package "DLT" {
        [qdlt]
    }

    package "Qt" {
        [qt5]
        [qt6]
        [qcustomplot]
    }

    package "DMA_Family" {
        [dma_plantuml]
        [dma_framework]
        [dma_common_deps]
    }

    package "Plantuml" {
        [plantuml]
    }

    package "Antlr" {
        [antlr4]
    }
    
    package "uuid" {
        [uuid_dev]
    }

    package "Pcre_parser" {
        [pcre_parser]
    }

    package "Variant_lite" {
        [variant_lite]
    }

    package "Github_actions"{
        [actions/cache]
        [actions/checkout]
        [jurplel/install_qt_action]
        [stefanzweifel/git_auto_commit_action]
    }
    
    package "Build system"{
        [cmake]
    }
}

[dlt_message_analyzer_source] - -> [dma_common_deps] : https://github.com/svlad-90/DMA_CommonDeps
[dlt_message_analyzer_source] - -> [dma_framework] : https://github.com/svlad-90/DMA_Framework
[dlt_message_analyzer_source] - -> [dma_plantuml] : https://github.com/svlad-90/DMA_Plantuml

[dlt_message_analyzer_source] - -> [qt5] : https://github.com/qt/qt5
[dlt_message_analyzer_source] - -> [qt6] : https://github.com/qt/qtbase
[dlt_message_analyzer_source] - -> [qcustomplot] : https://gitlab.com/DerManu/QCustomPlot
[dlt_message_analyzer_source] - -> [qdlt] : https://github.com/GENIVI/dlt-viewer/tree/master/qdlt
[dlt_message_analyzer_source] - -> [plantuml] : https://github.com/plantuml/plantuml
[dlt_message_analyzer_source] - -> [antlr4] : https://github.com/antlr/antlr4
[dlt_message_analyzer_source] - -> [pcre_parser] : https://github.com/bkiers/pcre-parser
[dlt_message_analyzer_source] - -> [variant_lite] : https://github.com/martinmoene/variant-lite
[dlt_message_analyzer_source] - -> [cmake] : https://gitlab.kitware.com/cmake/cmake

[antlr4] - -> [uuid_dev]

[dlt_message_analyzer_github] - -> [actions/cache] : https://github.com/actions/cache
[dlt_message_analyzer_github] - -> [actions/checkout] : https://github.com/actions/checkout
[dlt_message_analyzer_github] - -> [jurplel/install_qt_action] : https://github.com/jurplel/install-qt-action
[dlt_message_analyzer_github] - -> [stefanzweifel/git_auto_commit_action] : https://github.com/stefanzweifel/git-auto-commit-action

@enduml

PlantUML version 1.2018.13(Mon Nov 26 19:11:51 EET 2018)
(GPL source distribution)
Java Runtime: OpenJDK Runtime Environment
JVM: OpenJDK 64-Bit Server VM
Java Version: 11.0.20.1+1-post-Ubuntu-0ubuntu120.04
Operating System: Linux
OS Version: 5.15.0-88-generic
Default Encoding: UTF-8
Language: en
Country: US
--></g></svg>