<?xml version="1.0" encoding="UTF-8" standalone="no"?><svg xmlns="http://www.w3.org/2000/svg" xmlns:xlink="http://www.w3.org/1999/xlink" contentStyleType="text/css" height="1631px" preserveAspectRatio="none" style="width:1273px;height:1631px;background:#FFFFFF;" version="1.1" viewBox="0 0 1273 1631" width="1273px" zoomAndPan="magnify"><defs/><g><!--MD5=[660b5dafce0b1b597500e209c2865732]
cluster DLT_Message_Analyzer--><g id="cluster_DLT_Message_Analyzer"><path d="M8.5,733 L192.5,733 A3.75,3.75 0 0 1 195,735.5 L202,755.2969 L330.5,755.2969 A2.5,2.5 0 0 1 333,757.7969 L333,1015.5 A2.5,2.5 0 0 1 330.5,1018 L8.5,1018 A2.5,2.5 0 0 1 6,1015.5 L6,735.5 A2.5,2.5 0 0 1 8.5,733 " fill="none" style="stroke:#000000;stroke-width:1.5;"/><line style="stroke:#000000;stroke-width:1.5;" x1="6" x2="202" y1="755.2969" y2="755.2969"/><text fill="#000000" font-family="sans-serif" font-size="14" font-weight="bold" lengthAdjust="spacing" textLength="183" x="10" y="747.9951">DLT_Message_Analyzer</text></g><!--MD5=[00715918961d283e965802c8efe04f09]
cluster DLT_Message_Analyzer_Source--><g id="cluster_DLT_Message_Analyzer_Source"><path d="M32.5,776 L279.5,776 A3.75,3.75 0 0 1 282,778.5 L289,798.2969 L306.5,798.2969 A2.5,2.5 0 0 1 309,800.7969 L309,870.5 A2.5,2.5 0 0 1 306.5,873 L32.5,873 A2.5,2.5 0 0 1 30,870.5 L30,778.5 A2.5,2.5 0 0 1 32.5,776 " fill="none" style="stroke:#000000;stroke-width:1.5;"/><line style="stroke:#000000;stroke-width:1.5;" x1="30" x2="289" y1="798.2969" y2="798.2969"/><text fill="#000000" font-family="sans-serif" font-size="14" font-weight="bold" lengthAdjust="spacing" textLength="246" x="34" y="790.9951">DLT_Message_Analyzer_Source</text></g><!--MD5=[be7819e071f2084d5b5a0faf64985bb9]
cluster DLT_Message_Analyzer_Github--><g id="cluster_DLT_Message_Analyzer_Github"><path d="M34.5,897 L277.5,897 A3.75,3.75 0 0 1 280,899.5 L287,919.2969 L304.5,919.2969 A2.5,2.5 0 0 1 307,921.7969 L307,991.5 A2.5,2.5 0 0 1 304.5,994 L34.5,994 A2.5,2.5 0 0 1 32,991.5 L32,899.5 A2.5,2.5 0 0 1 34.5,897 " fill="none" style="stroke:#000000;stroke-width:1.5;"/><line style="stroke:#000000;stroke-width:1.5;" x1="32" x2="287" y1="919.2969" y2="919.2969"/><text fill="#000000" font-family="sans-serif" font-size="14" font-weight="bold" lengthAdjust="spacing" textLength="242" x="36" y="911.9951">DLT_Message_Analyzer_Github</text></g><!--MD5=[87210ba321c8d2ff5b2b4eba58b62580]
cluster DLT_Message_Analyzer Dependencies--><g id="cluster_DLT_Message_Analyzer Dependencies"><path d="M724.5,6 L1026.5,6 A3.75,3.75 0 0 1 1029,8.5 L1036,28.2969 L1263.5,28.2969 A2.5,2.5 0 0 1 1266,30.7969 L1266,1621.5 A2.5,2.5 0 0 1 1263.5,1624 L724.5,1624 A2.5,2.5 0 0 1 722,1621.5 L722,8.5 A2.5,2.5 0 0 1 724.5,6 " fill="none" style="stroke:#000000;stroke-width:1.5;"/><line style="stroke:#000000;stroke-width:1.5;" x1="722" x2="1036" y1="28.2969" y2="28.2969"/><text fill="#000000" font-family="sans-serif" font-size="14" font-weight="bold" lengthAdjust="spacing" textLength="301" x="726" y="20.9951">DLT_Message_Analyzer Dependencies</text></g><!--MD5=[753543caffeb124bdf1cceb6d968d692]
cluster DLT--><g id="cluster_DLT"><path d="M864,49 L895,49 A3.75,3.75 0 0 1 897.5,51.5 L904.5,71.2969 L957,71.2969 A2.5,2.5 0 0 1 959.5,73.7969 L959.5,143.5 A2.5,2.5 0 0 1 957,146 L864,146 A2.5,2.5 0 0 1 861.5,143.5 L861.5,51.5 A2.5,2.5 0 0 1 864,49 " fill="none" style="stroke:#000000;stroke-width:1.5;"/><line style="stroke:#000000;stroke-width:1.5;" x1="861.5" x2="904.5" y1="71.2969" y2="71.2969"/><text fill="#000000" font-family="sans-serif" font-size="14" font-weight="bold" lengthAdjust="spacing" textLength="30" x="865.5" y="63.9951">DLT</text></g><!--MD5=[0aca3eaa01c17ff0039911bbeeabf854]
cluster Qt--><g id="cluster_Qt"><path d="M865.5,170 L884.5,170 A3.75,3.75 0 0 1 887,172.5 L894,192.2969 L955.5,192.2969 A2.5,2.5 0 0 1 958,194.7969 L958,345.5 A2.5,2.5 0 0 1 955.5,348 L865.5,348 A2.5,2.5 0 0 1 863,345.5 L863,172.5 A2.5,2.5 0 0 1 865.5,170 " fill="none" style="stroke:#000000;stroke-width:1.5;"/><line style="stroke:#000000;stroke-width:1.5;" x1="863" x2="894" y1="192.2969" y2="192.2969"/><text fill="#000000" font-family="sans-serif" font-size="14" font-weight="bold" lengthAdjust="spacing" textLength="18" x="867" y="184.9951">Qt</text></g><!--MD5=[ff3a044f00bfe660ff468ae901f1891e]
cluster DMA_Family--><g id="cluster_DMA_Family"><path d="M807,372 L899,372 A3.75,3.75 0 0 1 901.5,374.5 L908.5,394.2969 L1014,394.2969 A2.5,2.5 0 0 1 1016.5,396.7969 L1016.5,628.5 A2.5,2.5 0 0 1 1014,631 L807,631 A2.5,2.5 0 0 1 804.5,628.5 L804.5,374.5 A2.5,2.5 0 0 1 807,372 " fill="none" style="stroke:#000000;stroke-width:1.5;"/><line style="stroke:#000000;stroke-width:1.5;" x1="804.5" x2="908.5" y1="394.2969" y2="394.2969"/><text fill="#000000" font-family="sans-serif" font-size="14" font-weight="bold" lengthAdjust="spacing" textLength="91" x="808.5" y="386.9951">DMA_Family</text></g><!--MD5=[47b340804ad901fff3abdfb0642a7664]
cluster Plantuml--><g id="cluster_Plantuml"><path d="M847.5,655 L915.5,655 A3.75,3.75 0 0 1 918,657.5 L925,677.2969 L973.5,677.2969 A2.5,2.5 0 0 1 976,679.7969 L976,749.5 A2.5,2.5 0 0 1 973.5,752 L847.5,752 A2.5,2.5 0 0 1 845,749.5 L845,657.5 A2.5,2.5 0 0 1 847.5,655 " fill="none" style="stroke:#000000;stroke-width:1.5;"/><line style="stroke:#000000;stroke-width:1.5;" x1="845" x2="925" y1="677.2969" y2="677.2969"/><text fill="#000000" font-family="sans-serif" font-size="14" font-weight="bold" lengthAdjust="spacing" textLength="67" x="849" y="669.9951">Plantuml</text></g><!--MD5=[1fde209031faa46c276f89c7e8d91c77]
cluster Antlr--><g id="cluster_Antlr"><path d="M857.5,776 L896.5,776 A3.75,3.75 0 0 1 899,778.5 L906,798.2969 L963.5,798.2969 A2.5,2.5 0 0 1 966,800.7969 L966,870.5 A2.5,2.5 0 0 1 963.5,873 L857.5,873 A2.5,2.5 0 0 1 855,870.5 L855,778.5 A2.5,2.5 0 0 1 857.5,776 " fill="none" style="stroke:#000000;stroke-width:1.5;"/><line style="stroke:#000000;stroke-width:1.5;" x1="855" x2="906" y1="798.2969" y2="798.2969"/><text fill="#000000" font-family="sans-serif" font-size="14" font-weight="bold" lengthAdjust="spacing" textLength="38" x="859" y="790.9951">Antlr</text></g><!--MD5=[ec3ed892f3fac55f394810426a52d654]
cluster uuid--><g id="cluster_uuid"><path d="M1110.5,776 L1145.5,776 A3.75,3.75 0 0 1 1148,778.5 L1155,798.2969 L1239.5,798.2969 A2.5,2.5 0 0 1 1242,800.7969 L1242,870.5 A2.5,2.5 0 0 1 1239.5,873 L1110.5,873 A2.5,2.5 0 0 1 1108,870.5 L1108,778.5 A2.5,2.5 0 0 1 1110.5,776 " fill="none" style="stroke:#000000;stroke-width:1.5;"/><line style="stroke:#000000;stroke-width:1.5;" x1="1108" x2="1155" y1="798.2969" y2="798.2969"/><text fill="#000000" font-family="sans-serif" font-size="14" font-weight="bold" lengthAdjust="spacing" textLength="34" x="1112" y="790.9951">uuid</text></g><!--MD5=[d21206043a114b9d7728a080028ac7df]
cluster Pcre_parser--><g id="cluster_Pcre_parser"><path d="M836,897 L932,897 A3.75,3.75 0 0 1 934.5,899.5 L941.5,919.2969 L985,919.2969 A2.5,2.5 0 0 1 987.5,921.7969 L987.5,991.5 A2.5,2.5 0 0 1 985,994 L836,994 A2.5,2.5 0 0 1 833.5,991.5 L833.5,899.5 A2.5,2.5 0 0 1 836,897 " fill="none" style="stroke:#000000;stroke-width:1.5;"/><line style="stroke:#000000;stroke-width:1.5;" x1="833.5" x2="941.5" y1="919.2969" y2="919.2969"/><text fill="#000000" font-family="sans-serif" font-size="14" font-weight="bold" lengthAdjust="spacing" textLength="95" x="837.5" y="911.9951">Pcre_parser</text></g><!--MD5=[1766aac266cf76d64d446e887ff467d2]
cluster Variant_lite--><g id="cluster_Variant_lite"><path d="M841,1018 L929,1018 A3.75,3.75 0 0 1 931.5,1020.5 L938.5,1040.2969 L980,1040.2969 A2.5,2.5 0 0 1 982.5,1042.7969 L982.5,1112.5 A2.5,2.5 0 0 1 980,1115 L841,1115 A2.5,2.5 0 0 1 838.5,1112.5 L838.5,1020.5 A2.5,2.5 0 0 1 841,1018 " fill="none" style="stroke:#000000;stroke-width:1.5;"/><line style="stroke:#000000;stroke-width:1.5;" x1="838.5" x2="938.5" y1="1040.2969" y2="1040.2969"/><text fill="#000000" font-family="sans-serif" font-size="14" font-weight="bold" lengthAdjust="spacing" textLength="87" x="842.5" y="1032.9951">Variant_lite</text></g><!--MD5=[6d6dd3a88c5a8e73c0d5d16eb64420e7]
cluster Github_actions--><g id="cluster_Github_actions"><path d="M748.5,1260 L865.5,1260 A3.75,3.75 0 0 1 868,1262.5 L875,1282.2969 L1072.5,1282.2969 A2.5,2.5 0 0 1 1075,1284.7969 L1075,1597.5 A2.5,2.5 0 0 1 1072.5,1600 L748.5,1600 A2.5,2.5 0 0 1 746,1597.5 L746,1262.5 A2.5,2.5 0 0 1 748.5,1260 " fill="none" style="stroke:#000000;stroke-width:1.5;"/><line style="stroke:#000000;stroke-width:1.5;" x1="746" x2="875" y1="1282.2969" y2="1282.2969"/><text fill="#000000" font-family="sans-serif" font-size="14" font-weight="bold" lengthAdjust="spacing" textLength="116" x="750" y="1274.9951">Github_actions</text></g><!--MD5=[aa2dd4b7182c95cb5bda1b57c85aaee4]
cluster Build system--><g id="cluster_Build system"><path d="M854,1139 L955,1139 A3.75,3.75 0 0 1 957.5,1141.5 L964.5,1161.2969 L967,1161.2969 A2.5,2.5 0 0 1 969.5,1163.7969 L969.5,1233.5 A2.5,2.5 0 0 1 967,1236 L854,1236 A2.5,2.5 0 0 1 851.5,1233.5 L851.5,1141.5 A2.5,2.5 0 0 1 854,1139 " fill="none" style="stroke:#000000;stroke-width:1.5;"/><line style="stroke:#000000;stroke-width:1.5;" x1="851.5" x2="964.5" y1="1161.2969" y2="1161.2969"/><text fill="#000000" font-family="sans-serif" font-size="14" font-weight="bold" lengthAdjust="spacing" textLength="100" x="855.5" y="1153.9951">Build system</text></g><!--MD5=[11618173411f6d5f6c0eb00eb11c2118]
entity dlt_message_analyzer_source--><g id="elem_dlt_message_analyzer_source"><rect fill="#F1F1F1" height="46.2969" rx="2.5" ry="2.5" style="stroke:#181818;stroke-width:0.5;" width="247" x="46" y="811"/><rect fill="#F1F1F1" height="10" style="stroke:#181818;stroke-width:0.5;" width="15" x="273" y="816"/><rect fill="#F1F1F1" height="2" style="stroke:#181818;stroke-width:0.5;" width="4" x="271" y="818"/><rect fill="#F1F1F1" height="2" style="stroke:#181818;stroke-width:0.5;" width="4" x="271" y="822"/><text fill="#000000" font-family="sans-serif" font-size="14" lengthAdjust="spacing" textLength="207" x="61" y="843.9951">dlt_message_analyzer_source</text></g><!--MD5=[e389352ca7078b9cf463fa9b07370eeb]
entity dlt_message_analyzer_github--><g id="elem_dlt_message_analyzer_github"><rect fill="#F1F1F1" height="46.2969" rx="2.5" ry="2.5" style="stroke:#181818;stroke-width:0.5;" width="243" x="48" y="932"/><rect fill="#F1F1F1" height="10" style="stroke:#181818;stroke-width:0.5;" width="15" x="271" y="937"/><rect fill="#F1F1F1" height="2" style="stroke:#181818;stroke-width:0.5;" width="4" x="269" y="939"/><rect fill="#F1F1F1" height="2" style="stroke:#181818;stroke-width:0.5;" width="4" x="269" y="943"/><text fill="#000000" font-family="sans-serif" font-size="14" lengthAdjust="spacing" textLength="203" x="63" y="964.9951">dlt_message_analyzer_github</text></g><!--MD5=[c6f9a1eb8a02a6c7613ac2378b32058e]
entity qdlt--><g id="elem_qdlt"><rect fill="#F1F1F1" height="46.2969" rx="2.5" ry="2.5" style="stroke:#181818;stroke-width:0.5;" width="66" x="877.5" y="84"/><rect fill="#F1F1F1" height="10" style="stroke:#181818;stroke-width:0.5;" width="15" x="923.5" y="89"/><rect fill="#F1F1F1" height="2" style="stroke:#181818;stroke-width:0.5;" width="4" x="921.5" y="91"/><rect fill="#F1F1F1" height="2" style="stroke:#181818;stroke-width:0.5;" width="4" x="921.5" y="95"/><text fill="#000000" font-family="sans-serif" font-size="14" lengthAdjust="spacing" textLength="26" x="892.5" y="116.9951">qdlt</text></g><!--MD5=[c15f40f9222499a3411b898603282877]
entity qt5--><g id="elem_qt5"><rect fill="#F1F1F1" height="46.2969" rx="2.5" ry="2.5" style="stroke:#181818;stroke-width:0.5;" width="63" x="879" y="205"/><rect fill="#F1F1F1" height="10" style="stroke:#181818;stroke-width:0.5;" width="15" x="922" y="210"/><rect fill="#F1F1F1" height="2" style="stroke:#181818;stroke-width:0.5;" width="4" x="920" y="212"/><rect fill="#F1F1F1" height="2" style="stroke:#181818;stroke-width:0.5;" width="4" x="920" y="216"/><text fill="#000000" font-family="sans-serif" font-size="14" lengthAdjust="spacing" textLength="23" x="894" y="237.9951">qt5</text></g><!--MD5=[bd4019b5b4036e2ca54e98528b0780fc]
entity qt6--><g id="elem_qt6"><rect fill="#F1F1F1" height="46.2969" rx="2.5" ry="2.5" style="stroke:#181818;stroke-width:0.5;" width="63" x="879" y="286"/><rect fill="#F1F1F1" height="10" style="stroke:#181818;stroke-width:0.5;" width="15" x="922" y="291"/><rect fill="#F1F1F1" height="2" style="stroke:#181818;stroke-width:0.5;" width="4" x="920" y="293"/><rect fill="#F1F1F1" height="2" style="stroke:#181818;stroke-width:0.5;" width="4" x="920" y="297"/><text fill="#000000" font-family="sans-serif" font-size="14" lengthAdjust="spacing" textLength="23" x="894" y="318.9951">qt6</text></g><!--MD5=[e7bd85d92d5747c660b8934e8a12e4ab]
entity dma_plantuml--><g id="elem_dma_plantuml"><rect fill="#F1F1F1" height="46.2969" rx="2.5" ry="2.5" style="stroke:#181818;stroke-width:0.5;" width="136" x="842.5" y="407"/><rect fill="#F1F1F1" height="10" style="stroke:#181818;stroke-width:0.5;" width="15" x="958.5" y="412"/><rect fill="#F1F1F1" height="2" style="stroke:#181818;stroke-width:0.5;" width="4" x="956.5" y="414"/><rect fill="#F1F1F1" height="2" style="stroke:#181818;stroke-width:0.5;" width="4" x="956.5" y="418"/><text fill="#000000" font-family="sans-serif" font-size="14" lengthAdjust="spacing" textLength="96" x="857.5" y="439.9951">dma_plantuml</text></g><!--MD5=[27520cc21299a69f974a7317780de2c8]
entity dma_framework--><g id="elem_dma_framework"><rect fill="#F1F1F1" height="46.2969" rx="2.5" ry="2.5" style="stroke:#181818;stroke-width:0.5;" width="149" x="836" y="488"/><rect fill="#F1F1F1" height="10" style="stroke:#181818;stroke-width:0.5;" width="15" x="965" y="493"/><rect fill="#F1F1F1" height="2" style="stroke:#181818;stroke-width:0.5;" width="4" x="963" y="495"/><rect fill="#F1F1F1" height="2" style="stroke:#181818;stroke-width:0.5;" width="4" x="963" y="499"/><text fill="#000000" font-family="sans-serif" font-size="14" lengthAdjust="spacing" textLength="109" x="851" y="520.9951">dma_framework</text></g><!--MD5=[0e158f5823b0df0ca5e88a3d1975bc25]
entity dma_common_deps--><g id="elem_dma_common_deps"><rect fill="#F1F1F1" height="46.2969" rx="2.5" ry="2.5" style="stroke:#181818;stroke-width:0.5;" width="180" x="820.5" y="569"/><rect fill="#F1F1F1" height="10" style="stroke:#181818;stroke-width:0.5;" width="15" x="980.5" y="574"/><rect fill="#F1F1F1" height="2" style="stroke:#181818;stroke-width:0.5;" width="4" x="978.5" y="576"/><rect fill="#F1F1F1" height="2" style="stroke:#181818;stroke-width:0.5;" width="4" x="978.5" y="580"/><text fill="#000000" font-family="sans-serif" font-size="14" lengthAdjust="spacing" textLength="140" x="835.5" y="601.9951">dma_common_deps</text></g><!--MD5=[f34abdc907f3da33f3fd0e2cc8b4f06b]
entity plantuml--><g id="elem_plantuml"><rect fill="#F1F1F1" height="46.2969" rx="2.5" ry="2.5" style="stroke:#181818;stroke-width:0.5;" width="99" x="861" y="690"/><rect fill="#F1F1F1" height="10" style="stroke:#181818;stroke-width:0.5;" width="15" x="940" y="695"/><rect fill="#F1F1F1" height="2" style="stroke:#181818;stroke-width:0.5;" width="4" x="938" y="697"/><rect fill="#F1F1F1" height="2" style="stroke:#181818;stroke-width:0.5;" width="4" x="938" y="701"/><text fill="#000000" font-family="sans-serif" font-size="14" lengthAdjust="spacing" textLength="59" x="876" y="722.9951">plantuml</text></g><!--MD5=[0a984248fbf66a1e8e0e1beb9046e2d3]
entity antlr4--><g id="elem_antlr4"><rect fill="#F1F1F1" height="46.2969" rx="2.5" ry="2.5" style="stroke:#181818;stroke-width:0.5;" width="79" x="871" y="811"/><rect fill="#F1F1F1" height="10" style="stroke:#181818;stroke-width:0.5;" width="15" x="930" y="816"/><rect fill="#F1F1F1" height="2" style="stroke:#181818;stroke-width:0.5;" width="4" x="928" y="818"/><rect fill="#F1F1F1" height="2" style="stroke:#181818;stroke-width:0.5;" width="4" x="928" y="822"/><text fill="#000000" font-family="sans-serif" font-size="14" lengthAdjust="spacing" textLength="39" x="886" y="843.9951">antlr4</text></g><!--MD5=[46211472ad6f30fc1017063da72ed381]
entity uuid_dev--><g id="elem_uuid_dev"><rect fill="#F1F1F1" height="46.2969" rx="2.5" ry="2.5" style="stroke:#181818;stroke-width:0.5;" width="102" x="1124" y="811"/><rect fill="#F1F1F1" height="10" style="stroke:#181818;stroke-width:0.5;" width="15" x="1206" y="816"/><rect fill="#F1F1F1" height="2" style="stroke:#181818;stroke-width:0.5;" width="4" x="1204" y="818"/><rect fill="#F1F1F1" height="2" style="stroke:#181818;stroke-width:0.5;" width="4" x="1204" y="822"/><text fill="#000000" font-family="sans-serif" font-size="14" lengthAdjust="spacing" textLength="62" x="1139" y="843.9951">uuid_dev</text></g><!--MD5=[3920431e64f21f95d01538a7d6ce2e75]
entity pcre_parser--><g id="elem_pcre_parser"><rect fill="#F1F1F1" height="46.2969" rx="2.5" ry="2.5" style="stroke:#181818;stroke-width:0.5;" width="122" x="849.5" y="932"/><rect fill="#F1F1F1" height="10" style="stroke:#181818;stroke-width:0.5;" width="15" x="951.5" y="937"/><rect fill="#F1F1F1" height="2" style="stroke:#181818;stroke-width:0.5;" width="4" x="949.5" y="939"/><rect fill="#F1F1F1" height="2" style="stroke:#181818;stroke-width:0.5;" width="4" x="949.5" y="943"/><text fill="#000000" font-family="sans-serif" font-size="14" lengthAdjust="spacing" textLength="82" x="864.5" y="964.9951">pcre_parser</text></g><!--MD5=[88f6b56f4e7801f78f23a8249090a7ff]
entity variant_lite--><g id="elem_variant_lite"><rect fill="#F1F1F1" height="46.2969" rx="2.5" ry="2.5" style="stroke:#181818;stroke-width:0.5;" width="112" x="854.5" y="1053"/><rect fill="#F1F1F1" height="10" style="stroke:#181818;stroke-width:0.5;" width="15" x="946.5" y="1058"/><rect fill="#F1F1F1" height="2" style="stroke:#181818;stroke-width:0.5;" width="4" x="944.5" y="1060"/><rect fill="#F1F1F1" height="2" style="stroke:#181818;stroke-width:0.5;" width="4" x="944.5" y="1064"/><text fill="#000000" font-family="sans-serif" font-size="14" lengthAdjust="spacing" textLength="72" x="869.5" y="1085.9951">variant_lite</text></g><!--MD5=[3ba07de7792a87893c1e49977f536306]
entity actions/cache--><g id="elem_actions/cache"><rect fill="#F1F1F1" height="46.2969" rx="2.5" ry="2.5" style="stroke:#181818;stroke-width:0.5;" width="137" x="842" y="1295"/><rect fill="#F1F1F1" height="10" style="stroke:#181818;stroke-width:0.5;" width="15" x="959" y="1300"/><rect fill="#F1F1F1" height="2" style="stroke:#181818;stroke-width:0.5;" width="4" x="957" y="1302"/><rect fill="#F1F1F1" height="2" style="stroke:#181818;stroke-width:0.5;" width="4" x="957" y="1306"/><text fill="#000000" font-family="sans-serif" font-size="14" lengthAdjust="spacing" textLength="97" x="857" y="1327.9951">actions/cache</text></g><!--MD5=[e69ff48adaa685c3fc6bf1379e60b585]
entity actions/checkout--><g id="elem_actions/checkout"><rect fill="#F1F1F1" height="46.2969" rx="2.5" ry="2.5" style="stroke:#181818;stroke-width:0.5;" width="160" x="830.5" y="1376"/><rect fill="#F1F1F1" height="10" style="stroke:#181818;stroke-width:0.5;" width="15" x="970.5" y="1381"/><rect fill="#F1F1F1" height="2" style="stroke:#181818;stroke-width:0.5;" width="4" x="968.5" y="1383"/><rect fill="#F1F1F1" height="2" style="stroke:#181818;stroke-width:0.5;" width="4" x="968.5" y="1387"/><text fill="#000000" font-family="sans-serif" font-size="14" lengthAdjust="spacing" textLength="120" x="845.5" y="1408.9951">actions/checkout</text></g><!--MD5=[461956e3378b7b91da0c3d70c6a5e88f]
entity jurplel/install_qt_action--><g id="elem_jurplel/install_qt_action"><rect fill="#F1F1F1" height="46.2969" rx="2.5" ry="2.5" style="stroke:#181818;stroke-width:0.5;" width="195" x="813" y="1457"/><rect fill="#F1F1F1" height="10" style="stroke:#181818;stroke-width:0.5;" width="15" x="988" y="1462"/><rect fill="#F1F1F1" height="2" style="stroke:#181818;stroke-width:0.5;" width="4" x="986" y="1464"/><rect fill="#F1F1F1" height="2" style="stroke:#181818;stroke-width:0.5;" width="4" x="986" y="1468"/><text fill="#000000" font-family="sans-serif" font-size="14" lengthAdjust="spacing" textLength="155" x="828" y="1489.9951">jurplel/install_qt_action</text></g><!--MD5=[289f97c89d2fe0d9a1db176bd003a91f]
entity stefanzweifel/git_auto_commit_action--><g id="elem_stefanzweifel/git_auto_commit_action"><rect fill="#F1F1F1" height="46.2969" rx="2.5" ry="2.5" style="stroke:#181818;stroke-width:0.5;" width="297" x="762" y="1538"/><rect fill="#F1F1F1" height="10" style="stroke:#181818;stroke-width:0.5;" width="15" x="1039" y="1543"/><rect fill="#F1F1F1" height="2" style="stroke:#181818;stroke-width:0.5;" width="4" x="1037" y="1545"/><rect fill="#F1F1F1" height="2" style="stroke:#181818;stroke-width:0.5;" width="4" x="1037" y="1549"/><text fill="#000000" font-family="sans-serif" font-size="14" lengthAdjust="spacing" textLength="257" x="777" y="1570.9951">stefanzweifel/git_auto_commit_action</text></g><!--MD5=[37b44c279ac23edd7aa0f34ec474ec48]
entity cmake--><g id="elem_cmake"><rect fill="#F1F1F1" height="46.2969" rx="2.5" ry="2.5" style="stroke:#181818;stroke-width:0.5;" width="86" x="867.5" y="1174"/><rect fill="#F1F1F1" height="10" style="stroke:#181818;stroke-width:0.5;" width="15" x="933.5" y="1179"/><rect fill="#F1F1F1" height="2" style="stroke:#181818;stroke-width:0.5;" width="4" x="931.5" y="1181"/><rect fill="#F1F1F1" height="2" style="stroke:#181818;stroke-width:0.5;" width="4" x="931.5" y="1185"/><text fill="#000000" font-family="sans-serif" font-size="14" lengthAdjust="spacing" textLength="46" x="882.5" y="1206.9951">cmake</text></g><!--MD5=[8e9af746d17fa1fb2c2c7d4e32a22ad1]
link dlt_message_analyzer_source to dma_common_deps--><g id="link_dlt_message_analyzer_source_dma_common_deps"><path d="M200.73,810.86 C234.95,785.74 293.21,746.13 349,723 C505.91,657.96 701.55,621.54 815.31,604.4 " fill="none" id="dlt_message_analyzer_source-to-dma_common_deps" style="stroke:#181818;stroke-width:1.0;"/><polygon fill="#181818" points="820.33,603.65,810.8355,601.032,815.3855,604.3931,812.0244,608.9432,820.33,603.65" style="stroke:#181818;stroke-width:1.0;"/><text fill="#000000" font-family="sans-serif" font-size="13" lengthAdjust="spacing" textLength="308" x="373.5" y="620.0669">https://github.com/svlad-90/DMA_CommonDeps</text></g><!--MD5=[e1215037b653fe22c877ed90831ae2d1]
link dlt_message_analyzer_source to dma_framework--><g id="link_dlt_message_analyzer_source_dma_framework"><path d="M180.59,810.92 C203.06,762.58 262.13,650.89 349,599 C428.89,551.28 696.18,526.06 830.72,516.13 " fill="none" id="dlt_message_analyzer_source-to-dma_framework" style="stroke:#181818;stroke-width:1.0;"/><polygon fill="#181818" points="835.85,515.75,826.5777,512.4297,830.8638,516.1215,827.172,520.4076,835.85,515.75" style="stroke:#181818;stroke-width:1.0;"/><text fill="#000000" font-family="sans-serif" font-size="13" lengthAdjust="spacing" textLength="286" x="384.5" y="524.0669">https://github.com/svlad-90/DMA_Framework</text></g><!--MD5=[b2b4d5a49c1246ccf5f13d1611c5f987]
link dlt_message_analyzer_source to dma_plantuml--><g id="link_dlt_message_analyzer_source_dma_plantuml"><path d="M175.38,810.68 C189.68,748.75 237.68,579.63 349,503 C426.76,449.47 704.24,435.17 837.31,431.37 " fill="none" id="dlt_message_analyzer_source-to-dma_plantuml" style="stroke:#181818;stroke-width:1.0;"/><polygon fill="#181818" points="842.37,431.23,833.2591,427.4894,837.3721,431.3732,833.4883,435.4861,842.37,431.23" style="stroke:#181818;stroke-width:1.0;"/><text fill="#000000" font-family="sans-serif" font-size="13" lengthAdjust="spacing" textLength="272" x="391.5" y="434.0669">https://github.com/svlad-90/DMA_Plantuml</text></g><!--MD5=[30a38588e4c7224d7a36b5d1a1354a3e]
link dlt_message_analyzer_source to qt5--><g id="link_dlt_message_analyzer_source_qt5"><path d="M170.33,810.72 C171.07,726.78 185.82,437.61 349,303 C429.51,236.58 762.94,228.75 873.61,228.01 " fill="none" id="dlt_message_analyzer_source-to-qt5" style="stroke:#181818;stroke-width:1.0;"/><polygon fill="#181818" points="878.71,227.98,869.676,224.0573,873.7102,228.0229,869.7446,232.057,878.71,227.98" style="stroke:#181818;stroke-width:1.0;"/><text fill="#000000" font-family="sans-serif" font-size="13" lengthAdjust="spacing" textLength="159" x="448" y="230.0669">https://github.com/qt/qt5</text></g><!--MD5=[382d66665348b1b50b7fd8cfdb1a9369]
link dlt_message_analyzer_source to qt6--><g id="link_dlt_message_analyzer_source_qt6"><path d="M172.82,810.81 C181.31,738.98 217.47,518.63 349,413 C431.04,347.12 763.46,318.93 873.75,311.27 " fill="none" id="dlt_message_analyzer_source-to-qt6" style="stroke:#181818;stroke-width:1.0;"/><polygon fill="#181818" points="878.83,310.92,869.5768,307.5469,873.8418,311.263,870.1256,315.528,878.83,310.92" style="stroke:#181818;stroke-width:1.0;"/><text fill="#000000" font-family="sans-serif" font-size="13" lengthAdjust="spacing" textLength="182" x="436.5" y="324.0669">https://github.com/qt/qtbase</text></g><!--MD5=[b32eb9404b40d392fd6493d3cd9ba3d6]
link dlt_message_analyzer_source to qdlt--><g id="link_dlt_message_analyzer_source_qdlt"><path d="M173.83,810.78 C189.07,707.81 255.46,293.78 349,209 C500.55,71.64 773.01,89.64 872.14,101.63 " fill="none" id="dlt_message_analyzer_source-to-qdlt" style="stroke:#181818;stroke-width:1.0;"/><polygon fill="#181818" points="877.3,102.27,868.8602,97.1936,872.338,101.6551,867.8764,105.1328,877.3,102.27" style="stroke:#181818;stroke-width:1.0;"/><text fill="#000000" font-family="sans-serif" font-size="13" lengthAdjust="spacing" textLength="337" x="359" y="91.0669">https://github.com/GENIVI/dlt-viewer/tree/master/qdlt</text></g><!--MD5=[bb72a1e80e6e081d1743e0b8c646fbf2]
link dlt_message_analyzer_source to plantuml--><g id="link_dlt_message_analyzer_source_plantuml"><path d="M293.36,813.88 C456.74,787.13 738.53,740.99 855.83,721.79 " fill="none" id="dlt_message_analyzer_source-to-plantuml" style="stroke:#181818;stroke-width:1.0;"/><polygon fill="#181818" points="860.95,720.95,851.4254,718.4437,856.0146,721.7511,852.7072,726.3403,860.95,720.95" style="stroke:#181818;stroke-width:1.0;"/><text fill="#000000" font-family="sans-serif" font-size="13" lengthAdjust="spacing" textLength="237" x="409" y="744.0669">https://github.com/plantuml/plantuml</text></g><!--MD5=[ce1ecf902e71acdb69f5ffc61731f2e6]
link dlt_message_analyzer_source to antlr4--><g id="link_dlt_message_analyzer_source_antlr4"><path d="M293.36,834 C461.43,834 754.79,834 865.51,834 " fill="none" id="dlt_message_analyzer_source-to-antlr4" style="stroke:#181818;stroke-width:1.0;"/><polygon fill="#181818" points="870.65,834,861.65,830,865.65,834,861.65,838,870.65,834" style="stroke:#181818;stroke-width:1.0;"/><text fill="#000000" font-family="sans-serif" font-size="13" lengthAdjust="spacing" textLength="191" x="432" y="830.0669">https://github.com/antlr/antlr4</text></g><!--MD5=[537f0eac6aef9f4114ba4f20a5aedb47]
link dlt_message_analyzer_source to pcre_parser--><g id="link_dlt_message_analyzer_source_pcre_parser"><path d="M293.36,854.12 C451.64,880.03 721.05,924.14 844.37,944.34 " fill="none" id="dlt_message_analyzer_source-to-pcre_parser" style="stroke:#181818;stroke-width:1.0;"/><polygon fill="#181818" points="849.42,945.16,841.1924,939.7464,844.4869,944.345,839.8883,947.6394,849.42,945.16" style="stroke:#181818;stroke-width:1.0;"/><text fill="#000000" font-family="sans-serif" font-size="13" lengthAdjust="spacing" textLength="237" x="409" y="860.0669">https://github.com/bkiers/pcre-parser</text></g><!--MD5=[026128cd3de1182f08cb80436ddc48d5]
link dlt_message_analyzer_source to variant_lite--><g id="link_dlt_message_analyzer_source_variant_lite"><path d="M252.88,857.13 C284.5,869.81 318.38,888.68 341,916 C349.8,926.63 339.08,936.4 349,946 C487.31,1079.86 734.97,1085.86 849,1080.64 " fill="none" id="dlt_message_analyzer_source-to-variant_lite" style="stroke:#181818;stroke-width:1.0;"/><polygon fill="#181818" points="854.32,1080.38,845.136,1076.8226,849.3259,1080.6233,845.5253,1084.8131,854.32,1080.38" style="stroke:#181818;stroke-width:1.0;"/><text fill="#000000" font-family="sans-serif" font-size="13" lengthAdjust="spacing" textLength="280" x="387.5" y="942.0669">https://github.com/martinmoene/variant-lite</text></g><!--MD5=[712a8e51ea465cfee6c7158532f571a3]
link dlt_message_analyzer_source to cmake--><g id="link_dlt_message_analyzer_source_cmake"><path d="M261.8,857.13 C292.06,869.51 322.66,888.16 341,916 C352.44,933.37 335.23,1087.42 349,1103 C480.68,1252.02 752.44,1224.66 862.09,1206.28 " fill="none" id="dlt_message_analyzer_source-to-cmake" style="stroke:#181818;stroke-width:1.0;"/><polygon fill="#181818" points="867.19,1205.41,857.6445,1202.9843,862.2615,1206.2528,858.9931,1210.8699,867.19,1205.41" style="stroke:#181818;stroke-width:1.0;"/><text fill="#000000" font-family="sans-serif" font-size="13" lengthAdjust="spacing" textLength="255" x="400" y="1099.0669">https://gitlab.kitware.com/cmake/cmake</text></g><!--MD5=[93935c1c0e262d0f63d5b07ea0650def]
link antlr4 to uuid_dev--><g id="link_antlr4_uuid_dev"><path d="M950.23,834 C994.77,834 1068.22,834 1118.74,834 " fill="none" id="antlr4-to-uuid_dev" style="stroke:#181818;stroke-width:1.0;"/><polygon fill="#181818" points="1123.87,834,1114.87,830,1118.87,834,1114.87,838,1123.87,834" style="stroke:#181818;stroke-width:1.0;"/></g><!--MD5=[dc52e0a4caaca387c1357d3e86113ecb]
link dlt_message_analyzer_github to actions/cache--><g id="link_dlt_message_analyzer_github_actions/cache"><path d="M177.04,978.01 C194.41,1034.53 247.48,1180.33 349,1246 C428.09,1297.16 703.91,1312.08 836.81,1316.34 " fill="none" id="dlt_message_analyzer_github-to-actions/cache" style="stroke:#181818;stroke-width:1.0;"/><polygon fill="#181818" points="841.87,1316.5,833.0005,1312.2185,836.8725,1316.3425,832.7485,1320.2145,841.87,1316.5" style="stroke:#181818;stroke-width:1.0;"/><text fill="#000000" font-family="sans-serif" font-size="13" lengthAdjust="spacing" textLength="209" x="423" y="1242.0669">https://github.com/actions/cache</text></g><!--MD5=[b962dd241540cdad23a0e1de24deb9dd]
link dlt_message_analyzer_github to actions/checkout--><g id="link_dlt_message_analyzer_github_actions/checkout"><path d="M173.6,978.26 C184.01,1046.27 224.37,1245.52 349,1335 C423.33,1388.36 687.74,1397.92 825.17,1399.19 " fill="none" id="dlt_message_analyzer_github-to-actions/checkout" style="stroke:#181818;stroke-width:1.0;"/><polygon fill="#181818" points="830.41,1399.24,821.4446,1395.163,825.4102,1399.1971,821.376,1403.1627,830.41,1399.24" style="stroke:#181818;stroke-width:1.0;"/><text fill="#000000" font-family="sans-serif" font-size="13" lengthAdjust="spacing" textLength="229" x="413" y="1331.0669">https://github.com/actions/checkout</text></g><!--MD5=[f20309ba69bfac8c6db4b9764b586b8b]
link dlt_message_analyzer_github to jurplel/install_qt_action--><g id="link_dlt_message_analyzer_github_jurplel/install_qt_action"><path d="M171.39,978.03 C175.72,1055.39 201.1,1307.41 349,1421 C418.58,1474.44 665.69,1481.96 807.49,1481.67 " fill="none" id="dlt_message_analyzer_github-to-jurplel/install_qt_action" style="stroke:#181818;stroke-width:1.0;"/><polygon fill="#181818" points="812.91,1481.66,803.8986,1477.6857,807.91,1481.6743,803.9215,1485.6857,812.91,1481.66" style="stroke:#181818;stroke-width:1.0;"/><text fill="#000000" font-family="sans-serif" font-size="13" lengthAdjust="spacing" textLength="262" x="396.5" y="1417.0669">https://github.com/jurplel/install-qt-action</text></g><!--MD5=[7592ffcbf9d3e23dac11c68d30bc782e]
link dlt_message_analyzer_github to stefanzweifel/git_auto_commit_action--><g id="link_dlt_message_analyzer_github_stefanzweifel/git_auto_commit_action"><path d="M169.85,978.14 C168.82,1064.25 177.84,1368.25 349,1506 C471.56,1604.63 661.46,1601.01 785.65,1584.71 " fill="none" id="dlt_message_analyzer_github-to-stefanzweifel/git_auto_commit_action" style="stroke:#181818;stroke-width:1.0;"/><polygon fill="#181818" points="790.77,1584.02,781.3224,1581.2374,785.8134,1584.6771,782.3737,1589.168,790.77,1584.02" style="stroke:#181818;stroke-width:1.0;"/><text fill="#000000" font-family="sans-serif" font-size="13" lengthAdjust="spacing" textLength="355" x="350" y="1502.0669">https://github.com/stefanzweifel/git-auto-commit-action</text></g><!--MD5=[7a7c3b38ec0ec66486dbc5ac0e2c2629]
@startuml

left to right direction

package "DLT_Message_Analyzer" {
    package "DLT_Message_Analyzer_Source" {
        [dlt_message_analyzer_source]
    }
    
    package "DLT_Message_Analyzer_Github" {
        [dlt_message_analyzer_github]
    }
}

package "DLT_Message_Analyzer Dependencies" {
    package "DLT" {
        [qdlt]
    }

    package "Qt" {
        [qt5]
        [qt6]
    }

    package "DMA_Family" {
        [dma_plantuml]
        [dma_framework]
        [dma_common_deps]
    }

    package "Plantuml" {
        [plantuml]
    }

    package "Antlr" {
        [antlr4]
    }
    
    package "uuid" {
        [uuid_dev]
    }

    package "Pcre_parser" {
        [pcre_parser]
    }

    package "Variant_lite" {
        [variant_lite]
    }

    package "Github_actions"{
        [actions/cache]
        [actions/checkout]
        [jurplel/install_qt_action]
        [stefanzweifel/git_auto_commit_action]
    }
    
    package "Build system"{
        [cmake]
    }
}

[dlt_message_analyzer_source] - -> [dma_common_deps] : https://github.com/svlad-90/DMA_CommonDeps
[dlt_message_analyzer_source] - -> [dma_framework] : https://github.com/svlad-90/DMA_Framework
[dlt_message_analyzer_source] - -> [dma_plantuml] : https://github.com/svlad-90/DMA_Plantuml

[dlt_message_analyzer_source] - -> [qt5] : https://github.com/qt/qt5
[dlt_message_analyzer_source] - -> [qt6] : https://github.com/qt/qtbase
[dlt_message_analyzer_source] - -> [qdlt] : https://github.com/GENIVI/dlt-viewer/tree/master/qdlt
[dlt_message_analyzer_source] - -> [plantuml] : https://github.com/plantuml/plantuml
[dlt_message_analyzer_source] - -> [antlr4] : https://github.com/antlr/antlr4
[dlt_message_analyzer_source] - -> [pcre_parser] : https://github.com/bkiers/pcre-parser
[dlt_message_analyzer_source] - -> [variant_lite] : https://github.com/martinmoene/variant-lite
[dlt_message_analyzer_source] - -> [cmake] : https://gitlab.kitware.com/cmake/cmake

[antlr4] - -> [uuid_dev]

[dlt_message_analyzer_github] - -> [actions/cache] : https://github.com/actions/cache
[dlt_message_analyzer_github] - -> [actions/checkout] : https://github.com/actions/checkout
[dlt_message_analyzer_github] - -> [jurplel/install_qt_action] : https://github.com/jurplel/install-qt-action
[dlt_message_analyzer_github] - -> [stefanzweifel/git_auto_commit_action] : https://github.com/stefanzweifel/git-auto-commit-action

@enduml

PlantUML version 1.2022.7(Mon Aug 22 19:01:30 CEST 2022)
(GPL source distribution)
Java Runtime: OpenJDK Runtime Environment
JVM: OpenJDK 64-Bit Server VM
Default Encoding: UTF-8
Language: en
Country: null
--></g></svg>