<?xml version="1.0" encoding="UTF-8" standalone="no"?><svg xmlns="http://www.w3.org/2000/svg" xmlns:xlink="http://www.w3.org/1999/xlink" contentScriptType="application/ecmascript" contentStyleType="text/css" height="879px" preserveAspectRatio="none" style="width:1564px;height:879px;background:#FEFEFE;" version="1.1" viewBox="0 0 1564 879" width="1564px" zoomAndPan="magnify"><defs><filter height="300%" id="fh63s2hx68159" width="300%" x="-1" y="-1"><feGaussianBlur result="blurOut" stdDeviation="2.0"/><feColorMatrix in="blurOut" result="blurOut2" type="matrix" values="0 0 0 0 0 0 0 0 0 0 0 0 0 0 0 0 0 0 .4 0"/><feOffset dx="4.0" dy="4.0" in="blurOut2" result="blurOut3"/><feBlend in="SourceGraphic" in2="blurOut3" mode="normal"/></filter></defs><g><!--MD5=[08c8de0648d9c7cbaf96a7e343f8b70d]
cluster DMA_LogsWrapper_API--><polygon fill="#DDDDDD" filter="url(#fh63s2hx68159)" points="461,422,647,422,654,444.2969,1051,444.2969,1051,867,461,867,461,422" style="stroke: #000000; stroke-width: 1.5;"/><line style="stroke: #000000; stroke-width: 1.5;" x1="461" x2="654" y1="444.2969" y2="444.2969"/><text fill="#000000" font-family="sans-serif" font-size="14" font-weight="bold" lengthAdjust="spacingAndGlyphs" textLength="180" x="465" y="436.9951">DMA_LogsWrapper_API</text><!--MD5=[e161d740f7247c3d6e8c2afc21f18eb1]
cluster DMA_SearchView--><polygon fill="#DDDDDD" filter="url(#fh63s2hx68159)" points="660,274,802,274,809,296.2969,1141,296.2969,1141,373,660,373,660,274" style="stroke: #000000; stroke-width: 1.5;"/><line style="stroke: #000000; stroke-width: 1.5;" x1="660" x2="809" y1="296.2969" y2="296.2969"/><text fill="#000000" font-family="sans-serif" font-size="14" font-weight="bold" lengthAdjust="spacingAndGlyphs" textLength="136" x="664" y="288.9951">DMA_SearchView</text><!--MD5=[d4892f74e8b231ffe841a66f7609dced]
cluster DMA_SearchView_API--><polygon fill="#DDDDDD" filter="url(#fh63s2hx68159)" points="22,24,196,24,203,46.2969,1084,46.2969,1084,225,22,225,22,24" style="stroke: #000000; stroke-width: 1.5;"/><line style="stroke: #000000; stroke-width: 1.5;" x1="22" x2="203" y1="46.2969" y2="46.2969"/><text fill="#000000" font-family="sans-serif" font-size="14" font-weight="bold" lengthAdjust="spacingAndGlyphs" textLength="168" x="26" y="38.9951">DMA_SearchView_API</text><!--MD5=[90b388b6a0087e5650eef9c205d35863]
cluster DMA_Settings_API--><polygon fill="#DDDDDD" filter="url(#fh63s2hx68159)" points="1108,75,1253,75,1260,97.2969,1322,97.2969,1322,174,1108,174,1108,75" style="stroke: #000000; stroke-width: 1.5;"/><line style="stroke: #000000; stroke-width: 1.5;" x1="1108" x2="1260" y1="97.2969" y2="97.2969"/><text fill="#000000" font-family="sans-serif" font-size="14" font-weight="bold" lengthAdjust="spacingAndGlyphs" textLength="139" x="1112" y="89.9951">DMA_Settings_API</text><!--MD5=[0aca3eaa01c17ff0039911bbeeabf854]
cluster Qt--><polygon fill="#DDDDDD" filter="url(#fh63s2hx68159)" points="1346,75,1370,75,1377,97.2969,1542,97.2969,1542,174,1346,174,1346,75" style="stroke: #000000; stroke-width: 1.5;"/><line style="stroke: #000000; stroke-width: 1.5;" x1="1346" x2="1377" y1="97.2969" y2="97.2969"/><text fill="#000000" font-family="sans-serif" font-size="14" font-weight="bold" lengthAdjust="spacingAndGlyphs" textLength="18" x="1350" y="89.9951">Qt</text><!--MD5=[b74a1593b784229d4f96d9ad79a2015c]
class IFileWrapper--><rect fill="#FEFECE" filter="url(#fh63s2hx68159)" height="393.7266" id="IFileWrapper" style="stroke: #A80036; stroke-width: 1.5;" width="557" x="477.5" y="457"/><ellipse cx="713.25" cy="473" fill="#ADD1B2" rx="11" ry="11" style="stroke: #A80036; stroke-width: 1.0;"/><path d="M716.2188,478.6406 Q715.6406,478.9375 715,479.0781 Q714.3594,479.2344 713.6563,479.2344 Q711.1563,479.2344 709.8281,477.5938 Q708.5156,475.9375 708.5156,472.8125 Q708.5156,469.6875 709.8281,468.0313 Q711.1563,466.375 713.6563,466.375 Q714.3594,466.375 715,466.5313 Q715.6563,466.6875 716.2188,466.9844 L716.2188,469.7031 Q715.5938,469.125 715,468.8594 Q714.4063,468.5781 713.7813,468.5781 Q712.4375,468.5781 711.75,469.6563 Q711.0625,470.7188 711.0625,472.8125 Q711.0625,474.9063 711.75,475.9844 Q712.4375,477.0469 713.7813,477.0469 Q714.4063,477.0469 715,476.7813 Q715.5938,476.5 716.2188,475.9219 L716.2188,478.6406 Z "/><text fill="#000000" font-family="sans-serif" font-size="12" lengthAdjust="spacingAndGlyphs" textLength="77" x="733.75" y="477.1543">IFileWrapper</text><line style="stroke: #A80036; stroke-width: 1.5;" x1="478.5" x2="1033.5" y1="489" y2="489"/><line style="stroke: #A80036; stroke-width: 1.5;" x1="478.5" x2="1033.5" y1="497" y2="497"/><ellipse cx="488.5" cy="508" fill="#84BE84" rx="3" ry="3" style="stroke: #038048; stroke-width: 1.0;"/><text fill="#000000" font-family="sans-serif" font-size="11" font-style="italic" lengthAdjust="spacingAndGlyphs" textLength="287" x="497.5" y="511.2104">virtual QString getCacheStatusAsString() const = 0</text><ellipse cx="488.5" cy="520.8047" fill="#84BE84" rx="3" ry="3" style="stroke: #038048; stroke-width: 1.0;"/><text fill="#000000" font-family="sans-serif" font-size="11" font-style="italic" lengthAdjust="spacingAndGlyphs" textLength="255" x="497.5" y="524.0151">virtual QString getFileName(int num = 0) = 0</text><ellipse cx="488.5" cy="533.6094" fill="#84BE84" rx="3" ry="3" style="stroke: #038048; stroke-width: 1.0;"/><text fill="#000000" font-family="sans-serif" font-size="11" font-style="italic" lengthAdjust="spacingAndGlyphs" textLength="326" x="497.5" y="536.8198">virtual bool cacheMsgByIndex( const tMsgId&amp; msgId ) = 0</text><ellipse cx="488.5" cy="546.4141" fill="#84BE84" rx="3" ry="3" style="stroke: #038048; stroke-width: 1.0;"/><text fill="#000000" font-family="sans-serif" font-size="11" font-style="italic" lengthAdjust="spacingAndGlyphs" textLength="393" x="497.5" y="549.6245">virtual bool cacheMsgByIndexes( const QSet&lt;tMsgId&gt; msgIdSet ) = 0</text><ellipse cx="488.5" cy="559.2188" fill="#84BE84" rx="3" ry="3" style="stroke: #038048; stroke-width: 1.0;"/><text fill="#000000" font-family="sans-serif" font-size="11" font-style="italic" lengthAdjust="spacingAndGlyphs" textLength="375" x="497.5" y="562.4292">virtual bool cacheMsgByRange( const tIntRange&amp; msgRange ) = 0</text><ellipse cx="488.5" cy="572.0234" fill="#84BE84" rx="3" ry="3" style="stroke: #038048; stroke-width: 1.0;"/><text fill="#000000" font-family="sans-serif" font-size="11" font-style="italic" lengthAdjust="spacingAndGlyphs" textLength="531" x="497.5" y="575.2339">virtual bool cacheMsgWrapper( const int&amp; msgId, const tMsgWrapperPtr&amp; pMsgWrapper ) = 0</text><ellipse cx="488.5" cy="584.8281" fill="#84BE84" rx="3" ry="3" style="stroke: #038048; stroke-width: 1.0;"/><text fill="#000000" font-family="sans-serif" font-size="11" font-style="italic" lengthAdjust="spacingAndGlyphs" textLength="282" x="497.5" y="588.0386">virtual bool getSubFilesHandlingStatus() const = 0</text><ellipse cx="488.5" cy="597.6328" fill="#84BE84" rx="3" ry="3" style="stroke: #038048; stroke-width: 1.0;"/><text fill="#000000" font-family="sans-serif" font-size="11" font-style="italic" lengthAdjust="spacingAndGlyphs" textLength="185" x="497.5" y="600.8433">virtual bool isFiltered() const = 0</text><ellipse cx="488.5" cy="610.4375" fill="#84BE84" rx="3" ry="3" style="stroke: #038048; stroke-width: 1.0;"/><text fill="#000000" font-family="sans-serif" font-size="11" font-style="italic" lengthAdjust="spacingAndGlyphs" textLength="427" x="497.5" y="613.6479">virtual int getMsgIdFromIndexInMainTable(int msgIdxInMainTable) const = 0</text><ellipse cx="488.5" cy="623.2422" fill="#84BE84" rx="3" ry="3" style="stroke: #038048; stroke-width: 1.0;"/><text fill="#000000" font-family="sans-serif" font-size="11" font-style="italic" lengthAdjust="spacingAndGlyphs" textLength="225" x="497.5" y="626.4526">virtual int getNumberOfFiles() const = 0</text><ellipse cx="488.5" cy="636.0469" fill="#84BE84" rx="3" ry="3" style="stroke: #038048; stroke-width: 1.0;"/><text fill="#000000" font-family="sans-serif" font-size="11" font-style="italic" lengthAdjust="spacingAndGlyphs" textLength="146" x="497.5" y="639.2573">virtual int size() const = 0</text><ellipse cx="488.5" cy="648.8516" fill="#84BE84" rx="3" ry="3" style="stroke: #038048; stroke-width: 1.0;"/><text fill="#000000" font-family="sans-serif" font-size="11" font-style="italic" lengthAdjust="spacingAndGlyphs" textLength="210" x="497.5" y="652.062">virtual int sizeNonFiltered() const = 0</text><ellipse cx="488.5" cy="661.6563" fill="#84BE84" rx="3" ry="3" style="stroke: #038048; stroke-width: 1.0;"/><text fill="#000000" font-family="sans-serif" font-size="11" lengthAdjust="spacingAndGlyphs" textLength="327" x="497.5" y="664.8667">signal void currentSizeMbChanged(tCacheSizeMB MBytes)</text><ellipse cx="488.5" cy="674.4609" fill="#84BE84" rx="3" ry="3" style="stroke: #038048; stroke-width: 1.0;"/><text fill="#000000" font-family="sans-serif" font-size="11" lengthAdjust="spacingAndGlyphs" textLength="197" x="497.5" y="677.6714">signal void fullChanged(bool isFull)</text><ellipse cx="488.5" cy="687.2656" fill="#84BE84" rx="3" ry="3" style="stroke: #038048; stroke-width: 1.0;"/><text fill="#000000" font-family="sans-serif" font-size="11" lengthAdjust="spacingAndGlyphs" textLength="261" x="497.5" y="690.4761">signal void isEnabledChanged(bool isEnabled)</text><ellipse cx="488.5" cy="700.0703" fill="#84BE84" rx="3" ry="3" style="stroke: #038048; stroke-width: 1.0;"/><text fill="#000000" font-family="sans-serif" font-size="11" lengthAdjust="spacingAndGlyphs" textLength="271" x="497.5" y="703.2808">signal void loadChanged(unsigned int percents)</text><ellipse cx="488.5" cy="712.875" fill="#84BE84" rx="3" ry="3" style="stroke: #038048; stroke-width: 1.0;"/><text fill="#000000" font-family="sans-serif" font-size="11" lengthAdjust="spacingAndGlyphs" textLength="310" x="497.5" y="716.0854">signal void maxSizeMbChanged(tCacheSizeMB MBytes)</text><ellipse cx="488.5" cy="725.6797" fill="#84BE84" rx="3" ry="3" style="stroke: #038048; stroke-width: 1.0;"/><text fill="#000000" font-family="sans-serif" font-size="11" font-style="italic" lengthAdjust="spacingAndGlyphs" textLength="528" x="497.5" y="728.8901">virtual tIntRangeProperty normalizeSearchRange( const tIntRangeProperty&amp; inputRange) = 0</text><ellipse cx="488.5" cy="738.4844" fill="#84BE84" rx="3" ry="3" style="stroke: #038048; stroke-width: 1.0;"/><text fill="#000000" font-family="sans-serif" font-size="11" font-style="italic" lengthAdjust="spacingAndGlyphs" textLength="324" x="497.5" y="741.6948">virtual tMsgWrapperPtr getMsg(const tMsgId&amp; msgId) = 0</text><ellipse cx="488.5" cy="751.2891" fill="#84BE84" rx="3" ry="3" style="stroke: #038048; stroke-width: 1.0;"/><text fill="#000000" font-family="sans-serif" font-size="11" font-style="italic" lengthAdjust="spacingAndGlyphs" textLength="352" x="497.5" y="754.4995">virtual virtual tIntRangeList getSubFilesSizeRanges() const = 0</text><ellipse cx="488.5" cy="764.0938" fill="#84BE84" rx="3" ry="3" style="stroke: #038048; stroke-width: 1.0;"/><text fill="#000000" font-family="sans-serif" font-size="11" font-style="italic" lengthAdjust="spacingAndGlyphs" textLength="384" x="497.5" y="767.3042">virtual void copyFileNameToClipboard( const int&amp; msgId ) const = 0</text><ellipse cx="488.5" cy="776.8984" fill="#84BE84" rx="3" ry="3" style="stroke: #038048; stroke-width: 1.0;"/><text fill="#000000" font-family="sans-serif" font-size="11" font-style="italic" lengthAdjust="spacingAndGlyphs" textLength="462" x="497.5" y="780.1089">virtual void copyFileNamesToClipboard( const tIntRange&amp; msgsRange ) const = 0</text><ellipse cx="488.5" cy="789.7031" fill="#84BE84" rx="3" ry="3" style="stroke: #038048; stroke-width: 1.0;"/><text fill="#000000" font-family="sans-serif" font-size="11" font-style="italic" lengthAdjust="spacingAndGlyphs" textLength="164" x="497.5" y="792.9136">virtual void resetCache() = 0</text><ellipse cx="488.5" cy="802.5078" fill="#84BE84" rx="3" ry="3" style="stroke: #038048; stroke-width: 1.0;"/><text fill="#000000" font-family="sans-serif" font-size="11" font-style="italic" lengthAdjust="spacingAndGlyphs" textLength="272" x="497.5" y="805.7183">virtual void setEnableCache(bool isEnabled) = 0</text><ellipse cx="488.5" cy="815.3125" fill="#84BE84" rx="3" ry="3" style="stroke: #038048; stroke-width: 1.0;"/><text fill="#000000" font-family="sans-serif" font-size="11" font-style="italic" lengthAdjust="spacingAndGlyphs" textLength="375" x="497.5" y="818.5229">virtual void setMaxCacheSize(const tCacheSizeB&amp; cacheSize ) = 0</text><ellipse cx="488.5" cy="828.1172" fill="#84BE84" rx="3" ry="3" style="stroke: #038048; stroke-width: 1.0;"/><text fill="#000000" font-family="sans-serif" font-size="11" font-style="italic" lengthAdjust="spacingAndGlyphs" textLength="406" x="497.5" y="831.3276">virtual void setMessageDecoder( IMsgDecoder* pMessageDecoder ) = 0</text><ellipse cx="488.5" cy="840.9219" fill="#84BE84" rx="3" ry="3" style="stroke: #038048; stroke-width: 1.0;"/><text fill="#000000" font-family="sans-serif" font-size="11" font-style="italic" lengthAdjust="spacingAndGlyphs" textLength="335" x="497.5" y="844.1323">virtual void setSubFilesHandlingStatus(const bool&amp; val) = 0</text><!--MD5=[dcbb87b9c25321b94864b8e21dbc20aa]
class CSearchResultHighlightingDelegate--><rect fill="#FEFECE" filter="url(#fh63s2hx68159)" height="48" id="CSearchResultHighlightingDelegate" style="stroke: #A80036; stroke-width: 1.5;" width="254" x="871" y="309"/><ellipse cx="886" cy="325" fill="#ADD1B2" rx="11" ry="11" style="stroke: #A80036; stroke-width: 1.0;"/><path d="M888.9688,330.6406 Q888.3906,330.9375 887.75,331.0781 Q887.1094,331.2344 886.4063,331.2344 Q883.9063,331.2344 882.5781,329.5938 Q881.2656,327.9375 881.2656,324.8125 Q881.2656,321.6875 882.5781,320.0313 Q883.9063,318.375 886.4063,318.375 Q887.1094,318.375 887.75,318.5313 Q888.4063,318.6875 888.9688,318.9844 L888.9688,321.7031 Q888.3438,321.125 887.75,320.8594 Q887.1563,320.5781 886.5313,320.5781 Q885.1875,320.5781 884.5,321.6563 Q883.8125,322.7188 883.8125,324.8125 Q883.8125,326.9063 884.5,327.9844 Q885.1875,329.0469 886.5313,329.0469 Q887.1563,329.0469 887.75,328.7813 Q888.3438,328.5 888.9688,327.9219 L888.9688,330.6406 Z "/><text fill="#000000" font-family="sans-serif" font-size="12" lengthAdjust="spacingAndGlyphs" textLength="222" x="900" y="329.1543">CSearchResultHighlightingDelegate</text><line style="stroke: #A80036; stroke-width: 1.5;" x1="872" x2="1124" y1="341" y2="341"/><line style="stroke: #A80036; stroke-width: 1.5;" x1="872" x2="1124" y1="349" y2="349"/><!--MD5=[f3163cffd64cd90a121d8451d55be389]
class CSearchResultModel--><rect fill="#FEFECE" filter="url(#fh63s2hx68159)" height="48" id="CSearchResultModel" style="stroke: #A80036; stroke-width: 1.5;" width="160" x="676" y="309"/><ellipse cx="691" cy="325" fill="#ADD1B2" rx="11" ry="11" style="stroke: #A80036; stroke-width: 1.0;"/><path d="M693.9688,330.6406 Q693.3906,330.9375 692.75,331.0781 Q692.1094,331.2344 691.4063,331.2344 Q688.9063,331.2344 687.5781,329.5938 Q686.2656,327.9375 686.2656,324.8125 Q686.2656,321.6875 687.5781,320.0313 Q688.9063,318.375 691.4063,318.375 Q692.1094,318.375 692.75,318.5313 Q693.4063,318.6875 693.9688,318.9844 L693.9688,321.7031 Q693.3438,321.125 692.75,320.8594 Q692.1563,320.5781 691.5313,320.5781 Q690.1875,320.5781 689.5,321.6563 Q688.8125,322.7188 688.8125,324.8125 Q688.8125,326.9063 689.5,327.9844 Q690.1875,329.0469 691.5313,329.0469 Q692.1563,329.0469 692.75,328.7813 Q693.3438,328.5 693.9688,327.9219 L693.9688,330.6406 Z "/><text fill="#000000" font-family="sans-serif" font-size="12" lengthAdjust="spacingAndGlyphs" textLength="128" x="705" y="329.1543">CSearchResultModel</text><line style="stroke: #A80036; stroke-width: 1.5;" x1="677" x2="835" y1="341" y2="341"/><line style="stroke: #A80036; stroke-width: 1.5;" x1="677" x2="835" y1="349" y2="349"/><!--MD5=[7407fe43e74073cc7abb3b7b92331dbd]
class CSearchResultView--><rect fill="#FEFECE" filter="url(#fh63s2hx68159)" height="48" id="CSearchResultView" style="stroke: #A80036; stroke-width: 1.5;" width="151" x="257.5" y="110"/><ellipse cx="272.5" cy="126" fill="#ADD1B2" rx="11" ry="11" style="stroke: #A80036; stroke-width: 1.0;"/><path d="M275.4688,131.6406 Q274.8906,131.9375 274.25,132.0781 Q273.6094,132.2344 272.9063,132.2344 Q270.4063,132.2344 269.0781,130.5938 Q267.7656,128.9375 267.7656,125.8125 Q267.7656,122.6875 269.0781,121.0313 Q270.4063,119.375 272.9063,119.375 Q273.6094,119.375 274.25,119.5313 Q274.9063,119.6875 275.4688,119.9844 L275.4688,122.7031 Q274.8438,122.125 274.25,121.8594 Q273.6563,121.5781 273.0313,121.5781 Q271.6875,121.5781 271,122.6563 Q270.3125,123.7188 270.3125,125.8125 Q270.3125,127.9063 271,128.9844 Q271.6875,130.0469 273.0313,130.0469 Q273.6563,130.0469 274.25,129.7813 Q274.8438,129.5 275.4688,128.9219 L275.4688,131.6406 Z "/><text fill="#000000" font-family="sans-serif" font-size="12" lengthAdjust="spacingAndGlyphs" textLength="119" x="286.5" y="130.1543">CSearchResultView</text><line style="stroke: #A80036; stroke-width: 1.5;" x1="258.5" x2="407.5" y1="142" y2="142"/><line style="stroke: #A80036; stroke-width: 1.5;" x1="258.5" x2="407.5" y1="150" y2="150"/><!--MD5=[63a39deb90f5ccdbd9386bf2f62956d9]
class CSearchViewComponent--><rect fill="#FEFECE" filter="url(#fh63s2hx68159)" height="48" id="CSearchViewComponent" style="stroke: #A80036; stroke-width: 1.5;" width="184" x="38" y="110"/><ellipse cx="53" cy="126" fill="#ADD1B2" rx="11" ry="11" style="stroke: #A80036; stroke-width: 1.0;"/><path d="M55.9688,131.6406 Q55.3906,131.9375 54.75,132.0781 Q54.1094,132.2344 53.4063,132.2344 Q50.9063,132.2344 49.5781,130.5938 Q48.2656,128.9375 48.2656,125.8125 Q48.2656,122.6875 49.5781,121.0313 Q50.9063,119.375 53.4063,119.375 Q54.1094,119.375 54.75,119.5313 Q55.4063,119.6875 55.9688,119.9844 L55.9688,122.7031 Q55.3438,122.125 54.75,121.8594 Q54.1563,121.5781 53.5313,121.5781 Q52.1875,121.5781 51.5,122.6563 Q50.8125,123.7188 50.8125,125.8125 Q50.8125,127.9063 51.5,128.9844 Q52.1875,130.0469 53.5313,130.0469 Q54.1563,130.0469 54.75,129.7813 Q55.3438,129.5 55.9688,128.9219 L55.9688,131.6406 Z "/><text fill="#000000" font-family="sans-serif" font-size="12" lengthAdjust="spacingAndGlyphs" textLength="152" x="67" y="130.1543">CSearchViewComponent</text><line style="stroke: #A80036; stroke-width: 1.5;" x1="39" x2="221" y1="142" y2="142"/><line style="stroke: #A80036; stroke-width: 1.5;" x1="39" x2="221" y1="150" y2="150"/><!--MD5=[5aafdeb37bd495b7ad56fd7459101ed3]
class ISearchResultModel--><rect fill="#FEFECE" filter="url(#fh63s2hx68159)" height="150.4375" id="ISearchResultModel" style="stroke: #A80036; stroke-width: 1.5;" width="624" x="444" y="59"/><ellipse cx="690.25" cy="75" fill="#ADD1B2" rx="11" ry="11" style="stroke: #A80036; stroke-width: 1.0;"/><path d="M693.2188,80.6406 Q692.6406,80.9375 692,81.0781 Q691.3594,81.2344 690.6563,81.2344 Q688.1563,81.2344 686.8281,79.5938 Q685.5156,77.9375 685.5156,74.8125 Q685.5156,71.6875 686.8281,70.0313 Q688.1563,68.375 690.6563,68.375 Q691.3594,68.375 692,68.5313 Q692.6563,68.6875 693.2188,68.9844 L693.2188,71.7031 Q692.5938,71.125 692,70.8594 Q691.4063,70.5781 690.7813,70.5781 Q689.4375,70.5781 688.75,71.6563 Q688.0625,72.7188 688.0625,74.8125 Q688.0625,76.9063 688.75,77.9844 Q689.4375,79.0469 690.7813,79.0469 Q691.4063,79.0469 692,78.7813 Q692.5938,78.5 693.2188,77.9219 L693.2188,80.6406 Z "/><text fill="#000000" font-family="sans-serif" font-size="12" lengthAdjust="spacingAndGlyphs" textLength="123" x="710.75" y="79.1543">ISearchResultModel</text><line style="stroke: #A80036; stroke-width: 1.5;" x1="445" x2="1067" y1="91" y2="91"/><line style="stroke: #A80036; stroke-width: 1.5;" x1="445" x2="1067" y1="99" y2="99"/><ellipse cx="455" cy="110" fill="#84BE84" rx="3" ry="3" style="stroke: #038048; stroke-width: 1.0;"/><text fill="#000000" font-family="sans-serif" font-size="11" font-style="italic" lengthAdjust="spacingAndGlyphs" textLength="323" x="464" y="113.2104">virtual int getFileIdx( const QModelIndex&amp; idx ) const = 0</text><ellipse cx="455" cy="122.8047" fill="#84BE84" rx="3" ry="3" style="stroke: #038048; stroke-width: 1.0;"/><text fill="#000000" font-family="sans-serif" font-size="11" font-style="italic" lengthAdjust="spacingAndGlyphs" textLength="598" x="464" y="126.0151">virtual std::pair&lt;bool__tIntRange&gt; addNextMessageIdxVec(const tFoundMatchesPack&amp; foundMatchesPack</text><text fill="#000000" font-family="sans-serif" font-size="11" font-style="italic" lengthAdjust="spacingAndGlyphs" textLength="28" x="464" y="138.8198">) = 0</text><ellipse cx="455" cy="148.4141" fill="#84BE84" rx="3" ry="3" style="stroke: #038048; stroke-width: 1.0;"/><text fill="#000000" font-family="sans-serif" font-size="11" font-style="italic" lengthAdjust="spacingAndGlyphs" textLength="380" x="464" y="151.6245">virtual std::pair&lt;int__QString &gt; getUMLDiagramContent() const = 0</text><ellipse cx="455" cy="161.2188" fill="#84BE84" rx="3" ry="3" style="stroke: #038048; stroke-width: 1.0;"/><text fill="#000000" font-family="sans-serif" font-size="11" font-style="italic" lengthAdjust="spacingAndGlyphs" textLength="280" x="464" y="164.4292">virtual tPlotContent createPlotContent() const = 0</text><ellipse cx="455" cy="174.0234" fill="#84BE84" rx="3" ry="3" style="stroke: #038048; stroke-width: 1.0;"/><text fill="#000000" font-family="sans-serif" font-size="11" font-style="italic" lengthAdjust="spacingAndGlyphs" textLength="155" x="464" y="177.2339">virtual void resetData() = 0</text><ellipse cx="455" cy="186.8281" fill="#84BE84" rx="3" ry="3" style="stroke: #038048; stroke-width: 1.0;"/><text fill="#000000" font-family="sans-serif" font-size="11" font-style="italic" lengthAdjust="spacingAndGlyphs" textLength="297" x="464" y="190.0386">virtual void setFile(const tFileWrapperPtr&amp; pFile) = 0</text><ellipse cx="455" cy="199.6328" fill="#84BE84" rx="3" ry="3" style="stroke: #038048; stroke-width: 1.0;"/><text fill="#000000" font-family="sans-serif" font-size="11" font-style="italic" lengthAdjust="spacingAndGlyphs" textLength="302" x="464" y="202.8433">virtual void updateView(const int&amp; fromRow = 0) = 0</text><!--MD5=[3c22b63222d561e58bf3b43e4b8ac797]
class CSettingsManagerClient--><rect fill="#FEFECE" filter="url(#fh63s2hx68159)" height="48" id="CSettingsManagerClient" style="stroke: #A80036; stroke-width: 1.5;" width="182" x="1124" y="110"/><ellipse cx="1139" cy="126" fill="#ADD1B2" rx="11" ry="11" style="stroke: #A80036; stroke-width: 1.0;"/><path d="M1141.9688,131.6406 Q1141.3906,131.9375 1140.75,132.0781 Q1140.1094,132.2344 1139.4063,132.2344 Q1136.9063,132.2344 1135.5781,130.5938 Q1134.2656,128.9375 1134.2656,125.8125 Q1134.2656,122.6875 1135.5781,121.0313 Q1136.9063,119.375 1139.4063,119.375 Q1140.1094,119.375 1140.75,119.5313 Q1141.4063,119.6875 1141.9688,119.9844 L1141.9688,122.7031 Q1141.3438,122.125 1140.75,121.8594 Q1140.1563,121.5781 1139.5313,121.5781 Q1138.1875,121.5781 1137.5,122.6563 Q1136.8125,123.7188 1136.8125,125.8125 Q1136.8125,127.9063 1137.5,128.9844 Q1138.1875,130.0469 1139.5313,130.0469 Q1140.1563,130.0469 1140.75,129.7813 Q1141.3438,129.5 1141.9688,128.9219 L1141.9688,131.6406 Z "/><text fill="#000000" font-family="sans-serif" font-size="12" lengthAdjust="spacingAndGlyphs" textLength="150" x="1153" y="130.1543">CSettingsManagerClient</text><line style="stroke: #A80036; stroke-width: 1.5;" x1="1125" x2="1305" y1="142" y2="142"/><line style="stroke: #A80036; stroke-width: 1.5;" x1="1125" x2="1305" y1="150" y2="150"/><!--MD5=[a1b8e256eada155e9f3de67feb3af130]
class QStyledItemDelegate--><rect fill="#FEFECE" filter="url(#fh63s2hx68159)" height="48" id="QStyledItemDelegate" style="stroke: #A80036; stroke-width: 1.5;" width="163" x="1362.5" y="110"/><ellipse cx="1377.5" cy="126" fill="#ADD1B2" rx="11" ry="11" style="stroke: #A80036; stroke-width: 1.0;"/><path d="M1380.4688,131.6406 Q1379.8906,131.9375 1379.25,132.0781 Q1378.6094,132.2344 1377.9063,132.2344 Q1375.4063,132.2344 1374.0781,130.5938 Q1372.7656,128.9375 1372.7656,125.8125 Q1372.7656,122.6875 1374.0781,121.0313 Q1375.4063,119.375 1377.9063,119.375 Q1378.6094,119.375 1379.25,119.5313 Q1379.9063,119.6875 1380.4688,119.9844 L1380.4688,122.7031 Q1379.8438,122.125 1379.25,121.8594 Q1378.6563,121.5781 1378.0313,121.5781 Q1376.6875,121.5781 1376,122.6563 Q1375.3125,123.7188 1375.3125,125.8125 Q1375.3125,127.9063 1376,128.9844 Q1376.6875,130.0469 1378.0313,130.0469 Q1378.6563,130.0469 1379.25,129.7813 Q1379.8438,129.5 1380.4688,128.9219 L1380.4688,131.6406 Z "/><text fill="#000000" font-family="sans-serif" font-size="12" lengthAdjust="spacingAndGlyphs" textLength="131" x="1391.5" y="130.1543">QStyledItemDelegate</text><line style="stroke: #A80036; stroke-width: 1.5;" x1="1363.5" x2="1524.5" y1="142" y2="142"/><line style="stroke: #A80036; stroke-width: 1.5;" x1="1363.5" x2="1524.5" y1="150" y2="150"/><!--MD5=[3e6960650f93f42626410fbc6d95ead1]
reverse link CSettingsManagerClient to CSearchResultHighlightingDelegate--><path d="M1174.17,172.07 C1129.85,212.3 1060.46,275.3 1023.38,308.96 " fill="none" id="CSettingsManagerClient&lt;-CSearchResultHighlightingDelegate" style="stroke: #A80036; stroke-width: 1.0;"/><polygon fill="none" points="1169.74,166.63,1189.26,158.37,1179.15,177,1169.74,166.63" style="stroke: #A80036; stroke-width: 1.0;"/><text fill="#000000" font-family="sans-serif" font-size="13" lengthAdjust="spacingAndGlyphs" textLength="51" x="1094" y="254.0669">extends</text><!--MD5=[da9919a1c9cb6de43a4020bcccb73dab]
reverse link QStyledItemDelegate to CSearchResultHighlightingDelegate--><path d="M1405.92,171.92 C1383.12,192.33 1352.68,216.77 1322,233 C1255.32,268.28 1174.14,293.05 1109.71,309 " fill="none" id="QStyledItemDelegate&lt;-CSearchResultHighlightingDelegate" style="stroke: #A80036; stroke-width: 1.0;"/><polygon fill="none" points="1401.28,166.67,1420.73,158.26,1410.77,176.97,1401.28,166.67" style="stroke: #A80036; stroke-width: 1.0;"/><text fill="#000000" font-family="sans-serif" font-size="13" lengthAdjust="spacingAndGlyphs" textLength="51" x="1306" y="254.0669">extends</text><!--MD5=[e2c825c7d1e98818b94647631a776c89]
reverse link CSettingsManagerClient to CSearchResultModel--><path d="M1178.38,172.03 C1153.93,194.13 1119.79,220.3 1084,233 C1041.66,248.02 924.46,226.34 882,241 C841.45,255.01 802.66,286.72 779.09,308.74 " fill="none" id="CSettingsManagerClient&lt;-CSearchResultModel" style="stroke: #A80036; stroke-width: 1.0;"/><polygon fill="none" points="1173.62,166.9,1192.97,158.27,1183.22,177.09,1173.62,166.9" style="stroke: #A80036; stroke-width: 1.0;"/><text fill="#000000" font-family="sans-serif" font-size="13" lengthAdjust="spacingAndGlyphs" textLength="51" x="883" y="254.0669">extends</text><!--MD5=[cd4f5f5782c9d99a9c4c71c44e3ef82a]
reverse link ISearchResultModel to CSearchResultModel--><path d="M756,229.41 C756,258.92 756,288.91 756,308.78 " fill="none" id="ISearchResultModel&lt;-CSearchResultModel" style="stroke: #A80036; stroke-width: 1.0;"/><polygon fill="none" points="749,229.2,756,209.2,763,229.2,749,229.2" style="stroke: #A80036; stroke-width: 1.0;"/><text fill="#000000" font-family="sans-serif" font-size="13" lengthAdjust="spacingAndGlyphs" textLength="76" x="757" y="254.0669">implements</text><!--MD5=[2490c11f9352ca81ad884510eaf780cf]
reverse link CSearchResultHighlightingDelegate to ISearchResultModel--><path d="M982.32,297.14 C972.85,278.84 959.42,256.97 943,241 C931.23,229.55 917.98,218.91 904.11,209.13 " fill="none" id="CSearchResultHighlightingDelegate&lt;-ISearchResultModel" style="stroke: #A80036; stroke-width: 1.0;"/><polygon fill="#A80036" points="988.1,308.83,989.0225,301.6782,982.7757,298.0759,981.8531,305.2277,988.1,308.83" style="stroke: #A80036; stroke-width: 1.0;"/><text fill="#000000" font-family="sans-serif" font-size="13" lengthAdjust="spacingAndGlyphs" textLength="30" x="957" y="254.0669">uses</text><text fill="#000000" font-family="sans-serif" font-size="13" lengthAdjust="spacingAndGlyphs" textLength="8" x="976.5381" y="297.7985">1</text><text fill="#000000" font-family="sans-serif" font-size="13" lengthAdjust="spacingAndGlyphs" textLength="8" x="910.9713" y="229.7024">1</text><!--MD5=[739ce0e088e4c0db1b475e1146593db4]
reverse link CSearchResultModel to IFileWrapper--><path d="M756,370.4 C756,392.9 756,423.74 756,456.81 " fill="none" id="CSearchResultModel&lt;-IFileWrapper" style="stroke: #A80036; stroke-width: 1.0;"/><polygon fill="#FEFEFE" points="756,357.2,752,363.2,756,369.2,760,363.2,756,357.2" style="stroke: #A80036; stroke-width: 1.0;"/><text fill="#000000" font-family="sans-serif" font-size="13" lengthAdjust="spacingAndGlyphs" textLength="30" x="757" y="402.0669">uses</text><text fill="#000000" font-family="sans-serif" font-size="13" lengthAdjust="spacingAndGlyphs" textLength="8" x="747.025" y="377.01">1</text><text fill="#000000" font-family="sans-serif" font-size="13" lengthAdjust="spacingAndGlyphs" textLength="8" x="747.8438" y="445.8891">1</text><!--MD5=[ee7c2bd3a359369fe039795cddd2b846]
reverse link CSearchResultView to CSearchResultModel--><path d="M357.57,168.37 C374.83,189.64 399.65,216.26 427,233 C504.46,280.41 606.15,306.44 675.85,319.76 " fill="none" id="CSearchResultView&lt;-CSearchResultModel" style="stroke: #A80036; stroke-width: 1.0;"/><polygon fill="#FEFEFE" points="349.49,158.12,350.0654,165.3081,356.9219,167.5416,356.3465,160.3535,349.49,158.12" style="stroke: #A80036; stroke-width: 1.0;"/><text fill="#000000" font-family="sans-serif" font-size="13" lengthAdjust="spacingAndGlyphs" textLength="30" x="468" y="254.0669">uses</text><text fill="#000000" font-family="sans-serif" font-size="13" lengthAdjust="spacingAndGlyphs" textLength="8" x="344.5344" y="177.9105">1</text><text fill="#000000" font-family="sans-serif" font-size="13" lengthAdjust="spacingAndGlyphs" textLength="8" x="660.0924" y="314.921">1</text><!--MD5=[c12841f0eb0e7db25cde545bdb95610e]
link CSearchViewComponent to CSearchResultModel--><path d="M137.67,158.45 C148.34,187.07 170.58,234.52 207,258 C281.91,306.31 536.18,323.45 670.79,329.24 " fill="none" id="CSearchViewComponent-&gt;CSearchResultModel" style="stroke: #A80036; stroke-width: 1.0;"/><polygon fill="#A80036" points="675.92,329.46,667.1001,325.0772,670.9246,329.2453,666.7565,333.0698,675.92,329.46" style="stroke: #A80036; stroke-width: 1.0;"/><text fill="#000000" font-family="sans-serif" font-size="13" lengthAdjust="spacingAndGlyphs" textLength="225" x="208" y="254.0669">using to create ISearchResultModel</text><text fill="#000000" font-family="sans-serif" font-size="13" lengthAdjust="spacingAndGlyphs" textLength="8" x="130.5187" y="177.9207">1</text><text fill="#000000" font-family="sans-serif" font-size="13" lengthAdjust="spacingAndGlyphs" textLength="8" x="659.9061" y="341.9107">1</text><!--MD5=[6d18842e8fc57054a002187d619ea1a4]
@startuml

skinparam backgroundColor #FEFEFE
skinparam wrapWidth 600
package "DMA_LogsWrapper_API" #DDDDDD
{

class "IFileWrapper"
{
    + {abstract} virtual QString getCacheStatusAsString() const = 0
    + {abstract} virtual QString getFileName(int num = 0) = 0
    + {abstract} virtual bool cacheMsgByIndex( const tMsgId& msgId ) = 0
    + {abstract} virtual bool cacheMsgByIndexes( const QSet<tMsgId> msgIdSet ) = 0
    + {abstract} virtual bool cacheMsgByRange( const tIntRange& msgRange ) = 0
    + {abstract} virtual bool cacheMsgWrapper( const int& msgId, const tMsgWrapperPtr& pMsgWrapper ) = 0
    + {abstract} virtual bool getSubFilesHandlingStatus() const = 0
    + {abstract} virtual bool isFiltered() const = 0
    + {abstract} virtual int getMsgIdFromIndexInMainTable(int msgIdxInMainTable) const = 0
    + {abstract} virtual int getNumberOfFiles() const = 0
    + {abstract} virtual int size() const = 0
    + {abstract} virtual int sizeNonFiltered() const = 0
    + signal void currentSizeMbChanged(tCacheSizeMB MBytes)
    + signal void fullChanged(bool isFull)
    + signal void isEnabledChanged(bool isEnabled)
    + signal void loadChanged(unsigned int percents)
    + signal void maxSizeMbChanged(tCacheSizeMB MBytes)
    + {abstract} virtual tIntRangeProperty normalizeSearchRange( const tIntRangeProperty& inputRange) = 0
    + {abstract} virtual tMsgWrapperPtr getMsg(const tMsgId& msgId) = 0
    + {abstract} virtual virtual tIntRangeList getSubFilesSizeRanges() const = 0
    + {abstract} virtual void copyFileNameToClipboard( const int& msgId ) const = 0
    + {abstract} virtual void copyFileNamesToClipboard( const tIntRange& msgsRange ) const = 0
    + {abstract} virtual void resetCache() = 0
    + {abstract} virtual void setEnableCache(bool isEnabled) = 0
    + {abstract} virtual void setMaxCacheSize(const tCacheSizeB& cacheSize ) = 0
    + {abstract} virtual void setMessageDecoder( IMsgDecoder* pMessageDecoder ) = 0
    + {abstract} virtual void setSubFilesHandlingStatus(const bool& val) = 0
}

}

package "DMA_SearchView" #DDDDDD
{

class "CSearchResultHighlightingDelegate"
{
}

class "CSearchResultModel"
{
}

}

package "DMA_SearchView_API" #DDDDDD
{

class "CSearchResultView"
{
}

class "CSearchViewComponent"
{
}

class "ISearchResultModel"
{
    + {abstract} virtual int getFileIdx( const QModelIndex& idx ) const = 0
    + {abstract} virtual std::pair<bool__tIntRange> addNextMessageIdxVec(const tFoundMatchesPack& foundMatchesPack) = 0
    + {abstract} virtual std::pair<int__QString > getUMLDiagramContent() const = 0
    + {abstract} virtual tPlotContent createPlotContent() const = 0
    + {abstract} virtual void resetData() = 0
    + {abstract} virtual void setFile(const tFileWrapperPtr& pFile) = 0
    + {abstract} virtual void updateView(const int& fromRow = 0) = 0
}

}

package "DMA_Settings_API" #DDDDDD
{

class "CSettingsManagerClient"
{
}

}

package "Qt" #DDDDDD
{

class "QStyledItemDelegate"
{
}

}

CSettingsManagerClient <|- - CSearchResultHighlightingDelegate : extends
QStyledItemDelegate <|- - CSearchResultHighlightingDelegate : extends
CSettingsManagerClient <|- - CSearchResultModel : extends
ISearchResultModel <|- - CSearchResultModel : implements

CSearchResultHighlightingDelegate "1" *- - "1" ISearchResultModel : uses
CSearchResultModel "1" o- - "1" IFileWrapper : uses
CSearchResultView "1" o- - "1" CSearchResultModel : uses
CSearchViewComponent "1" - -> "1" CSearchResultModel : using to create ISearchResultModel

@enduml

PlantUML version 1.2020.02(Sun Mar 01 12:22:07 EET 2020)
(GPL source distribution)
Java Runtime: OpenJDK Runtime Environment
JVM: OpenJDK 64-Bit Server VM
Java Version: 11.0.31+11-post-1ubuntu1-22.04.2-Ubuntu
Operating System: Linux
Default Encoding: UTF-8
Language: en
Country: null
--></g></svg>