<?xml version="1.0" encoding="UTF-8" standalone="no"?><svg xmlns="http://www.w3.org/2000/svg" xmlns:xlink="http://www.w3.org/1999/xlink" contentScriptType="application/ecmascript" contentStyleType="text/css" height="347px" preserveAspectRatio="none" style="width:774px;height:347px;background:#FEFEFE;" version="1.1" viewBox="0 0 774 347" width="774px" zoomAndPan="magnify"><defs><filter height="300%" id="f1gss88rxytsyq" width="300%" x="-1" y="-1"><feGaussianBlur result="blurOut" stdDeviation="2.0"/><feColorMatrix in="blurOut" result="blurOut2" type="matrix" values="0 0 0 0 0 0 0 0 0 0 0 0 0 0 0 0 0 0 .4 0"/><feOffset dx="4.0" dy="4.0" in="blurOut2" result="blurOut3"/><feBlend in="SourceGraphic" in2="blurOut3" mode="normal"/></filter></defs><g><!--MD5=[be574dc3d5ede45bbaf3eeb2fc662a81]
cluster DMA_GroupedView--><polygon fill="#DDDDDD" filter="url(#f1gss88rxytsyq)" points="393,236,549,236,556,258.2969,583,258.2969,583,335,393,335,393,236" style="stroke: #000000; stroke-width: 1.5;"/><line style="stroke: #000000; stroke-width: 1.5;" x1="393" x2="556" y1="258.2969" y2="258.2969"/><text fill="#000000" font-family="sans-serif" font-size="14" font-weight="bold" lengthAdjust="spacingAndGlyphs" textLength="150" x="397" y="250.9951">DMA_GroupedView</text><!--MD5=[20f9969011913f17b748d646fcd98c02]
cluster DMA_GroupedView_API--><polygon fill="#DDDDDD" filter="url(#f1gss88rxytsyq)" points="22,24,210,24,217,46.2969,514,46.2969,514,187,22,187,22,24" style="stroke: #000000; stroke-width: 1.5;"/><line style="stroke: #000000; stroke-width: 1.5;" x1="22" x2="217" y1="46.2969" y2="46.2969"/><text fill="#000000" font-family="sans-serif" font-size="14" font-weight="bold" lengthAdjust="spacingAndGlyphs" textLength="182" x="26" y="38.9951">DMA_GroupedView_API</text><!--MD5=[90b388b6a0087e5650eef9c205d35863]
cluster DMA_Settings_API--><polygon fill="#DDDDDD" filter="url(#f1gss88rxytsyq)" points="538,56,683,56,690,78.2969,752,78.2969,752,155,538,155,538,56" style="stroke: #000000; stroke-width: 1.5;"/><line style="stroke: #000000; stroke-width: 1.5;" x1="538" x2="690" y1="78.2969" y2="78.2969"/><text fill="#000000" font-family="sans-serif" font-size="14" font-weight="bold" lengthAdjust="spacingAndGlyphs" textLength="139" x="542" y="70.9951">DMA_Settings_API</text><!--MD5=[a2fdc64a630565930eae97350340222d]
class CGroupedViewModel--><rect fill="#FEFECE" filter="url(#f1gss88rxytsyq)" height="48" id="CGroupedViewModel" style="stroke: #A80036; stroke-width: 1.5;" width="159" x="408.5" y="271"/><ellipse cx="423.5" cy="287" fill="#ADD1B2" rx="11" ry="11" style="stroke: #A80036; stroke-width: 1.0;"/><path d="M426.4688,292.6406 Q425.8906,292.9375 425.25,293.0781 Q424.6094,293.2344 423.9063,293.2344 Q421.4063,293.2344 420.0781,291.5938 Q418.7656,289.9375 418.7656,286.8125 Q418.7656,283.6875 420.0781,282.0313 Q421.4063,280.375 423.9063,280.375 Q424.6094,280.375 425.25,280.5313 Q425.9063,280.6875 426.4688,280.9844 L426.4688,283.7031 Q425.8438,283.125 425.25,282.8594 Q424.6563,282.5781 424.0313,282.5781 Q422.6875,282.5781 422,283.6563 Q421.3125,284.7188 421.3125,286.8125 Q421.3125,288.9063 422,289.9844 Q422.6875,291.0469 424.0313,291.0469 Q424.6563,291.0469 425.25,290.7813 Q425.8438,290.5 426.4688,289.9219 L426.4688,292.6406 Z "/><text fill="#000000" font-family="sans-serif" font-size="12" lengthAdjust="spacingAndGlyphs" textLength="127" x="437.5" y="291.1543">CGroupedViewModel</text><line style="stroke: #A80036; stroke-width: 1.5;" x1="409.5" x2="566.5" y1="303" y2="303"/><line style="stroke: #A80036; stroke-width: 1.5;" x1="409.5" x2="566.5" y1="311" y2="311"/><!--MD5=[9c9c0c7daf3ff8f62117c277d2c19587]
class IGroupedViewModel--><rect fill="#FEFECE" filter="url(#f1gss88rxytsyq)" height="112.0234" id="IGroupedViewModel" style="stroke: #A80036; stroke-width: 1.5;" width="459" x="38.5" y="59"/><ellipse cx="202.75" cy="75" fill="#ADD1B2" rx="11" ry="11" style="stroke: #A80036; stroke-width: 1.0;"/><path d="M205.7188,80.6406 Q205.1406,80.9375 204.5,81.0781 Q203.8594,81.2344 203.1563,81.2344 Q200.6563,81.2344 199.3281,79.5938 Q198.0156,77.9375 198.0156,74.8125 Q198.0156,71.6875 199.3281,70.0313 Q200.6563,68.375 203.1563,68.375 Q203.8594,68.375 204.5,68.5313 Q205.1563,68.6875 205.7188,68.9844 L205.7188,71.7031 Q205.0938,71.125 204.5,70.8594 Q203.9063,70.5781 203.2813,70.5781 Q201.9375,70.5781 201.25,71.6563 Q200.5625,72.7188 200.5625,74.8125 Q200.5625,76.9063 201.25,77.9844 Q201.9375,79.0469 203.2813,79.0469 Q203.9063,79.0469 204.5,78.7813 Q205.0938,78.5 205.7188,77.9219 L205.7188,80.6406 Z "/><text fill="#000000" font-family="sans-serif" font-size="12" lengthAdjust="spacingAndGlyphs" textLength="122" x="223.25" y="79.1543">IGroupedViewModel</text><line style="stroke: #A80036; stroke-width: 1.5;" x1="39.5" x2="496.5" y1="91" y2="91"/><line style="stroke: #A80036; stroke-width: 1.5;" x1="39.5" x2="496.5" y1="99" y2="99"/><ellipse cx="49.5" cy="110" fill="#84BE84" rx="3" ry="3" style="stroke: #038048; stroke-width: 1.0;"/><text fill="#000000" font-family="sans-serif" font-size="11" font-style="italic" lengthAdjust="spacingAndGlyphs" textLength="433" x="58.5" y="113.2104">virtual int rowCount(const QModelIndex &amp;parent = QModelIndex()) const = 0</text><ellipse cx="49.5" cy="122.8047" fill="#84BE84" rx="3" ry="3" style="stroke: #038048; stroke-width: 1.0;"/><text fill="#000000" font-family="sans-serif" font-size="11" font-style="italic" lengthAdjust="spacingAndGlyphs" textLength="417" x="58.5" y="126.0151">virtual std::pair&lt;bool__QString&gt; exportToHTML(QString&amp; resultHTML) = 0</text><ellipse cx="49.5" cy="135.6094" fill="#84BE84" rx="3" ry="3" style="stroke: #038048; stroke-width: 1.0;"/><text fill="#000000" font-family="sans-serif" font-size="11" font-style="italic" lengthAdjust="spacingAndGlyphs" textLength="429" x="58.5" y="138.8198">virtual void addMatches( const tFoundMatches&amp; matches, bool update ) = 0</text><ellipse cx="49.5" cy="148.4141" fill="#84BE84" rx="3" ry="3" style="stroke: #038048; stroke-width: 1.0;"/><text fill="#000000" font-family="sans-serif" font-size="11" font-style="italic" lengthAdjust="spacingAndGlyphs" textLength="155" x="58.5" y="151.6245">virtual void resetData() = 0</text><ellipse cx="49.5" cy="161.2188" fill="#84BE84" rx="3" ry="3" style="stroke: #038048; stroke-width: 1.0;"/><text fill="#000000" font-family="sans-serif" font-size="11" font-style="italic" lengthAdjust="spacingAndGlyphs" textLength="303" x="58.5" y="164.4292">virtual void setUsedRegex(const QString&amp; regex) = 0</text><!--MD5=[3c22b63222d561e58bf3b43e4b8ac797]
class CSettingsManagerClient--><rect fill="#FEFECE" filter="url(#f1gss88rxytsyq)" height="48" id="CSettingsManagerClient" style="stroke: #A80036; stroke-width: 1.5;" width="182" x="554" y="91"/><ellipse cx="569" cy="107" fill="#ADD1B2" rx="11" ry="11" style="stroke: #A80036; stroke-width: 1.0;"/><path d="M571.9688,112.6406 Q571.3906,112.9375 570.75,113.0781 Q570.1094,113.2344 569.4063,113.2344 Q566.9063,113.2344 565.5781,111.5938 Q564.2656,109.9375 564.2656,106.8125 Q564.2656,103.6875 565.5781,102.0313 Q566.9063,100.375 569.4063,100.375 Q570.1094,100.375 570.75,100.5313 Q571.4063,100.6875 571.9688,100.9844 L571.9688,103.7031 Q571.3438,103.125 570.75,102.8594 Q570.1563,102.5781 569.5313,102.5781 Q568.1875,102.5781 567.5,103.6563 Q566.8125,104.7188 566.8125,106.8125 Q566.8125,108.9063 567.5,109.9844 Q568.1875,111.0469 569.5313,111.0469 Q570.1563,111.0469 570.75,110.7813 Q571.3438,110.5 571.9688,109.9219 L571.9688,112.6406 Z "/><text fill="#000000" font-family="sans-serif" font-size="12" lengthAdjust="spacingAndGlyphs" textLength="150" x="583" y="111.1543">CSettingsManagerClient</text><line style="stroke: #A80036; stroke-width: 1.5;" x1="555" x2="735" y1="123" y2="123"/><line style="stroke: #A80036; stroke-width: 1.5;" x1="555" x2="735" y1="131" y2="131"/><!--MD5=[0544a447b3283184e5810749345c9448]
reverse link CSettingsManagerClient to CGroupedViewModel--><path d="M610.83,154.75 C579.62,190.13 534.51,241.27 508.53,270.72 " fill="none" id="CSettingsManagerClient&lt;-CGroupedViewModel" style="stroke: #A80036; stroke-width: 1.0;"/><polygon fill="none" points="606,149.64,624.47,139.27,616.5,158.9,606,149.64" style="stroke: #A80036; stroke-width: 1.0;"/><text fill="#000000" font-family="sans-serif" font-size="13" lengthAdjust="spacingAndGlyphs" textLength="51" x="567" y="216.0669">extends</text><!--MD5=[de1dbb663faebe86b90e2fae2ac4585e]
reverse link IGroupedViewModel to CGroupedViewModel--><path d="M351.8,183.8 C389.84,214.58 432.32,248.95 459.57,271 " fill="none" id="IGroupedViewModel&lt;-CGroupedViewModel" style="stroke: #A80036; stroke-width: 1.0;"/><polygon fill="none" points="347.25,189.12,336.1,171.1,356.05,178.24,347.25,189.12" style="stroke: #A80036; stroke-width: 1.0;"/><text fill="#000000" font-family="sans-serif" font-size="13" lengthAdjust="spacingAndGlyphs" textLength="76" x="392" y="216.0669">implements</text><!--MD5=[fdf542c7798656cef3aaf703599e01de]
@startuml

skinparam backgroundColor #FEFEFE
skinparam wrapWidth 600
package "DMA_GroupedView" #DDDDDD
{

class "CGroupedViewModel"
{
}

}

package "DMA_GroupedView_API" #DDDDDD
{

class "IGroupedViewModel"
{
    + {abstract} virtual int rowCount(const QModelIndex &parent = QModelIndex()) const = 0
    + {abstract} virtual std::pair<bool__QString> exportToHTML(QString& resultHTML) = 0
    + {abstract} virtual void addMatches( const tFoundMatches& matches, bool update ) = 0
    + {abstract} virtual void resetData() = 0
    + {abstract} virtual void setUsedRegex(const QString& regex) = 0
}

}

package "DMA_Settings_API" #DDDDDD
{

class "CSettingsManagerClient"
{
}

}

CSettingsManagerClient <|- - CGroupedViewModel : extends
IGroupedViewModel <|- - CGroupedViewModel : implements

@enduml

PlantUML version 1.2020.02(Sun Mar 01 12:22:07 EET 2020)
(GPL source distribution)
Java Runtime: OpenJDK Runtime Environment
JVM: OpenJDK 64-Bit Server VM
Java Version: 11.0.31+11-post-1ubuntu1-22.04.2-Ubuntu
Operating System: Linux
Default Encoding: UTF-8
Language: en
Country: null
--></g></svg>