<?xml version="1.0" encoding="UTF-8" standalone="no"?><svg xmlns="http://www.w3.org/2000/svg" xmlns:xlink="http://www.w3.org/1999/xlink" contentScriptType="application/ecmascript" contentStyleType="text/css" height="589px" preserveAspectRatio="none" style="width:2568px;height:589px;" version="1.1" viewBox="0 0 2568 589" width="2568px" zoomAndPan="magnify"><defs><filter height="300%" id="f17aince3krt36" width="300%" x="-1" y="-1"><feGaussianBlur result="blurOut" stdDeviation="2.0"/><feColorMatrix in="blurOut" result="blurOut2" type="matrix" values="0 0 0 0 0 0 0 0 0 0 0 0 0 0 0 0 0 0 .4 0"/><feOffset dx="4.0" dy="4.0" in="blurOut2" result="blurOut3"/><feBlend in="SourceGraphic" in2="blurOut3" mode="normal"/></filter></defs><g><!--MD5=[0aca3eaa01c17ff0039911bbeeabf854]
cluster Qt--><polygon fill="#DDDDDD" filter="url(#f17aince3krt36)" points="1054,279,1079,279,1086,301.2969,2502,301.2969,2502,375,1054,375,1054,279" style="stroke: #000000; stroke-width: 1.5;"/><line style="stroke: #000000; stroke-width: 1.5;" x1="1054" x2="1086" y1="301.2969" y2="301.2969"/><text fill="#000000" font-family="sans-serif" font-size="14" font-weight="bold" lengthAdjust="spacingAndGlyphs" textLength="19" x="1058" y="293.9951">Qt</text><!--MD5=[6deb9d1b22e2ad90d4c0388f2bbfb1d2]
cluster DMA base--><polygon fill="#DDDDDD" filter="url(#f17aince3krt36)" points="36,6,121,6,128,28.2969,316,28.2969,316,89,36,89,36,6" style="stroke: #000000; stroke-width: 1.5;"/><line style="stroke: #000000; stroke-width: 1.5;" x1="36" x2="128" y1="28.2969" y2="28.2969"/><text fill="#000000" font-family="sans-serif" font-size="14" font-weight="bold" lengthAdjust="spacingAndGlyphs" textLength="79" x="40" y="20.9951">DMA base</text><!--MD5=[0d5bd6366eeb0254dbafa67def4638a7]
cluster DMA filters view--><polygon fill="#DDDDDD" filter="url(#f17aince3krt36)" points="16,136,154,136,161,158.2969,1046,158.2969,1046,577,16,577,16,136" style="stroke: #000000; stroke-width: 1.5;"/><line style="stroke: #000000; stroke-width: 1.5;" x1="16" x2="161" y1="158.2969" y2="158.2969"/><text fill="#000000" font-family="sans-serif" font-size="14" font-weight="bold" lengthAdjust="spacingAndGlyphs" textLength="132" x="20" y="150.9951">DMA filters view</text><!--MD5=[ebb47ba14337e5862b0d47cf7066966a]
class QCompleter--><rect fill="#FEFECE" filter="url(#f17aince3krt36)" height="48" id="QCompleter" style="stroke: #A80036; stroke-width: 1.5;" width="103" x="1599.5" y="312.5"/><ellipse cx="1614.5" cy="328.5" fill="#ADD1B2" rx="11" ry="11" style="stroke: #A80036; stroke-width: 1.0;"/><path d="M1617.4688,334.1406 Q1616.8906,334.4375 1616.25,334.5859 Q1615.6094,334.7344 1614.9063,334.7344 Q1612.4063,334.7344 1611.0859,333.0859 Q1609.7656,331.4375 1609.7656,328.3125 Q1609.7656,325.1875 1611.0859,323.5313 Q1612.4063,321.875 1614.9063,321.875 Q1615.6094,321.875 1616.2578,322.0313 Q1616.9063,322.1875 1617.4688,322.4844 L1617.4688,325.2031 Q1616.8438,324.625 1616.25,324.3516 Q1615.6563,324.0781 1615.0313,324.0781 Q1613.6875,324.0781 1613,325.1484 Q1612.3125,326.2188 1612.3125,328.3125 Q1612.3125,330.4063 1613,331.4766 Q1613.6875,332.5469 1615.0313,332.5469 Q1615.6563,332.5469 1616.25,332.2734 Q1616.8438,332 1617.4688,331.4219 L1617.4688,334.1406 Z "/><text fill="#000000" font-family="sans-serif" font-size="12" lengthAdjust="spacingAndGlyphs" textLength="71" x="1628.5" y="332.6543">QCompleter</text><line style="stroke: #A80036; stroke-width: 1.5;" x1="1600.5" x2="1701.5" y1="344.5" y2="344.5"/><line style="stroke: #A80036; stroke-width: 1.5;" x1="1600.5" x2="1701.5" y1="352.5" y2="352.5"/><!--MD5=[f36ae8ea345a4117941f01c437b97e47]
class QLineEdit--><rect fill="#FEFECE" filter="url(#f17aince3krt36)" height="48" id="QLineEdit" style="stroke: #A80036; stroke-width: 1.5;" width="90" x="1383" y="312.5"/><ellipse cx="1398" cy="328.5" fill="#ADD1B2" rx="11" ry="11" style="stroke: #A80036; stroke-width: 1.0;"/><path d="M1400.9688,334.1406 Q1400.3906,334.4375 1399.75,334.5859 Q1399.1094,334.7344 1398.4063,334.7344 Q1395.9063,334.7344 1394.5859,333.0859 Q1393.2656,331.4375 1393.2656,328.3125 Q1393.2656,325.1875 1394.5859,323.5313 Q1395.9063,321.875 1398.4063,321.875 Q1399.1094,321.875 1399.7578,322.0313 Q1400.4063,322.1875 1400.9688,322.4844 L1400.9688,325.2031 Q1400.3438,324.625 1399.75,324.3516 Q1399.1563,324.0781 1398.5313,324.0781 Q1397.1875,324.0781 1396.5,325.1484 Q1395.8125,326.2188 1395.8125,328.3125 Q1395.8125,330.4063 1396.5,331.4766 Q1397.1875,332.5469 1398.5313,332.5469 Q1399.1563,332.5469 1399.75,332.2734 Q1400.3438,332 1400.9688,331.4219 L1400.9688,334.1406 Z "/><text fill="#000000" font-family="sans-serif" font-size="12" lengthAdjust="spacingAndGlyphs" textLength="58" x="1412" y="332.6543">QLineEdit</text><line style="stroke: #A80036; stroke-width: 1.5;" x1="1384" x2="1472" y1="344.5" y2="344.5"/><line style="stroke: #A80036; stroke-width: 1.5;" x1="1384" x2="1472" y1="352.5" y2="352.5"/><!--MD5=[a1b8e256eada155e9f3de67feb3af130]
class QStyledItemDelegate--><rect fill="#FEFECE" filter="url(#f17aince3krt36)" height="60.8047" id="QStyledItemDelegate" style="stroke: #A80036; stroke-width: 1.5;" width="757" x="1737.5" y="306"/><ellipse cx="2047.75" cy="322" fill="#ADD1B2" rx="11" ry="11" style="stroke: #A80036; stroke-width: 1.0;"/><path d="M2050.7188,327.6406 Q2050.1406,327.9375 2049.5,328.0859 Q2048.8594,328.2344 2048.1563,328.2344 Q2045.6563,328.2344 2044.3359,326.5859 Q2043.0156,324.9375 2043.0156,321.8125 Q2043.0156,318.6875 2044.3359,317.0313 Q2045.6563,315.375 2048.1563,315.375 Q2048.8594,315.375 2049.5078,315.5313 Q2050.1563,315.6875 2050.7188,315.9844 L2050.7188,318.7031 Q2050.0938,318.125 2049.5,317.8516 Q2048.9063,317.5781 2048.2813,317.5781 Q2046.9375,317.5781 2046.25,318.6484 Q2045.5625,319.7188 2045.5625,321.8125 Q2045.5625,323.9063 2046.25,324.9766 Q2046.9375,326.0469 2048.2813,326.0469 Q2048.9063,326.0469 2049.5,325.7734 Q2050.0938,325.5 2050.7188,324.9219 L2050.7188,327.6406 Z "/><text fill="#000000" font-family="sans-serif" font-size="12" lengthAdjust="spacingAndGlyphs" textLength="128" x="2068.25" y="326.1543">QStyledItemDelegate</text><line style="stroke: #A80036; stroke-width: 1.5;" x1="1738.5" x2="2493.5" y1="338" y2="338"/><line style="stroke: #A80036; stroke-width: 1.5;" x1="1738.5" x2="2493.5" y1="346" y2="346"/><ellipse cx="1748.5" cy="357" fill="#84BE84" rx="3" ry="3" style="stroke: #038048; stroke-width: 1.0;"/><text fill="#000000" font-family="sans-serif" font-size="11" font-style="italic" lengthAdjust="spacingAndGlyphs" textLength="731" x="1757.5" y="360.2104">virtual QWidget* createEditor(QWidget *parent, const QStyleOptionViewItem &amp;option, const QModelIndex &amp;index) const override</text><!--MD5=[007a283508746e6e6a7bb2028196e9c2]
class QTreeView--><rect fill="#FEFECE" filter="url(#f17aince3krt36)" height="48" id="QTreeView" style="stroke: #A80036; stroke-width: 1.5;" width="95" x="1252.5" y="312.5"/><ellipse cx="1267.5" cy="328.5" fill="#ADD1B2" rx="11" ry="11" style="stroke: #A80036; stroke-width: 1.0;"/><path d="M1270.4688,334.1406 Q1269.8906,334.4375 1269.25,334.5859 Q1268.6094,334.7344 1267.9063,334.7344 Q1265.4063,334.7344 1264.0859,333.0859 Q1262.7656,331.4375 1262.7656,328.3125 Q1262.7656,325.1875 1264.0859,323.5313 Q1265.4063,321.875 1267.9063,321.875 Q1268.6094,321.875 1269.2578,322.0313 Q1269.9063,322.1875 1270.4688,322.4844 L1270.4688,325.2031 Q1269.8438,324.625 1269.25,324.3516 Q1268.6563,324.0781 1268.0313,324.0781 Q1266.6875,324.0781 1266,325.1484 Q1265.3125,326.2188 1265.3125,328.3125 Q1265.3125,330.4063 1266,331.4766 Q1266.6875,332.5469 1268.0313,332.5469 Q1268.6563,332.5469 1269.25,332.2734 Q1269.8438,332 1270.4688,331.4219 L1270.4688,334.1406 Z "/><text fill="#000000" font-family="sans-serif" font-size="12" lengthAdjust="spacingAndGlyphs" textLength="63" x="1281.5" y="332.6543">QTreeView</text><line style="stroke: #A80036; stroke-width: 1.5;" x1="1253.5" x2="1346.5" y1="344.5" y2="344.5"/><line style="stroke: #A80036; stroke-width: 1.5;" x1="1253.5" x2="1346.5" y1="352.5" y2="352.5"/><!--MD5=[35e9c7902161cafacac039b0d5f87024]
class QAbstractItemModel--><rect fill="#FEFECE" filter="url(#f17aince3krt36)" height="48" id="QAbstractItemModel" style="stroke: #A80036; stroke-width: 1.5;" width="155" x="1062.5" y="312.5"/><ellipse cx="1077.5" cy="328.5" fill="#ADD1B2" rx="11" ry="11" style="stroke: #A80036; stroke-width: 1.0;"/><path d="M1080.4688,334.1406 Q1079.8906,334.4375 1079.25,334.5859 Q1078.6094,334.7344 1077.9063,334.7344 Q1075.4063,334.7344 1074.0859,333.0859 Q1072.7656,331.4375 1072.7656,328.3125 Q1072.7656,325.1875 1074.0859,323.5313 Q1075.4063,321.875 1077.9063,321.875 Q1078.6094,321.875 1079.2578,322.0313 Q1079.9063,322.1875 1080.4688,322.4844 L1080.4688,325.2031 Q1079.8438,324.625 1079.25,324.3516 Q1078.6563,324.0781 1078.0313,324.0781 Q1076.6875,324.0781 1076,325.1484 Q1075.3125,326.2188 1075.3125,328.3125 Q1075.3125,330.4063 1076,331.4766 Q1076.6875,332.5469 1078.0313,332.5469 Q1078.6563,332.5469 1079.25,332.2734 Q1079.8438,332 1080.4688,331.4219 L1080.4688,334.1406 Z "/><text fill="#000000" font-family="sans-serif" font-size="12" lengthAdjust="spacingAndGlyphs" textLength="123" x="1091.5" y="332.6543">QAbstractItemModel</text><line style="stroke: #A80036; stroke-width: 1.5;" x1="1063.5" x2="1216.5" y1="344.5" y2="344.5"/><line style="stroke: #A80036; stroke-width: 1.5;" x1="1063.5" x2="1216.5" y1="352.5" y2="352.5"/><!--MD5=[6f29f313cd4199edbf91b9ce3a4faa98]
class Form--><rect fill="#FEFECE" filter="url(#f17aince3krt36)" height="48" id="Form" style="stroke: #A80036; stroke-width: 1.5;" width="63" x="44.5" y="33"/><ellipse cx="59.5" cy="49" fill="#ADD1B2" rx="11" ry="11" style="stroke: #A80036; stroke-width: 1.0;"/><path d="M62.4688,54.6406 Q61.8906,54.9375 61.25,55.0859 Q60.6094,55.2344 59.9063,55.2344 Q57.4063,55.2344 56.0859,53.5859 Q54.7656,51.9375 54.7656,48.8125 Q54.7656,45.6875 56.0859,44.0313 Q57.4063,42.375 59.9063,42.375 Q60.6094,42.375 61.2578,42.5313 Q61.9063,42.6875 62.4688,42.9844 L62.4688,45.7031 Q61.8438,45.125 61.25,44.8516 Q60.6563,44.5781 60.0313,44.5781 Q58.6875,44.5781 58,45.6484 Q57.3125,46.7188 57.3125,48.8125 Q57.3125,50.9063 58,51.9766 Q58.6875,53.0469 60.0313,53.0469 Q60.6563,53.0469 61.25,52.7734 Q61.8438,52.5 62.4688,51.9219 L62.4688,54.6406 Z "/><text fill="#000000" font-family="sans-serif" font-size="12" lengthAdjust="spacingAndGlyphs" textLength="31" x="73.5" y="53.1543">Form</text><line style="stroke: #A80036; stroke-width: 1.5;" x1="45.5" x2="106.5" y1="65" y2="65"/><line style="stroke: #A80036; stroke-width: 1.5;" x1="45.5" x2="106.5" y1="73" y2="73"/><!--MD5=[65cf5b7ad40f1b0ece06d7cb106e6435]
class CDLTMessageAnalyzer--><rect fill="#FEFECE" filter="url(#f17aince3krt36)" height="48" id="CDLTMessageAnalyzer" style="stroke: #A80036; stroke-width: 1.5;" width="165" x="142.5" y="33"/><ellipse cx="157.5" cy="49" fill="#ADD1B2" rx="11" ry="11" style="stroke: #A80036; stroke-width: 1.0;"/><path d="M160.4688,54.6406 Q159.8906,54.9375 159.25,55.0859 Q158.6094,55.2344 157.9063,55.2344 Q155.4063,55.2344 154.0859,53.5859 Q152.7656,51.9375 152.7656,48.8125 Q152.7656,45.6875 154.0859,44.0313 Q155.4063,42.375 157.9063,42.375 Q158.6094,42.375 159.2578,42.5313 Q159.9063,42.6875 160.4688,42.9844 L160.4688,45.7031 Q159.8438,45.125 159.25,44.8516 Q158.6563,44.5781 158.0313,44.5781 Q156.6875,44.5781 156,45.6484 Q155.3125,46.7188 155.3125,48.8125 Q155.3125,50.9063 156,51.9766 Q156.6875,53.0469 158.0313,53.0469 Q158.6563,53.0469 159.25,52.7734 Q159.8438,52.5 160.4688,51.9219 L160.4688,54.6406 Z "/><text fill="#000000" font-family="sans-serif" font-size="12" lengthAdjust="spacingAndGlyphs" textLength="133" x="171.5" y="53.1543">CDLTMessageAnalyzer</text><line style="stroke: #A80036; stroke-width: 1.5;" x1="143.5" x2="306.5" y1="65" y2="65"/><line style="stroke: #A80036; stroke-width: 1.5;" x1="143.5" x2="306.5" y1="73" y2="73"/><!--MD5=[0c9b77897403f0870879dbee50845d1f]
class CFiltersModel--><rect fill="#FEFECE" filter="url(#f17aince3krt36)" height="124.8281" id="CFiltersModel" style="stroke: #A80036; stroke-width: 1.5;" width="898" x="140" y="444"/><ellipse cx="545.25" cy="460" fill="#ADD1B2" rx="11" ry="11" style="stroke: #A80036; stroke-width: 1.0;"/><path d="M548.2188,465.6406 Q547.6406,465.9375 547,466.0859 Q546.3594,466.2344 545.6563,466.2344 Q543.1563,466.2344 541.8359,464.5859 Q540.5156,462.9375 540.5156,459.8125 Q540.5156,456.6875 541.8359,455.0313 Q543.1563,453.375 545.6563,453.375 Q546.3594,453.375 547.0078,453.5313 Q547.6563,453.6875 548.2188,453.9844 L548.2188,456.7031 Q547.5938,456.125 547,455.8516 Q546.4063,455.5781 545.7813,455.5781 Q544.4375,455.5781 543.75,456.6484 Q543.0625,457.7188 543.0625,459.8125 Q543.0625,461.9063 543.75,462.9766 Q544.4375,464.0469 545.7813,464.0469 Q546.4063,464.0469 547,463.7734 Q547.5938,463.5 548.2188,462.9219 L548.2188,465.6406 Z "/><text fill="#000000" font-family="sans-serif" font-size="12" lengthAdjust="spacingAndGlyphs" textLength="79" x="565.75" y="464.1543">CFiltersModel</text><line style="stroke: #A80036; stroke-width: 1.5;" x1="141" x2="1037" y1="476" y2="476"/><ellipse cx="151" cy="503.8047" fill="#84BE84" rx="3" ry="3" style="stroke: #038048; stroke-width: 1.0;"/><text fill="#000000" font-family="sans-serif" font-size="11" lengthAdjust="spacingAndGlyphs" textLength="282" x="160" y="507.0151">void addCompletionData( const tFoundMatches&amp; )</text><ellipse cx="151" cy="516.6094" fill="#84BE84" rx="3" ry="3" style="stroke: #038048; stroke-width: 1.0;"/><text fill="#000000" font-family="sans-serif" font-size="11" lengthAdjust="spacingAndGlyphs" textLength="155" x="160" y="519.8198">void resetCompletionData()</text><ellipse cx="151" cy="529.4141" fill="#84BE84" rx="3" ry="3" style="stroke: #038048; stroke-width: 1.0;"/><text fill="#000000" font-family="sans-serif" font-size="11" lengthAdjust="spacingAndGlyphs" textLength="872" x="160" y="532.6245">QStringList getCompletionData( const int&amp; groupIndex, const QString&amp; input, const int&amp; maxNumberOfSuggestions, const int&amp; maxLengthOfSuggestions )</text><line style="stroke: #A80036; stroke-width: 1.0;" x1="141" x2="561.5" y1="490.4023" y2="490.4023"/><text fill="#000000" font-family="sans-serif" font-size="11" lengthAdjust="spacingAndGlyphs" textLength="55" x="561.5" y="493.7104">public API</text><line style="stroke: #A80036; stroke-width: 1.0;" x1="616.5" x2="1037" y1="490.4023" y2="490.4023"/><ellipse cx="151" cy="559.0234" fill="#84BE84" rx="3" ry="3" style="stroke: #038048; stroke-width: 1.0;"/><text fill="#000000" font-family="sans-serif" font-size="11" lengthAdjust="spacingAndGlyphs" textLength="178" x="160" y="562.2339">void completionDataChanged();</text><line style="stroke: #A80036; stroke-width: 1.0;" x1="141" x2="569.5" y1="545.6211" y2="545.6211"/><text fill="#000000" font-family="sans-serif" font-size="11" lengthAdjust="spacingAndGlyphs" textLength="39" x="569.5" y="548.9292">signals</text><line style="stroke: #A80036; stroke-width: 1.0;" x1="608.5" x2="1037" y1="545.6211" y2="545.6211"/><!--MD5=[0ac917dbb3e4cf1e3b4434421290c82a]
class CFiltersView--><rect fill="#FEFECE" filter="url(#f17aince3krt36)" height="48" id="CFiltersView" style="stroke: #A80036; stroke-width: 1.5;" width="104" x="24" y="169.5"/><ellipse cx="39" cy="185.5" fill="#ADD1B2" rx="11" ry="11" style="stroke: #A80036; stroke-width: 1.0;"/><path d="M41.9688,191.1406 Q41.3906,191.4375 40.75,191.5859 Q40.1094,191.7344 39.4063,191.7344 Q36.9063,191.7344 35.5859,190.0859 Q34.2656,188.4375 34.2656,185.3125 Q34.2656,182.1875 35.5859,180.5313 Q36.9063,178.875 39.4063,178.875 Q40.1094,178.875 40.7578,179.0313 Q41.4063,179.1875 41.9688,179.4844 L41.9688,182.2031 Q41.3438,181.625 40.75,181.3516 Q40.1563,181.0781 39.5313,181.0781 Q38.1875,181.0781 37.5,182.1484 Q36.8125,183.2188 36.8125,185.3125 Q36.8125,187.4063 37.5,188.4766 Q38.1875,189.5469 39.5313,189.5469 Q40.1563,189.5469 40.75,189.2734 Q41.3438,189 41.9688,188.4219 L41.9688,191.1406 Z "/><text fill="#000000" font-family="sans-serif" font-size="12" lengthAdjust="spacingAndGlyphs" textLength="72" x="53" y="189.6543">CFiltersView</text><line style="stroke: #A80036; stroke-width: 1.5;" x1="25" x2="127" y1="201.5" y2="201.5"/><line style="stroke: #A80036; stroke-width: 1.5;" x1="25" x2="127" y1="209.5" y2="209.5"/><!--MD5=[3d6121710a95e3188943e4099a8c4a40]
class CFilerItemDelegate--><rect fill="#FEFECE" filter="url(#f17aince3krt36)" height="60.8047" id="CFilerItemDelegate" style="stroke: #A80036; stroke-width: 1.5;" width="757" x="281.5" y="163"/><ellipse cx="598.75" cy="179" fill="#ADD1B2" rx="11" ry="11" style="stroke: #A80036; stroke-width: 1.0;"/><path d="M601.7188,184.6406 Q601.1406,184.9375 600.5,185.0859 Q599.8594,185.2344 599.1563,185.2344 Q596.6563,185.2344 595.3359,183.5859 Q594.0156,181.9375 594.0156,178.8125 Q594.0156,175.6875 595.3359,174.0313 Q596.6563,172.375 599.1563,172.375 Q599.8594,172.375 600.5078,172.5313 Q601.1563,172.6875 601.7188,172.9844 L601.7188,175.7031 Q601.0938,175.125 600.5,174.8516 Q599.9063,174.5781 599.2813,174.5781 Q597.9375,174.5781 597.25,175.6484 Q596.5625,176.7188 596.5625,178.8125 Q596.5625,180.9063 597.25,181.9766 Q597.9375,183.0469 599.2813,183.0469 Q599.9063,183.0469 600.5,182.7734 Q601.0938,182.5 601.7188,181.9219 L601.7188,184.6406 Z "/><text fill="#000000" font-family="sans-serif" font-size="12" lengthAdjust="spacingAndGlyphs" textLength="114" x="619.25" y="183.1543">CFilerItemDelegate</text><line style="stroke: #A80036; stroke-width: 1.5;" x1="282.5" x2="1037.5" y1="195" y2="195"/><line style="stroke: #A80036; stroke-width: 1.5;" x1="282.5" x2="1037.5" y1="203" y2="203"/><ellipse cx="292.5" cy="214" fill="#84BE84" rx="3" ry="3" style="stroke: #038048; stroke-width: 1.0;"/><text fill="#000000" font-family="sans-serif" font-size="11" font-style="italic" lengthAdjust="spacingAndGlyphs" textLength="731" x="301.5" y="217.2104">virtual QWidget* createEditor(QWidget *parent, const QStyleOptionViewItem &amp;option, const QModelIndex &amp;index) const override</text><!--MD5=[9cc6fa1b60865e567991154c929978ed]
reverse link QStyledItemDelegate to CFilerItemDelegate--><path d="M1957.4746,301.8638 C1873.8465,284.8577 1769.2957,265.5841 1675,254 C1465.404,228.2514 1230.0595,213.3562 1038.7966,204.7934 " fill="none" id="QStyledItemDelegate&lt;-CFilerItemDelegate" style="stroke: #A80036; stroke-width: 1.0;"/><polygon fill="none" points="1958.9835,295.0275,1977.1681,305.905,1956.1692,308.7417,1958.9835,295.0275" style="stroke: #A80036; stroke-width: 1.0;"/><text fill="#000000" font-family="sans-serif" font-size="13" lengthAdjust="spacingAndGlyphs" textLength="52" x="1785" y="267.0669">extends</text><!--MD5=[91f437175228a50006669491c4bec69e]
reverse link QTreeView to CFiltersView--><path d="M1265.2311,298.2848 C1256.1798,290.5802 1245.8849,283.4796 1235,279 C1035.1395,196.7491 478.8479,247.448 264,224 C217.817,218.9597 165.6992,210.2649 128.0718,203.4453 " fill="none" id="QTreeView&lt;-CFiltersView" style="stroke: #A80036; stroke-width: 1.0;"/><polygon fill="none" points="1270.372,293.5138,1280.039,312.3699,1260.7232,303.6579,1270.372,293.5138" style="stroke: #A80036; stroke-width: 1.0;"/><text fill="#000000" font-family="sans-serif" font-size="13" lengthAdjust="spacingAndGlyphs" textLength="52" x="1210" y="267.0669">extends</text><!--MD5=[d9a98a4758c13831f08c2fc7b5511c28]
reverse link QAbstractItemModel to CFiltersModel--><path d="M1070.9915,368.4354 C1065.2839,370.7577 1059.5691,372.9781 1054,375 C984.0128,400.4093 906.665,424.0054 835.4717,443.9916 " fill="none" id="QAbstractItemModel&lt;-CFiltersModel" style="stroke: #A80036; stroke-width: 1.0;"/><polygon fill="none" points="1068.4258,361.9199,1089.5706,360.5426,1073.8998,374.8054,1068.4258,361.9199" style="stroke: #A80036; stroke-width: 1.0;"/><text fill="#000000" font-family="sans-serif" font-size="13" lengthAdjust="spacingAndGlyphs" textLength="52" x="980" y="410.0669">extends</text><!--MD5=[4e2ce4846c304987ce26026b4c2903a2]
reverse link Form to CFiltersView--><path d="M76,94.275 C76,118.1314 76,148.3965 76,169.1924 " fill="none" id="Form&lt;-CFiltersView" style="stroke: #A80036; stroke-width: 1.0;"/><polygon fill="#A80036" points="76,81.0892,72,87.0892,76,93.0892,80,87.0892,76,81.0892" style="stroke: #A80036; stroke-width: 1.0;"/><text fill="#000000" font-family="sans-serif" font-size="13" lengthAdjust="spacingAndGlyphs" textLength="55" x="77" y="124.0669">contains</text><text fill="#000000" font-family="sans-serif" font-size="13" lengthAdjust="spacingAndGlyphs" textLength="8" x="67.025" y="100.8721">1</text><text fill="#000000" font-family="sans-serif" font-size="13" lengthAdjust="spacingAndGlyphs" textLength="8" x="67.025" y="158.5224">1</text><!--MD5=[52d7a57cbb0563a4d202682854627b45]
reverse link CDLTMessageAnalyzer to CFiltersModel--><path d="M320.9009,58.8916 C735.6271,68.0438 2360.6731,114.2664 2510,279 C2538.6554,310.6119 2539.1215,343.8169 2510,375 C2460.3568,428.1576 1590.1298,469.8215 1038.1511,491.0465 " fill="none" id="CDLTMessageAnalyzer&lt;-CFiltersModel" style="stroke: #A80036; stroke-width: 1.0;"/><polygon fill="#A80036" points="307.8222,58.6065,313.7336,62.7364,319.8193,58.8681,313.908,54.7383,307.8222,58.6065" style="stroke: #A80036; stroke-width: 1.0;"/><text fill="#000000" font-family="sans-serif" font-size="13" lengthAdjust="spacingAndGlyphs" textLength="55" x="2501" y="267.0669">contains</text><text fill="#000000" font-family="sans-serif" font-size="13" lengthAdjust="spacingAndGlyphs" textLength="8" x="315.5548" y="55.1544">1</text><text fill="#000000" font-family="sans-serif" font-size="13" lengthAdjust="spacingAndGlyphs" textLength="8" x="1045.9396" y="487.7215">1</text><!--MD5=[a822d91dbd48f3714e5f76e59a3b9ede]
reverse link CFiltersView to CFilerItemDelegate--><path d="M141.0893,193.5 C177.9794,193.5 227.4516,193.5 281.2443,193.5 " fill="none" id="CFiltersView&lt;-CFilerItemDelegate" style="stroke: #A80036; stroke-width: 1.0;"/><polygon fill="#A80036" points="128.0828,193.5,134.0828,197.5,140.0828,193.5,134.0828,189.5,128.0828,193.5" style="stroke: #A80036; stroke-width: 1.0;"/><text fill="#000000" font-family="sans-serif" font-size="13" lengthAdjust="spacingAndGlyphs" textLength="117" x="146.25" y="186.5669">contains and uses</text><text fill="#000000" font-family="sans-serif" font-size="13" lengthAdjust="spacingAndGlyphs" textLength="8" x="135.9694" y="189.5215">1</text><text fill="#000000" font-family="sans-serif" font-size="13" lengthAdjust="spacingAndGlyphs" textLength="8" x="265.4696" y="190.4179">1</text><!--MD5=[c3f13ee7a56d1b917eccb27b67439afd]
reverse link CFilerItemDelegate to QCompleter--><path d="M1051.5903,208.5514 C1221.2711,217.9235 1399.3671,232.4134 1480,254 C1527.7611,266.7863 1578.2603,292.9128 1611.8915,312.3566 " fill="none" id="CFilerItemDelegate&lt;-QCompleter" style="stroke: #A80036; stroke-width: 1.0;"/><polygon fill="#A80036" points="1038.6084,207.8434,1044.3816,212.1642,1050.5906,208.4969,1044.8173,204.1761,1038.6084,207.8434" style="stroke: #A80036; stroke-width: 1.0;"/><text fill="#000000" font-family="sans-serif" font-size="13" lengthAdjust="spacingAndGlyphs" textLength="136" x="1530" y="267.0669">creates and provides</text><text fill="#000000" font-family="sans-serif" font-size="13" lengthAdjust="spacingAndGlyphs" textLength="8" x="1046.3801" y="205.0526">1</text><text fill="#000000" font-family="sans-serif" font-size="13" lengthAdjust="spacingAndGlyphs" textLength="8" x="1592.8449" y="301.3319">1</text><!--MD5=[7c39e4d0e2d6192bcda0a25794c72997]
link QLineEdit to QCompleter--><path d="M1473.1274,336.5 C1505.5156,336.5 1549.6514,336.5 1585.8548,336.5 " fill="none" id="QLineEdit-&gt;QCompleter" style="stroke: #A80036; stroke-width: 1.0;"/><polygon fill="#A80036" points="1599.3007,336.5,1593.3007,332.5,1587.3007,336.5,1593.3007,340.5,1599.3007,336.5" style="stroke: #A80036; stroke-width: 1.0;"/><text fill="#000000" font-family="sans-serif" font-size="13" lengthAdjust="spacingAndGlyphs" textLength="90" x="1491.25" y="329.5669">gets and uses</text><text fill="#000000" font-family="sans-serif" font-size="13" lengthAdjust="spacingAndGlyphs" textLength="8" x="1480.9571" y="332.3822">1</text><text fill="#000000" font-family="sans-serif" font-size="13" lengthAdjust="spacingAndGlyphs" textLength="8" x="1583.468" y="332.5215">1</text><!--MD5=[436586b37916b5341a0955f9ce6a58a0]
reverse link CDLTMessageAnalyzer to CFiltersView--><path d="M188.9445,90.0307 C162.2014,114.5302 126.3546,147.3697 102.2825,169.4224 " fill="none" id="CDLTMessageAnalyzer&lt;-CFiltersView" style="stroke: #A80036; stroke-width: 1.0;"/><polygon fill="#FFFFFF" points="198.7048,81.0892,191.5786,82.1928,189.8565,89.1952,196.9827,88.0916,198.7048,81.0892" style="stroke: #A80036; stroke-width: 1.0;"/><text fill="#000000" font-family="sans-serif" font-size="13" lengthAdjust="spacingAndGlyphs" textLength="30" x="164" y="124.0669">uses</text><text fill="#000000" font-family="sans-serif" font-size="13" lengthAdjust="spacingAndGlyphs" textLength="8" x="183.3203" y="100.8721">1</text><text fill="#000000" font-family="sans-serif" font-size="13" lengthAdjust="spacingAndGlyphs" textLength="8" x="99.9924" y="158.4146">1</text><!--MD5=[7b67f54178dd1fa77d478a9e9f0cd78b]
reverse link CFiltersView to CFiltersModel--><path d="M126.5846,224.3635 C209.9066,275.2013 377.6165,377.5272 486.5135,443.9692 " fill="none" id="CFiltersView&lt;-CFiltersModel" style="stroke: #A80036; stroke-width: 1.0;"/><polygon fill="#FFFFFF" points="115.4024,217.5409,118.4409,224.0806,125.6462,223.7911,122.6077,217.2514,115.4024,217.5409" style="stroke: #A80036; stroke-width: 1.0;"/><text fill="#000000" font-family="sans-serif" font-size="13" lengthAdjust="spacingAndGlyphs" textLength="30" x="367" y="341.0669">uses</text><text fill="#000000" font-family="sans-serif" font-size="13" lengthAdjust="spacingAndGlyphs" textLength="8" x="116.4743" y="237.7072">1</text><text fill="#000000" font-family="sans-serif" font-size="13" lengthAdjust="spacingAndGlyphs" textLength="8" x="466.201" y="432.9564">1</text><!--MD5=[caf6baa4c223f70d6bce35f936a9b758]
reverse link CFilerItemDelegate to CFiltersModel--><path d="M650.1629,236.8665 C637.9853,290.5509 617.1543,382.383 603.2334,443.7529 " fill="none" id="CFilerItemDelegate&lt;-CFiltersModel" style="stroke: #A80036; stroke-width: 1.0;"/><polygon fill="#FFFFFF" points="653.0629,224.0817,647.8347,229.0482,650.4083,235.7844,655.6365,230.8179,653.0629,224.0817" style="stroke: #A80036; stroke-width: 1.0;"/><text fill="#000000" font-family="sans-serif" font-size="13" lengthAdjust="spacingAndGlyphs" textLength="30" x="641" y="341.0669">uses</text><text fill="#000000" font-family="sans-serif" font-size="13" lengthAdjust="spacingAndGlyphs" textLength="8" x="642.8071" y="244.0368">1</text><text fill="#000000" font-family="sans-serif" font-size="13" lengthAdjust="spacingAndGlyphs" textLength="8" x="596.4166" y="432.7151">1</text><!--MD5=[aa7d35fc9c2e328699d7253addd8576c]
reverse link CFilerItemDelegate to QLineEdit--><path d="M1051.9073,220.1634 C1181.4337,233.4338 1307.185,252.4683 1365,279 C1381.5542,286.5968 1396.7444,300.1675 1408.0598,312.2177 " fill="none" id="CFilerItemDelegate&lt;-QLineEdit" style="stroke: #A80036; stroke-width: 1.0;"/><polygon fill="#FFFFFF" points="1038.9576,218.8568,1044.5257,223.439,1050.897,220.0615,1045.3289,215.4794,1038.9576,218.8568" style="stroke: #A80036; stroke-width: 1.0;"/><text fill="#000000" font-family="sans-serif" font-size="13" lengthAdjust="spacingAndGlyphs" textLength="136" x="1335" y="267.0669">creates and provides</text><text fill="#000000" font-family="sans-serif" font-size="13" lengthAdjust="spacingAndGlyphs" textLength="8" x="1046.7364" y="216.2897">1</text><text fill="#000000" font-family="sans-serif" font-size="13" lengthAdjust="spacingAndGlyphs" textLength="8" x="1394.2244" y="301.5538">1</text><!--MD5=[407d96980be8427f7d7b7af245fa52ea]
@startuml
'left to right direction

'QT's classes
package "Qt" #DDDDDD 
{
    class QCompleter
    class QLineEdit
    
    class QStyledItemDelegate
    {
        +{abstract} virtual QWidget* createEditor(QWidget *parent, const QStyleOptionViewItem &option, const QModelIndex &index) const override
    }
    
    class QTreeView
    class QAbstractItemModel
}

'Plugin's classes
package "DMA base" #DDDDDD 
{
    class Form
    class CDLTMessageAnalyzer{}
}

package "DMA filters view" #DDDDDD 
{
    class CFiltersModel
    {
        - -public API- -
        +void addCompletionData( const tFoundMatches& )
        +void resetCompletionData()
        +QStringList getCompletionData( const int& groupIndex, const QString& input, const int& maxNumberOfSuggestions, const int& maxLengthOfSuggestions )
        - -signals- -
        +void completionDataChanged();
    }
    
    class CFiltersView {} 
    
    class CFilerItemDelegate
    {
        +{abstract} virtual QWidget* createEditor(QWidget *parent, const QStyleOptionViewItem &option, const QModelIndex &index) const override
    }
}

'Inheritance section
QStyledItemDelegate <|- - CFilerItemDelegate : extends
QTreeView <|- - CFiltersView : extends
QAbstractItemModel <|- - CFiltersModel : extends

'Composition section
Form "1" *- - "1" CFiltersView : contains
CDLTMessageAnalyzer "1" *- - - "1" CFiltersModel : contains
CFiltersView "1" *- "1" CFilerItemDelegate : contains and uses
CFilerItemDelegate "1" *- - "1" QCompleter : creates and provides
QLineEdit "1" -* "1" QCompleter : gets and uses

'Agregation section
CDLTMessageAnalyzer "1" o- - "1" CFiltersView : uses
CFiltersView "1" o- - "1" CFiltersModel : uses
CFilerItemDelegate "1" o- - "1" CFiltersModel : uses
CFilerItemDelegate "1" o- - "1" QLineEdit : creates and provides
@enduml

@startuml

package "Qt" #DDDDDD 
{
    class QCompleter
    class QLineEdit
    
    class QStyledItemDelegate
    {
        +{abstract} virtual QWidget* createEditor(QWidget *parent, const QStyleOptionViewItem &option, const QModelIndex &index) const override
    }
    
    class QTreeView
    class QAbstractItemModel
}

package "DMA base" #DDDDDD 
{
    class Form
    class CDLTMessageAnalyzer{}
}

package "DMA filters view" #DDDDDD 
{
    class CFiltersModel
    {
        - -public API- -
        +void addCompletionData( const tFoundMatches& )
        +void resetCompletionData()
        +QStringList getCompletionData( const int& groupIndex, const QString& input, const int& maxNumberOfSuggestions, const int& maxLengthOfSuggestions )
        - -signals- -
        +void completionDataChanged();
    }
    
    class CFiltersView {} 
    
    class CFilerItemDelegate
    {
        +{abstract} virtual QWidget* createEditor(QWidget *parent, const QStyleOptionViewItem &option, const QModelIndex &index) const override
    }
}

QStyledItemDelegate <|- - CFilerItemDelegate : extends
QTreeView <|- - CFiltersView : extends
QAbstractItemModel <|- - CFiltersModel : extends

Form "1" *- - "1" CFiltersView : contains
CDLTMessageAnalyzer "1" *- - - "1" CFiltersModel : contains
CFiltersView "1" *- "1" CFilerItemDelegate : contains and uses
CFilerItemDelegate "1" *- - "1" QCompleter : creates and provides
QLineEdit "1" -* "1" QCompleter : gets and uses

CDLTMessageAnalyzer "1" o- - "1" CFiltersView : uses
CFiltersView "1" o- - "1" CFiltersModel : uses
CFilerItemDelegate "1" o- - "1" CFiltersModel : uses
CFilerItemDelegate "1" o- - "1" QLineEdit : creates and provides
@enduml

PlantUML version 1.2020.15(Sun Jun 28 11:39:45 UTC 2020)
(GPL source distribution)
Java Runtime: OpenJDK Runtime Environment
JVM: OpenJDK 64-Bit Server VM
Default Encoding: UTF-8
Language: en
Country: US
--></g></svg>