<?xml version="1.0" encoding="UTF-8" standalone="no"?><svg xmlns="http://www.w3.org/2000/svg" xmlns:xlink="http://www.w3.org/1999/xlink" contentScriptType="application/ecmascript" contentStyleType="text/css" height="533px" preserveAspectRatio="none" style="width:2403px;height:533px;" version="1.1" viewBox="0 0 2403 533" width="2403px" zoomAndPan="magnify"><defs><filter height="300%" id="f1y0kpnv98v8n5" width="300%" x="-1" y="-1"><feGaussianBlur result="blurOut" stdDeviation="2.0"/><feColorMatrix in="blurOut" result="blurOut2" type="matrix" values="0 0 0 0 0 0 0 0 0 0 0 0 0 0 0 0 0 0 .4 0"/><feOffset dx="4.0" dy="4.0" in="blurOut2" result="blurOut3"/><feBlend in="SourceGraphic" in2="blurOut3" mode="normal"/></filter></defs><g><!--MD5=[0aca3eaa01c17ff0039911bbeeabf854]
cluster Qt--><polygon fill="#DDDDDD" filter="url(#f1y0kpnv98v8n5)" points="16,176,38,176,45,199.6094,1349,199.6094,1349,310,16,310,16,176" style="stroke: #000000; stroke-width: 1.5;"/><line style="stroke: #000000; stroke-width: 1.5;" x1="16" x2="45" y1="199.6094" y2="199.6094"/><text fill="#000000" font-family="sans-serif" font-size="14" font-weight="bold" lengthAdjust="spacingAndGlyphs" textLength="16" x="20" y="192.5332">Qt</text><!--MD5=[6deb9d1b22e2ad90d4c0388f2bbfb1d2]
cluster DMA base--><polygon fill="#DDDDDD" filter="url(#f1y0kpnv98v8n5)" points="1550,6,1626,6,1633,29.6094,1839,29.6094,1839,126,1550,126,1550,6" style="stroke: #000000; stroke-width: 1.5;"/><line style="stroke: #000000; stroke-width: 1.5;" x1="1550" x2="1633" y1="29.6094" y2="29.6094"/><text fill="#000000" font-family="sans-serif" font-size="14" font-weight="bold" lengthAdjust="spacingAndGlyphs" textLength="70" x="1554" y="22.5332">DMA base</text><!--MD5=[0d5bd6366eeb0254dbafa67def4638a7]
cluster DMA filters view--><polygon fill="#DDDDDD" filter="url(#f1y0kpnv98v8n5)" points="1373,176,1493,176,1500,199.6094,2307,199.6094,2307,521,1373,521,1373,176" style="stroke: #000000; stroke-width: 1.5;"/><line style="stroke: #000000; stroke-width: 1.5;" x1="1373" x2="1500" y1="199.6094" y2="199.6094"/><text fill="#000000" font-family="sans-serif" font-size="14" font-weight="bold" lengthAdjust="spacingAndGlyphs" textLength="114" x="1377" y="192.5332">DMA filters view</text><!--MD5=[ebb47ba14337e5862b0d47cf7066966a]
class QCompleter--><rect fill="#FEFECE" filter="url(#f1y0kpnv98v8n5)" height="48" id="QCompleter" style="stroke: #A80036; stroke-width: 1.5;" width="99" x="1233.5" y="239"/><ellipse cx="1248.5" cy="255" fill="#ADD1B2" rx="11" ry="11" style="stroke: #A80036; stroke-width: 1.0;"/><path d="M1251.2656,250.875 Q1251.4219,250.6563 1251.6094,250.5469 Q1251.7969,250.4375 1252.0156,250.4375 Q1252.3906,250.4375 1252.625,250.6953 Q1252.8594,250.9531 1252.8594,251.5625 L1252.8594,253.0156 Q1252.8594,253.625 1252.625,253.8906 Q1252.3906,254.1563 1252.0156,254.1563 Q1251.6719,254.1563 1251.4688,253.9531 Q1251.2656,253.7656 1251.1563,253.25 Q1251.1094,252.8906 1250.9219,252.7031 Q1250.5938,252.3281 1249.9844,252.1094 Q1249.375,251.8906 1248.75,251.8906 Q1247.9844,251.8906 1247.3516,252.2188 Q1246.7188,252.5469 1246.2266,253.2969 Q1245.7344,254.0469 1245.7344,255.0781 L1245.7344,256.1719 Q1245.7344,257.4063 1246.625,258.2266 Q1247.5156,259.0469 1249.1094,259.0469 Q1250.0469,259.0469 1250.7031,258.7969 Q1251.0938,258.6406 1251.5156,258.2031 Q1251.7813,257.9375 1251.9297,257.8594 Q1252.0781,257.7813 1252.2813,257.7813 Q1252.6094,257.7813 1252.8672,258.0391 Q1253.125,258.2969 1253.125,258.6406 Q1253.125,258.9844 1252.7813,259.3906 Q1252.2813,259.9688 1251.4844,260.2969 Q1250.4063,260.75 1249.1094,260.75 Q1247.5938,260.75 1246.3906,260.125 Q1245.4063,259.625 1244.7188,258.5547 Q1244.0313,257.4844 1244.0313,256.2031 L1244.0313,255.0469 Q1244.0313,253.7188 1244.6484,252.5703 Q1245.2656,251.4219 1246.3594,250.8047 Q1247.4531,250.1875 1248.6875,250.1875 Q1249.4219,250.1875 1250.0703,250.3516 Q1250.7188,250.5156 1251.2656,250.875 Z "/><text fill="#000000" font-family="sans-serif" font-size="12" lengthAdjust="spacingAndGlyphs" textLength="67" x="1262.5" y="259.9102">QCompleter</text><line style="stroke: #A80036; stroke-width: 1.5;" x1="1234.5" x2="1331.5" y1="271" y2="271"/><line style="stroke: #A80036; stroke-width: 1.5;" x1="1234.5" x2="1331.5" y1="279" y2="279"/><!--MD5=[f36ae8ea345a4117941f01c437b97e47]
class QLineEdit--><rect fill="#FEFECE" filter="url(#f1y0kpnv98v8n5)" height="48" id="QLineEdit" style="stroke: #A80036; stroke-width: 1.5;" width="86" x="1029" y="239"/><ellipse cx="1044" cy="255" fill="#ADD1B2" rx="11" ry="11" style="stroke: #A80036; stroke-width: 1.0;"/><path d="M1046.7656,250.875 Q1046.9219,250.6563 1047.1094,250.5469 Q1047.2969,250.4375 1047.5156,250.4375 Q1047.8906,250.4375 1048.125,250.6953 Q1048.3594,250.9531 1048.3594,251.5625 L1048.3594,253.0156 Q1048.3594,253.625 1048.125,253.8906 Q1047.8906,254.1563 1047.5156,254.1563 Q1047.1719,254.1563 1046.9688,253.9531 Q1046.7656,253.7656 1046.6563,253.25 Q1046.6094,252.8906 1046.4219,252.7031 Q1046.0938,252.3281 1045.4844,252.1094 Q1044.875,251.8906 1044.25,251.8906 Q1043.4844,251.8906 1042.8516,252.2188 Q1042.2188,252.5469 1041.7266,253.2969 Q1041.2344,254.0469 1041.2344,255.0781 L1041.2344,256.1719 Q1041.2344,257.4063 1042.125,258.2266 Q1043.0156,259.0469 1044.6094,259.0469 Q1045.5469,259.0469 1046.2031,258.7969 Q1046.5938,258.6406 1047.0156,258.2031 Q1047.2813,257.9375 1047.4297,257.8594 Q1047.5781,257.7813 1047.7813,257.7813 Q1048.1094,257.7813 1048.3672,258.0391 Q1048.625,258.2969 1048.625,258.6406 Q1048.625,258.9844 1048.2813,259.3906 Q1047.7813,259.9688 1046.9844,260.2969 Q1045.9063,260.75 1044.6094,260.75 Q1043.0938,260.75 1041.8906,260.125 Q1040.9063,259.625 1040.2188,258.5547 Q1039.5313,257.4844 1039.5313,256.2031 L1039.5313,255.0469 Q1039.5313,253.7188 1040.1484,252.5703 Q1040.7656,251.4219 1041.8594,250.8047 Q1042.9531,250.1875 1044.1875,250.1875 Q1044.9219,250.1875 1045.5703,250.3516 Q1046.2188,250.5156 1046.7656,250.875 Z "/><text fill="#000000" font-family="sans-serif" font-size="12" lengthAdjust="spacingAndGlyphs" textLength="54" x="1058" y="259.9102">QLineEdit</text><line style="stroke: #A80036; stroke-width: 1.5;" x1="1030" x2="1114" y1="271" y2="271"/><line style="stroke: #A80036; stroke-width: 1.5;" x1="1030" x2="1114" y1="279" y2="279"/><!--MD5=[a1b8e256eada155e9f3de67feb3af130]
class QStyledItemDelegate--><rect fill="#FEFECE" filter="url(#f1y0kpnv98v8n5)" height="61.8359" id="QStyledItemDelegate" style="stroke: #A80036; stroke-width: 1.5;" width="658" x="336" y="232"/><ellipse cx="602.75" cy="248" fill="#ADD1B2" rx="11" ry="11" style="stroke: #A80036; stroke-width: 1.0;"/><path d="M605.5156,243.875 Q605.6719,243.6563 605.8594,243.5469 Q606.0469,243.4375 606.2656,243.4375 Q606.6406,243.4375 606.875,243.6953 Q607.1094,243.9531 607.1094,244.5625 L607.1094,246.0156 Q607.1094,246.625 606.875,246.8906 Q606.6406,247.1563 606.2656,247.1563 Q605.9219,247.1563 605.7188,246.9531 Q605.5156,246.7656 605.4063,246.25 Q605.3594,245.8906 605.1719,245.7031 Q604.8438,245.3281 604.2344,245.1094 Q603.625,244.8906 603,244.8906 Q602.2344,244.8906 601.6016,245.2188 Q600.9688,245.5469 600.4766,246.2969 Q599.9844,247.0469 599.9844,248.0781 L599.9844,249.1719 Q599.9844,250.4063 600.875,251.2266 Q601.7656,252.0469 603.3594,252.0469 Q604.2969,252.0469 604.9531,251.7969 Q605.3438,251.6406 605.7656,251.2031 Q606.0313,250.9375 606.1797,250.8594 Q606.3281,250.7813 606.5313,250.7813 Q606.8594,250.7813 607.1172,251.0391 Q607.375,251.2969 607.375,251.6406 Q607.375,251.9844 607.0313,252.3906 Q606.5313,252.9688 605.7344,253.2969 Q604.6563,253.75 603.3594,253.75 Q601.8438,253.75 600.6406,253.125 Q599.6563,252.625 598.9688,251.5547 Q598.2813,250.4844 598.2813,249.2031 L598.2813,248.0469 Q598.2813,246.7188 598.8984,245.5703 Q599.5156,244.4219 600.6094,243.8047 Q601.7031,243.1875 602.9375,243.1875 Q603.6719,243.1875 604.3203,243.3516 Q604.9688,243.5156 605.5156,243.875 Z "/><text fill="#000000" font-family="sans-serif" font-size="12" lengthAdjust="spacingAndGlyphs" textLength="116" x="623.25" y="252.9102">QStyledItemDelegate</text><line style="stroke: #A80036; stroke-width: 1.5;" x1="337" x2="993" y1="264" y2="264"/><line style="stroke: #A80036; stroke-width: 1.5;" x1="337" x2="993" y1="272" y2="272"/><ellipse cx="347" cy="283" fill="#84BE84" rx="3" ry="3" style="stroke: #038048; stroke-width: 1.0;"/><text fill="#000000" font-family="sans-serif" font-size="11" font-style="italic" lengthAdjust="spacingAndGlyphs" textLength="632" x="356" y="287.4189">virtual QWidget* createEditor(QWidget *parent, const QStyleOptionViewItem &amp;option, const QModelIndex &amp;index) const override</text><!--MD5=[007a283508746e6e6a7bb2028196e9c2]
class QTreeView--><rect fill="#FEFECE" filter="url(#f1y0kpnv98v8n5)" height="48" id="QTreeView" style="stroke: #A80036; stroke-width: 1.5;" width="92" x="209" y="239"/><ellipse cx="224" cy="255" fill="#ADD1B2" rx="11" ry="11" style="stroke: #A80036; stroke-width: 1.0;"/><path d="M226.7656,250.875 Q226.9219,250.6563 227.1094,250.5469 Q227.2969,250.4375 227.5156,250.4375 Q227.8906,250.4375 228.125,250.6953 Q228.3594,250.9531 228.3594,251.5625 L228.3594,253.0156 Q228.3594,253.625 228.125,253.8906 Q227.8906,254.1563 227.5156,254.1563 Q227.1719,254.1563 226.9688,253.9531 Q226.7656,253.7656 226.6563,253.25 Q226.6094,252.8906 226.4219,252.7031 Q226.0938,252.3281 225.4844,252.1094 Q224.875,251.8906 224.25,251.8906 Q223.4844,251.8906 222.8516,252.2188 Q222.2188,252.5469 221.7266,253.2969 Q221.2344,254.0469 221.2344,255.0781 L221.2344,256.1719 Q221.2344,257.4063 222.125,258.2266 Q223.0156,259.0469 224.6094,259.0469 Q225.5469,259.0469 226.2031,258.7969 Q226.5938,258.6406 227.0156,258.2031 Q227.2813,257.9375 227.4297,257.8594 Q227.5781,257.7813 227.7813,257.7813 Q228.1094,257.7813 228.3672,258.0391 Q228.625,258.2969 228.625,258.6406 Q228.625,258.9844 228.2813,259.3906 Q227.7813,259.9688 226.9844,260.2969 Q225.9063,260.75 224.6094,260.75 Q223.0938,260.75 221.8906,260.125 Q220.9063,259.625 220.2188,258.5547 Q219.5313,257.4844 219.5313,256.2031 L219.5313,255.0469 Q219.5313,253.7188 220.1484,252.5703 Q220.7656,251.4219 221.8594,250.8047 Q222.9531,250.1875 224.1875,250.1875 Q224.9219,250.1875 225.5703,250.3516 Q226.2188,250.5156 226.7656,250.875 Z "/><text fill="#000000" font-family="sans-serif" font-size="12" lengthAdjust="spacingAndGlyphs" textLength="60" x="238" y="259.9102">QTreeView</text><line style="stroke: #A80036; stroke-width: 1.5;" x1="210" x2="300" y1="271" y2="271"/><line style="stroke: #A80036; stroke-width: 1.5;" x1="210" x2="300" y1="279" y2="279"/><!--MD5=[35e9c7902161cafacac039b0d5f87024]
class QAbstractItemModel--><rect fill="#FEFECE" filter="url(#f1y0kpnv98v8n5)" height="48" id="QAbstractItemModel" style="stroke: #A80036; stroke-width: 1.5;" width="142" x="32" y="239"/><ellipse cx="47" cy="255" fill="#ADD1B2" rx="11" ry="11" style="stroke: #A80036; stroke-width: 1.0;"/><path d="M49.7656,250.875 Q49.9219,250.6563 50.1094,250.5469 Q50.2969,250.4375 50.5156,250.4375 Q50.8906,250.4375 51.125,250.6953 Q51.3594,250.9531 51.3594,251.5625 L51.3594,253.0156 Q51.3594,253.625 51.125,253.8906 Q50.8906,254.1563 50.5156,254.1563 Q50.1719,254.1563 49.9688,253.9531 Q49.7656,253.7656 49.6563,253.25 Q49.6094,252.8906 49.4219,252.7031 Q49.0938,252.3281 48.4844,252.1094 Q47.875,251.8906 47.25,251.8906 Q46.4844,251.8906 45.8516,252.2188 Q45.2188,252.5469 44.7266,253.2969 Q44.2344,254.0469 44.2344,255.0781 L44.2344,256.1719 Q44.2344,257.4063 45.125,258.2266 Q46.0156,259.0469 47.6094,259.0469 Q48.5469,259.0469 49.2031,258.7969 Q49.5938,258.6406 50.0156,258.2031 Q50.2813,257.9375 50.4297,257.8594 Q50.5781,257.7813 50.7813,257.7813 Q51.1094,257.7813 51.3672,258.0391 Q51.625,258.2969 51.625,258.6406 Q51.625,258.9844 51.2813,259.3906 Q50.7813,259.9688 49.9844,260.2969 Q48.9063,260.75 47.6094,260.75 Q46.0938,260.75 44.8906,260.125 Q43.9063,259.625 43.2188,258.5547 Q42.5313,257.4844 42.5313,256.2031 L42.5313,255.0469 Q42.5313,253.7188 43.1484,252.5703 Q43.7656,251.4219 44.8594,250.8047 Q45.9531,250.1875 47.1875,250.1875 Q47.9219,250.1875 48.5703,250.3516 Q49.2188,250.5156 49.7656,250.875 Z "/><text fill="#000000" font-family="sans-serif" font-size="12" lengthAdjust="spacingAndGlyphs" textLength="110" x="61" y="259.9102">QAbstractItemModel</text><line style="stroke: #A80036; stroke-width: 1.5;" x1="33" x2="173" y1="271" y2="271"/><line style="stroke: #A80036; stroke-width: 1.5;" x1="33" x2="173" y1="279" y2="279"/><!--MD5=[6f29f313cd4199edbf91b9ce3a4faa98]
class Form--><rect fill="#FEFECE" filter="url(#f1y0kpnv98v8n5)" height="48" id="Form" style="stroke: #A80036; stroke-width: 1.5;" width="61" x="1566.5" y="62"/><ellipse cx="1581.5" cy="78" fill="#ADD1B2" rx="11" ry="11" style="stroke: #A80036; stroke-width: 1.0;"/><path d="M1584.2656,73.875 Q1584.4219,73.6563 1584.6094,73.5469 Q1584.7969,73.4375 1585.0156,73.4375 Q1585.3906,73.4375 1585.625,73.6953 Q1585.8594,73.9531 1585.8594,74.5625 L1585.8594,76.0156 Q1585.8594,76.625 1585.625,76.8906 Q1585.3906,77.1563 1585.0156,77.1563 Q1584.6719,77.1563 1584.4688,76.9531 Q1584.2656,76.7656 1584.1563,76.25 Q1584.1094,75.8906 1583.9219,75.7031 Q1583.5938,75.3281 1582.9844,75.1094 Q1582.375,74.8906 1581.75,74.8906 Q1580.9844,74.8906 1580.3516,75.2188 Q1579.7188,75.5469 1579.2266,76.2969 Q1578.7344,77.0469 1578.7344,78.0781 L1578.7344,79.1719 Q1578.7344,80.4063 1579.625,81.2266 Q1580.5156,82.0469 1582.1094,82.0469 Q1583.0469,82.0469 1583.7031,81.7969 Q1584.0938,81.6406 1584.5156,81.2031 Q1584.7813,80.9375 1584.9297,80.8594 Q1585.0781,80.7813 1585.2813,80.7813 Q1585.6094,80.7813 1585.8672,81.0391 Q1586.125,81.2969 1586.125,81.6406 Q1586.125,81.9844 1585.7813,82.3906 Q1585.2813,82.9688 1584.4844,83.2969 Q1583.4063,83.75 1582.1094,83.75 Q1580.5938,83.75 1579.3906,83.125 Q1578.4063,82.625 1577.7188,81.5547 Q1577.0313,80.4844 1577.0313,79.2031 L1577.0313,78.0469 Q1577.0313,76.7188 1577.6484,75.5703 Q1578.2656,74.4219 1579.3594,73.8047 Q1580.4531,73.1875 1581.6875,73.1875 Q1582.4219,73.1875 1583.0703,73.3516 Q1583.7188,73.5156 1584.2656,73.875 Z "/><text fill="#000000" font-family="sans-serif" font-size="12" lengthAdjust="spacingAndGlyphs" textLength="29" x="1595.5" y="82.9102">Form</text><line style="stroke: #A80036; stroke-width: 1.5;" x1="1567.5" x2="1626.5" y1="94" y2="94"/><line style="stroke: #A80036; stroke-width: 1.5;" x1="1567.5" x2="1626.5" y1="102" y2="102"/><!--MD5=[65cf5b7ad40f1b0ece06d7cb106e6435]
class CDLTMessageAnalyzer--><rect fill="#FEFECE" filter="url(#f1y0kpnv98v8n5)" height="48" id="CDLTMessageAnalyzer" style="stroke: #A80036; stroke-width: 1.5;" width="160" x="1663" y="62"/><ellipse cx="1678" cy="78" fill="#ADD1B2" rx="11" ry="11" style="stroke: #A80036; stroke-width: 1.0;"/><path d="M1680.7656,73.875 Q1680.9219,73.6563 1681.1094,73.5469 Q1681.2969,73.4375 1681.5156,73.4375 Q1681.8906,73.4375 1682.125,73.6953 Q1682.3594,73.9531 1682.3594,74.5625 L1682.3594,76.0156 Q1682.3594,76.625 1682.125,76.8906 Q1681.8906,77.1563 1681.5156,77.1563 Q1681.1719,77.1563 1680.9688,76.9531 Q1680.7656,76.7656 1680.6563,76.25 Q1680.6094,75.8906 1680.4219,75.7031 Q1680.0938,75.3281 1679.4844,75.1094 Q1678.875,74.8906 1678.25,74.8906 Q1677.4844,74.8906 1676.8516,75.2188 Q1676.2188,75.5469 1675.7266,76.2969 Q1675.2344,77.0469 1675.2344,78.0781 L1675.2344,79.1719 Q1675.2344,80.4063 1676.125,81.2266 Q1677.0156,82.0469 1678.6094,82.0469 Q1679.5469,82.0469 1680.2031,81.7969 Q1680.5938,81.6406 1681.0156,81.2031 Q1681.2813,80.9375 1681.4297,80.8594 Q1681.5781,80.7813 1681.7813,80.7813 Q1682.1094,80.7813 1682.3672,81.0391 Q1682.625,81.2969 1682.625,81.6406 Q1682.625,81.9844 1682.2813,82.3906 Q1681.7813,82.9688 1680.9844,83.2969 Q1679.9063,83.75 1678.6094,83.75 Q1677.0938,83.75 1675.8906,83.125 Q1674.9063,82.625 1674.2188,81.5547 Q1673.5313,80.4844 1673.5313,79.2031 L1673.5313,78.0469 Q1673.5313,76.7188 1674.1484,75.5703 Q1674.7656,74.4219 1675.8594,73.8047 Q1676.9531,73.1875 1678.1875,73.1875 Q1678.9219,73.1875 1679.5703,73.3516 Q1680.2188,73.5156 1680.7656,73.875 Z "/><text fill="#000000" font-family="sans-serif" font-size="12" lengthAdjust="spacingAndGlyphs" textLength="128" x="1692" y="82.9102">CDLTMessageAnalyzer</text><line style="stroke: #A80036; stroke-width: 1.5;" x1="1664" x2="1822" y1="94" y2="94"/><line style="stroke: #A80036; stroke-width: 1.5;" x1="1664" x2="1822" y1="102" y2="102"/><!--MD5=[0c9b77897403f0870879dbee50845d1f]
class CFiltersModel--><rect fill="#FEFECE" filter="url(#f1y0kpnv98v8n5)" height="131.0156" id="CFiltersModel" style="stroke: #A80036; stroke-width: 1.5;" width="658" x="1389" y="374"/><ellipse cx="1675.75" cy="390" fill="#ADD1B2" rx="11" ry="11" style="stroke: #A80036; stroke-width: 1.0;"/><path d="M1678.5156,385.875 Q1678.6719,385.6563 1678.8594,385.5469 Q1679.0469,385.4375 1679.2656,385.4375 Q1679.6406,385.4375 1679.875,385.6953 Q1680.1094,385.9531 1680.1094,386.5625 L1680.1094,388.0156 Q1680.1094,388.625 1679.875,388.8906 Q1679.6406,389.1563 1679.2656,389.1563 Q1678.9219,389.1563 1678.7188,388.9531 Q1678.5156,388.7656 1678.4063,388.25 Q1678.3594,387.8906 1678.1719,387.7031 Q1677.8438,387.3281 1677.2344,387.1094 Q1676.625,386.8906 1676,386.8906 Q1675.2344,386.8906 1674.6016,387.2188 Q1673.9688,387.5469 1673.4766,388.2969 Q1672.9844,389.0469 1672.9844,390.0781 L1672.9844,391.1719 Q1672.9844,392.4063 1673.875,393.2266 Q1674.7656,394.0469 1676.3594,394.0469 Q1677.2969,394.0469 1677.9531,393.7969 Q1678.3438,393.6406 1678.7656,393.2031 Q1679.0313,392.9375 1679.1797,392.8594 Q1679.3281,392.7813 1679.5313,392.7813 Q1679.8594,392.7813 1680.1172,393.0391 Q1680.375,393.2969 1680.375,393.6406 Q1680.375,393.9844 1680.0313,394.3906 Q1679.5313,394.9688 1678.7344,395.2969 Q1677.6563,395.75 1676.3594,395.75 Q1674.8438,395.75 1673.6406,395.125 Q1672.6563,394.625 1671.9688,393.5547 Q1671.2813,392.4844 1671.2813,391.2031 L1671.2813,390.0469 Q1671.2813,388.7188 1671.8984,387.5703 Q1672.5156,386.4219 1673.6094,385.8047 Q1674.7031,385.1875 1675.9375,385.1875 Q1676.6719,385.1875 1677.3203,385.3516 Q1677.9688,385.5156 1678.5156,385.875 Z "/><text fill="#000000" font-family="sans-serif" font-size="12" lengthAdjust="spacingAndGlyphs" textLength="76" x="1696.25" y="394.9102">CFiltersModel</text><line style="stroke: #A80036; stroke-width: 1.5;" x1="1390" x2="2046" y1="406" y2="406"/><ellipse cx="1400" cy="434.8359" fill="#84BE84" rx="3" ry="3" style="stroke: #038048; stroke-width: 1.0;"/><text fill="#000000" font-family="sans-serif" font-size="11" lengthAdjust="spacingAndGlyphs" textLength="240" x="1409" y="439.2549">void addCompletionData( const tFoundMatches&amp; )</text><ellipse cx="1400" cy="448.6719" fill="#84BE84" rx="3" ry="3" style="stroke: #038048; stroke-width: 1.0;"/><text fill="#000000" font-family="sans-serif" font-size="11" lengthAdjust="spacingAndGlyphs" textLength="130" x="1409" y="453.0908">void resetCompletionData()</text><ellipse cx="1400" cy="462.5078" fill="#84BE84" rx="3" ry="3" style="stroke: #038048; stroke-width: 1.0;"/><text fill="#000000" font-family="sans-serif" font-size="11" lengthAdjust="spacingAndGlyphs" textLength="632" x="1409" y="466.9268">QStringList getCompletionData( const int&amp; groupIndex, const int&amp; maxNumberOfSuggestions, const int&amp; maxLengthOfSuggestions )</text><line style="stroke: #A80036; stroke-width: 1.0;" x1="1390" x2="1694.5" y1="420.918" y2="420.918"/><text fill="#000000" font-family="sans-serif" font-size="11" lengthAdjust="spacingAndGlyphs" textLength="47" x="1694.5" y="424.9189">public API</text><line style="stroke: #A80036; stroke-width: 1.0;" x1="1741.5" x2="2046" y1="420.918" y2="420.918"/><ellipse cx="1400" cy="494.1797" fill="#84BE84" rx="3" ry="3" style="stroke: #038048; stroke-width: 1.0;"/><text fill="#000000" font-family="sans-serif" font-size="11" lengthAdjust="spacingAndGlyphs" textLength="150" x="1409" y="498.5986">void completionDataChanged();</text><line style="stroke: #A80036; stroke-width: 1.0;" x1="1390" x2="1701" y1="480.2617" y2="480.2617"/><text fill="#000000" font-family="sans-serif" font-size="11" lengthAdjust="spacingAndGlyphs" textLength="34" x="1701" y="484.2627">signals</text><line style="stroke: #A80036; stroke-width: 1.0;" x1="1735" x2="2046" y1="480.2617" y2="480.2617"/><!--MD5=[0ac917dbb3e4cf1e3b4434421290c82a]
class CFiltersView--><rect fill="#FEFECE" filter="url(#f1y0kpnv98v8n5)" height="48" id="CFiltersView" style="stroke: #A80036; stroke-width: 1.5;" width="101" x="1389.5" y="239"/><ellipse cx="1404.5" cy="255" fill="#ADD1B2" rx="11" ry="11" style="stroke: #A80036; stroke-width: 1.0;"/><path d="M1407.2656,250.875 Q1407.4219,250.6563 1407.6094,250.5469 Q1407.7969,250.4375 1408.0156,250.4375 Q1408.3906,250.4375 1408.625,250.6953 Q1408.8594,250.9531 1408.8594,251.5625 L1408.8594,253.0156 Q1408.8594,253.625 1408.625,253.8906 Q1408.3906,254.1563 1408.0156,254.1563 Q1407.6719,254.1563 1407.4688,253.9531 Q1407.2656,253.7656 1407.1563,253.25 Q1407.1094,252.8906 1406.9219,252.7031 Q1406.5938,252.3281 1405.9844,252.1094 Q1405.375,251.8906 1404.75,251.8906 Q1403.9844,251.8906 1403.3516,252.2188 Q1402.7188,252.5469 1402.2266,253.2969 Q1401.7344,254.0469 1401.7344,255.0781 L1401.7344,256.1719 Q1401.7344,257.4063 1402.625,258.2266 Q1403.5156,259.0469 1405.1094,259.0469 Q1406.0469,259.0469 1406.7031,258.7969 Q1407.0938,258.6406 1407.5156,258.2031 Q1407.7813,257.9375 1407.9297,257.8594 Q1408.0781,257.7813 1408.2813,257.7813 Q1408.6094,257.7813 1408.8672,258.0391 Q1409.125,258.2969 1409.125,258.6406 Q1409.125,258.9844 1408.7813,259.3906 Q1408.2813,259.9688 1407.4844,260.2969 Q1406.4063,260.75 1405.1094,260.75 Q1403.5938,260.75 1402.3906,260.125 Q1401.4063,259.625 1400.7188,258.5547 Q1400.0313,257.4844 1400.0313,256.2031 L1400.0313,255.0469 Q1400.0313,253.7188 1400.6484,252.5703 Q1401.2656,251.4219 1402.3594,250.8047 Q1403.4531,250.1875 1404.6875,250.1875 Q1405.4219,250.1875 1406.0703,250.3516 Q1406.7188,250.5156 1407.2656,250.875 Z "/><text fill="#000000" font-family="sans-serif" font-size="12" lengthAdjust="spacingAndGlyphs" textLength="69" x="1418.5" y="259.9102">CFiltersView</text><line style="stroke: #A80036; stroke-width: 1.5;" x1="1390.5" x2="1489.5" y1="271" y2="271"/><line style="stroke: #A80036; stroke-width: 1.5;" x1="1390.5" x2="1489.5" y1="279" y2="279"/><!--MD5=[3d6121710a95e3188943e4099a8c4a40]
class CFilerItemDelegate--><rect fill="#FEFECE" filter="url(#f1y0kpnv98v8n5)" height="61.8359" id="CFilerItemDelegate" style="stroke: #A80036; stroke-width: 1.5;" width="658" x="1633" y="232"/><ellipse cx="1904.25" cy="248" fill="#ADD1B2" rx="11" ry="11" style="stroke: #A80036; stroke-width: 1.0;"/><path d="M1907.0156,243.875 Q1907.1719,243.6563 1907.3594,243.5469 Q1907.5469,243.4375 1907.7656,243.4375 Q1908.1406,243.4375 1908.375,243.6953 Q1908.6094,243.9531 1908.6094,244.5625 L1908.6094,246.0156 Q1908.6094,246.625 1908.375,246.8906 Q1908.1406,247.1563 1907.7656,247.1563 Q1907.4219,247.1563 1907.2188,246.9531 Q1907.0156,246.7656 1906.9063,246.25 Q1906.8594,245.8906 1906.6719,245.7031 Q1906.3438,245.3281 1905.7344,245.1094 Q1905.125,244.8906 1904.5,244.8906 Q1903.7344,244.8906 1903.1016,245.2188 Q1902.4688,245.5469 1901.9766,246.2969 Q1901.4844,247.0469 1901.4844,248.0781 L1901.4844,249.1719 Q1901.4844,250.4063 1902.375,251.2266 Q1903.2656,252.0469 1904.8594,252.0469 Q1905.7969,252.0469 1906.4531,251.7969 Q1906.8438,251.6406 1907.2656,251.2031 Q1907.5313,250.9375 1907.6797,250.8594 Q1907.8281,250.7813 1908.0313,250.7813 Q1908.3594,250.7813 1908.6172,251.0391 Q1908.875,251.2969 1908.875,251.6406 Q1908.875,251.9844 1908.5313,252.3906 Q1908.0313,252.9688 1907.2344,253.2969 Q1906.1563,253.75 1904.8594,253.75 Q1903.3438,253.75 1902.1406,253.125 Q1901.1563,252.625 1900.4688,251.5547 Q1899.7813,250.4844 1899.7813,249.2031 L1899.7813,248.0469 Q1899.7813,246.7188 1900.3984,245.5703 Q1901.0156,244.4219 1902.1094,243.8047 Q1903.2031,243.1875 1904.4375,243.1875 Q1905.1719,243.1875 1905.8203,243.3516 Q1906.4688,243.5156 1907.0156,243.875 Z "/><text fill="#000000" font-family="sans-serif" font-size="12" lengthAdjust="spacingAndGlyphs" textLength="107" x="1924.75" y="252.9102">CFilerItemDelegate</text><line style="stroke: #A80036; stroke-width: 1.5;" x1="1634" x2="2290" y1="264" y2="264"/><line style="stroke: #A80036; stroke-width: 1.5;" x1="1634" x2="2290" y1="272" y2="272"/><ellipse cx="1644" cy="283" fill="#84BE84" rx="3" ry="3" style="stroke: #038048; stroke-width: 1.0;"/><text fill="#000000" font-family="sans-serif" font-size="11" font-style="italic" lengthAdjust="spacingAndGlyphs" textLength="632" x="1653" y="287.4189">virtual QWidget* createEditor(QWidget *parent, const QStyleOptionViewItem &amp;option, const QModelIndex &amp;index) const override</text><!--MD5=[9cc6fa1b60865e567991154c929978ed]
reverse link QStyledItemDelegate to CFilerItemDelegate--><path d="M772.242,225.645 C839.812,204.098 929.405,179.129 1011,168 C1229.86,138.149 1288.37,144.42 1508,168 C1624.1,180.465 1754.33,209.287 1845.44,231.937 " fill="none" id="QStyledItemDelegate&lt;-CFilerItemDelegate" style="stroke: #A80036; stroke-width: 1.0;"/><polygon fill="none" points="774.088,232.405,752.904,231.909,769.773,219.086,774.088,232.405" style="stroke: #A80036; stroke-width: 1.0;"/><text fill="#000000" font-family="sans-serif" font-size="13" lengthAdjust="spacingAndGlyphs" textLength="46" x="1330" y="156.4951">extends</text><!--MD5=[91f437175228a50006669491c4bec69e]
reverse link QTreeView to CFiltersView--><path d="M271.771,220.508 C281.964,200.772 297.104,179.23 318,168 C411.762,117.61 1169.56,167.056 1276,167 C1308.45,166.983 1319.42,154.667 1349,168 C1382.11,182.921 1409.19,215.955 1424.97,238.845 " fill="none" id="QTreeView&lt;-CFiltersView" style="stroke: #A80036; stroke-width: 1.0;"/><polygon fill="none" points="278.059,223.589,263.342,238.834,265.339,217.739,278.059,223.589" style="stroke: #A80036; stroke-width: 1.0;"/><text fill="#000000" font-family="sans-serif" font-size="13" lengthAdjust="spacingAndGlyphs" textLength="46" x="1277" y="156.4951">extends</text><!--MD5=[d9a98a4758c13831f08c2fc7b5511c28]
reverse link QAbstractItemModel to CFiltersModel--><path d="M149.587,298.176 C162.422,305.996 176.75,313.363 191,318 C405.789,387.886 1007.91,418.083 1388.73,430.491 " fill="none" id="QAbstractItemModel&lt;-CFiltersModel" style="stroke: #A80036; stroke-width: 1.0;"/><polygon fill="none" points="145.5,303.868,132.6,287.057,153.168,292.154,145.5,303.868" style="stroke: #A80036; stroke-width: 1.0;"/><text fill="#000000" font-family="sans-serif" font-size="13" lengthAdjust="spacingAndGlyphs" textLength="46" x="286" y="340.4951">extends</text><!--MD5=[4e2ce4846c304987ce26026b4c2903a2]
reverse link Form to CFiltersView--><path d="M1581.57,122.039 C1575.2,134.637 1567.15,148.552 1558,160 C1533.23,190.988 1498.17,219.913 1472.7,238.988 " fill="none" id="Form&lt;-CFiltersView" style="stroke: #A80036; stroke-width: 1.0;"/><polygon fill="#A80036" points="1587.37,110.021,1581.1617,113.6894,1582.1601,120.831,1588.3684,117.1627,1587.37,110.021" style="stroke: #A80036; stroke-width: 1.0;"/><text fill="#000000" font-family="sans-serif" font-size="13" lengthAdjust="spacingAndGlyphs" textLength="49" x="1571" y="156.4951">contains</text><text fill="#000000" font-family="sans-serif" font-size="13" lengthAdjust="spacingAndGlyphs" textLength="7" x="1577.1696" y="131.3641">1</text><text fill="#000000" font-family="sans-serif" font-size="13" lengthAdjust="spacingAndGlyphs" textLength="7" x="1473.1825" y="228.3251">1</text><!--MD5=[52d7a57cbb0563a4d202682854627b45]
reverse link CDLTMessageAnalyzer to CFiltersModel--><path d="M1836.21,86.231 C1980.83,87.252 2248.93,98.727 2309,168 C2352.67,218.369 2351.17,266.365 2309,318 C2273.31,361.695 2162.97,389.955 2047.14,408.032 " fill="none" id="CDLTMessageAnalyzer&lt;-CFiltersModel" style="stroke: #A80036; stroke-width: 1.0;"/><polygon fill="#A80036" points="1823.03,86.165,1829.0079,90.1979,1835.0298,86.2309,1829.0519,82.198,1823.03,86.165" style="stroke: #A80036; stroke-width: 1.0;"/><text fill="#000000" font-family="sans-serif" font-size="13" lengthAdjust="spacingAndGlyphs" textLength="49" x="2342" y="268.4951">contains</text><text fill="#000000" font-family="sans-serif" font-size="13" lengthAdjust="spacingAndGlyphs" textLength="7" x="1830.9915" y="82.9301">1</text><text fill="#000000" font-family="sans-serif" font-size="13" lengthAdjust="spacingAndGlyphs" textLength="7" x="2054.9363" y="404.606">1</text><!--MD5=[a822d91dbd48f3714e5f76e59a3b9ede]
reverse link CFiltersView to CFilerItemDelegate--><path d="M1503.67,263 C1538.2,263 1583.79,263 1632.83,263 " fill="none" id="CFiltersView&lt;-CFilerItemDelegate" style="stroke: #A80036; stroke-width: 1.0;"/><polygon fill="#A80036" points="1490.53,263,1496.53,267,1502.53,263,1496.53,259,1490.53,263" style="stroke: #A80036; stroke-width: 1.0;"/><text fill="#000000" font-family="sans-serif" font-size="13" lengthAdjust="spacingAndGlyphs" textLength="106" x="1508.75" y="256.4951">contains and uses</text><text fill="#000000" font-family="sans-serif" font-size="13" lengthAdjust="spacingAndGlyphs" textLength="7" x="1498.4657" y="259.3459">1</text><text fill="#000000" font-family="sans-serif" font-size="13" lengthAdjust="spacingAndGlyphs" textLength="7" x="1618.033" y="260.3137">1</text><!--MD5=[c3f13ee7a56d1b917eccb27b67439afd]
reverse link CFilerItemDelegate to QCompleter--><path d="M1834.03,228.8 C1742.68,206.214 1616.49,178.702 1503.5,167 C1450.01,161.46 1436.2,164.181 1382.5,167 C1378.26,167.223 1376.81,166.12 1373,168 C1340.81,183.893 1314.07,216.355 1298.32,238.88 " fill="none" id="CFilerItemDelegate&lt;-QCompleter" style="stroke: #A80036; stroke-width: 1.0;"/><polygon fill="#A80036" points="1846.68,231.952,1841.825,226.6201,1835.036,229.0509,1839.8909,234.3828,1846.68,231.952" style="stroke: #A80036; stroke-width: 1.0;"/><text fill="#000000" font-family="sans-serif" font-size="13" lengthAdjust="spacingAndGlyphs" textLength="119" x="1383.5" y="156.4951">creates and provides</text><text fill="#000000" font-family="sans-serif" font-size="13" lengthAdjust="spacingAndGlyphs" textLength="7" x="1822.2194" y="220.9618">1</text><text fill="#000000" font-family="sans-serif" font-size="13" lengthAdjust="spacingAndGlyphs" textLength="7" x="1294.3489" y="228.1894">1</text><!--MD5=[7c39e4d0e2d6192bcda0a25794c72997]
link QLineEdit to QCompleter--><path d="M1115.21,263 C1145.44,263 1186.3,263 1220.12,263 " fill="none" id="QLineEdit-&gt;QCompleter" style="stroke: #A80036; stroke-width: 1.0;"/><polygon fill="#A80036" points="1233.18,263,1227.18,259,1221.18,263,1227.18,267,1233.18,263" style="stroke: #A80036; stroke-width: 1.0;"/><text fill="#000000" font-family="sans-serif" font-size="13" lengthAdjust="spacingAndGlyphs" textLength="82" x="1133.25" y="256.4951">gets and uses</text><text fill="#000000" font-family="sans-serif" font-size="13" lengthAdjust="spacingAndGlyphs" textLength="7" x="1122.9463" y="259.1992">1</text><text fill="#000000" font-family="sans-serif" font-size="13" lengthAdjust="spacingAndGlyphs" textLength="7" x="1218.3486" y="259.3459">1</text><!--MD5=[436586b37916b5341a0955f9ce6a58a0]
reverse link CDLTMessageAnalyzer to CFiltersView--><path d="M1697.48,117.249 C1676.8,130.704 1651.9,146.516 1629,160 C1615.18,168.136 1534.62,211.384 1483.23,238.889 " fill="none" id="CDLTMessageAnalyzer&lt;-CFiltersView" style="stroke: #A80036; stroke-width: 1.0;"/><polygon fill="#FFFFFF" points="1708.49,110.047,1701.2792,109.9828,1698.4466,116.6143,1705.6574,116.6785,1708.49,110.047" style="stroke: #A80036; stroke-width: 1.0;"/><text fill="#000000" font-family="sans-serif" font-size="13" lengthAdjust="spacingAndGlyphs" textLength="28" x="1659" y="156.4951">uses</text><text fill="#000000" font-family="sans-serif" font-size="13" lengthAdjust="spacingAndGlyphs" textLength="7" x="1692.2251" y="131.3964">1</text><text fill="#000000" font-family="sans-serif" font-size="13" lengthAdjust="spacingAndGlyphs" textLength="7" x="1486.4108" y="228.2007">1</text><!--MD5=[7b67f54178dd1fa77d478a9e9f0cd78b]
reverse link CFiltersView to CFiltersModel--><path d="M1488.2,294.255 C1523.09,316.154 1571.54,346.569 1614.97,373.827 " fill="none" id="CFiltersView&lt;-CFiltersModel" style="stroke: #A80036; stroke-width: 1.0;"/><polygon fill="#FFFFFF" points="1476.92,287.172,1479.8738,293.7504,1487.0823,293.5539,1484.1284,286.9755,1476.92,287.172" style="stroke: #A80036; stroke-width: 1.0;"/><text fill="#000000" font-family="sans-serif" font-size="13" lengthAdjust="spacingAndGlyphs" textLength="28" x="1564" y="340.4951">uses</text><text fill="#000000" font-family="sans-serif" font-size="13" lengthAdjust="spacingAndGlyphs" textLength="7" x="1478.0661" y="308.5519">1</text><text fill="#000000" font-family="sans-serif" font-size="13" lengthAdjust="spacingAndGlyphs" textLength="7" x="1596.3183" y="363.2825">1</text><!--MD5=[aa7d35fc9c2e328699d7253addd8576c]
reverse link CFilerItemDelegate to QLineEdit--><path d="M1833.13,228.776 C1742.85,206.593 1618.98,179.723 1508,168 C1403.03,156.911 1376.06,167.222 1270.5,167 C1216.72,166.887 1198.02,143.811 1149.5,167 C1118.58,181.778 1096.03,215.583 1083.48,238.859 " fill="none" id="CFilerItemDelegate&lt;-QLineEdit" style="stroke: #A80036; stroke-width: 1.0;"/><polygon fill="#FFFFFF" points="1845.92,231.943,1841.0532,226.6219,1834.2696,229.0677,1839.1363,234.3888,1845.92,231.943" style="stroke: #A80036; stroke-width: 1.0;"/><text fill="#000000" font-family="sans-serif" font-size="13" lengthAdjust="spacingAndGlyphs" textLength="119" x="1150.5" y="156.4951">creates and provides</text><text fill="#000000" font-family="sans-serif" font-size="13" lengthAdjust="spacingAndGlyphs" textLength="7" x="1812.7619" y="220.9508">1</text><text fill="#000000" font-family="sans-serif" font-size="13" lengthAdjust="spacingAndGlyphs" textLength="7" x="1078.5249" y="228.163">1</text><!--MD5=[37512576a10172651a032ce49da384b2]
@startuml

'left to right direction

'QT's classes
package "Qt" #DDDDDD 
{
    class QCompleter
    class QLineEdit
    
    class QStyledItemDelegate
    {
        +{abstract} virtual QWidget* createEditor(QWidget *parent, const QStyleOptionViewItem &option, const QModelIndex &index) const override
    }
    
    class QTreeView
    class QAbstractItemModel
}

'Plugin's classes
package "DMA base" #DDDDDD 
{
    class Form
    class CDLTMessageAnalyzer{}
}

package "DMA filters view" #DDDDDD 
{
    class CFiltersModel
    {
        - -public API- -
        +void addCompletionData( const tFoundMatches& )
        +void resetCompletionData()
        +QStringList getCompletionData( const int& groupIndex, const int& maxNumberOfSuggestions, const int& maxLengthOfSuggestions )
        - -signals- -
        +void completionDataChanged();
    }
    
    class CFiltersView {} 
    
    class CFilerItemDelegate
    {
        +{abstract} virtual QWidget* createEditor(QWidget *parent, const QStyleOptionViewItem &option, const QModelIndex &index) const override
    }
}

'Inheritance section
QStyledItemDelegate <|- - CFilerItemDelegate : extends
QTreeView <|- - CFiltersView : extends
QAbstractItemModel <|- - CFiltersModel : extends

'Composition section
Form "1" *- - "1" CFiltersView : contains
CDLTMessageAnalyzer "1" *- - - "1" CFiltersModel : contains
CFiltersView "1" *- "1" CFilerItemDelegate : contains and uses
CFilerItemDelegate "1" *- - "1" QCompleter : creates and provides
QLineEdit "1" -* "1" QCompleter : gets and uses

'Agregation section
CDLTMessageAnalyzer "1" o- - "1" CFiltersView : uses
CFiltersView "1" o- - "1" CFiltersModel : uses
CFilerItemDelegate "1" o- - "1" QLineEdit : creates and provides

@enduml

@startuml


package "Qt" #DDDDDD 
{
    class QCompleter
    class QLineEdit
    
    class QStyledItemDelegate
    {
        +{abstract} virtual QWidget* createEditor(QWidget *parent, const QStyleOptionViewItem &option, const QModelIndex &index) const override
    }
    
    class QTreeView
    class QAbstractItemModel
}

package "DMA base" #DDDDDD 
{
    class Form
    class CDLTMessageAnalyzer{}
}

package "DMA filters view" #DDDDDD 
{
    class CFiltersModel
    {
        - -public API- -
        +void addCompletionData( const tFoundMatches& )
        +void resetCompletionData()
        +QStringList getCompletionData( const int& groupIndex, const int& maxNumberOfSuggestions, const int& maxLengthOfSuggestions )
        - -signals- -
        +void completionDataChanged();
    }
    
    class CFiltersView {} 
    
    class CFilerItemDelegate
    {
        +{abstract} virtual QWidget* createEditor(QWidget *parent, const QStyleOptionViewItem &option, const QModelIndex &index) const override
    }
}

QStyledItemDelegate <|- - CFilerItemDelegate : extends
QTreeView <|- - CFiltersView : extends
QAbstractItemModel <|- - CFiltersModel : extends

Form "1" *- - "1" CFiltersView : contains
CDLTMessageAnalyzer "1" *- - - "1" CFiltersModel : contains
CFiltersView "1" *- "1" CFilerItemDelegate : contains and uses
CFilerItemDelegate "1" *- - "1" QCompleter : creates and provides
QLineEdit "1" -* "1" QCompleter : gets and uses

CDLTMessageAnalyzer "1" o- - "1" CFiltersView : uses
CFiltersView "1" o- - "1" CFiltersModel : uses
CFilerItemDelegate "1" o- - "1" QLineEdit : creates and provides

@enduml

PlantUML version 1.2020.15(Sun Jun 28 14:39:45 EEST 2020)
(GPL source distribution)
Java Runtime: Java(TM) SE Runtime Environment
JVM: Java HotSpot(TM) 64-Bit Server VM
Default Encoding: Cp1251
Language: en
Country: US
--></g></svg>