<?xml version="1.0" encoding="UTF-8" standalone="no"?><svg xmlns="http://www.w3.org/2000/svg" xmlns:xlink="http://www.w3.org/1999/xlink" contentScriptType="application/ecmascript" contentStyleType="text/css" height="921px" preserveAspectRatio="none" style="width:514px;height:921px;" version="1.1" viewBox="0 0 514 921" width="514px" zoomAndPan="magnify"><defs><filter height="300%" id="f1sdauusik17xn" width="300%" x="-1" y="-1"><feGaussianBlur result="blurOut" stdDeviation="2.0"/><feColorMatrix in="blurOut" result="blurOut2" type="matrix" values="0 0 0 0 0 0 0 0 0 0 0 0 0 0 0 0 0 0 .4 0"/><feOffset dx="4.0" dy="4.0" in="blurOut2" result="blurOut3"/><feBlend in="SourceGraphic" in2="blurOut3" mode="normal"/></filter></defs><g><!--MD5=[3e3f16721f1fb369e45a968cb01568b2]
class QWidget--><rect fill="#FEFECE" filter="url(#f1sdauusik17xn)" height="48" id="QWidget" style="stroke: #A80036; stroke-width: 1.5;" width="79" x="60" y="489"/><ellipse cx="75" cy="505" fill="#ADD1B2" rx="11" ry="11" style="stroke: #A80036; stroke-width: 1.0;"/><path d="M77.7656,500.875 Q77.9219,500.6563 78.1094,500.5469 Q78.2969,500.4375 78.5156,500.4375 Q78.8906,500.4375 79.125,500.6953 Q79.3594,500.9531 79.3594,501.5625 L79.3594,503.0156 Q79.3594,503.625 79.125,503.8906 Q78.8906,504.1563 78.5156,504.1563 Q78.1719,504.1563 77.9688,503.9531 Q77.7656,503.7656 77.6563,503.25 Q77.6094,502.8906 77.4219,502.7031 Q77.0938,502.3281 76.4844,502.1094 Q75.875,501.8906 75.25,501.8906 Q74.4844,501.8906 73.8516,502.2188 Q73.2188,502.5469 72.7266,503.2969 Q72.2344,504.0469 72.2344,505.0781 L72.2344,506.1719 Q72.2344,507.4063 73.125,508.2266 Q74.0156,509.0469 75.6094,509.0469 Q76.5469,509.0469 77.2031,508.7969 Q77.5938,508.6406 78.0156,508.2031 Q78.2813,507.9375 78.4297,507.8594 Q78.5781,507.7813 78.7813,507.7813 Q79.1094,507.7813 79.3672,508.0391 Q79.625,508.2969 79.625,508.6406 Q79.625,508.9844 79.2813,509.3906 Q78.7813,509.9688 77.9844,510.2969 Q76.9063,510.75 75.6094,510.75 Q74.0938,510.75 72.8906,510.125 Q71.9063,509.625 71.2188,508.5547 Q70.5313,507.4844 70.5313,506.2031 L70.5313,505.0469 Q70.5313,503.7188 71.1484,502.5703 Q71.7656,501.4219 72.8594,500.8047 Q73.9531,500.1875 75.1875,500.1875 Q75.9219,500.1875 76.5703,500.3516 Q77.2188,500.5156 77.7656,500.875 Z "/><text fill="#000000" font-family="sans-serif" font-size="12" lengthAdjust="spacingAndGlyphs" textLength="47" x="89" y="509.9102">QWidget</text><line style="stroke: #A80036; stroke-width: 1.5;" x1="61" x2="138" y1="521" y2="521"/><line style="stroke: #A80036; stroke-width: 1.5;" x1="61" x2="138" y1="529" y2="529"/><!--MD5=[b332da581aa74d4188a7fe5995d1b539]
class QScrollArea--><rect fill="#FEFECE" filter="url(#f1sdauusik17xn)" height="48" id="QScrollArea" style="stroke: #A80036; stroke-width: 1.5;" width="97" x="102" y="116"/><ellipse cx="117" cy="132" fill="#ADD1B2" rx="11" ry="11" style="stroke: #A80036; stroke-width: 1.0;"/><path d="M119.7656,127.875 Q119.9219,127.6563 120.1094,127.5469 Q120.2969,127.4375 120.5156,127.4375 Q120.8906,127.4375 121.125,127.6953 Q121.3594,127.9531 121.3594,128.5625 L121.3594,130.0156 Q121.3594,130.625 121.125,130.8906 Q120.8906,131.1563 120.5156,131.1563 Q120.1719,131.1563 119.9688,130.9531 Q119.7656,130.7656 119.6563,130.25 Q119.6094,129.8906 119.4219,129.7031 Q119.0938,129.3281 118.4844,129.1094 Q117.875,128.8906 117.25,128.8906 Q116.4844,128.8906 115.8516,129.2188 Q115.2188,129.5469 114.7266,130.2969 Q114.2344,131.0469 114.2344,132.0781 L114.2344,133.1719 Q114.2344,134.4063 115.125,135.2266 Q116.0156,136.0469 117.6094,136.0469 Q118.5469,136.0469 119.2031,135.7969 Q119.5938,135.6406 120.0156,135.2031 Q120.2813,134.9375 120.4297,134.8594 Q120.5781,134.7813 120.7813,134.7813 Q121.1094,134.7813 121.3672,135.0391 Q121.625,135.2969 121.625,135.6406 Q121.625,135.9844 121.2813,136.3906 Q120.7813,136.9688 119.9844,137.2969 Q118.9063,137.75 117.6094,137.75 Q116.0938,137.75 114.8906,137.125 Q113.9063,136.625 113.2188,135.5547 Q112.5313,134.4844 112.5313,133.2031 L112.5313,132.0469 Q112.5313,130.7188 113.1484,129.5703 Q113.7656,128.4219 114.8594,127.8047 Q115.9531,127.1875 117.1875,127.1875 Q117.9219,127.1875 118.5703,127.3516 Q119.2188,127.5156 119.7656,127.875 Z "/><text fill="#000000" font-family="sans-serif" font-size="12" lengthAdjust="spacingAndGlyphs" textLength="65" x="131" y="136.9102">QScrollArea</text><line style="stroke: #A80036; stroke-width: 1.5;" x1="103" x2="198" y1="148" y2="148"/><line style="stroke: #A80036; stroke-width: 1.5;" x1="103" x2="198" y1="156" y2="156"/><!--MD5=[19da0fc8a1dae7706e89bee6ef9b80b7]
class QProcess--><rect fill="#FEFECE" filter="url(#f1sdauusik17xn)" height="48" id="QProcess" style="stroke: #A80036; stroke-width: 1.5;" width="87" x="287" y="640.5"/><ellipse cx="302" cy="656.5" fill="#ADD1B2" rx="11" ry="11" style="stroke: #A80036; stroke-width: 1.0;"/><path d="M304.7656,652.375 Q304.9219,652.1563 305.1094,652.0469 Q305.2969,651.9375 305.5156,651.9375 Q305.8906,651.9375 306.125,652.1953 Q306.3594,652.4531 306.3594,653.0625 L306.3594,654.5156 Q306.3594,655.125 306.125,655.3906 Q305.8906,655.6563 305.5156,655.6563 Q305.1719,655.6563 304.9688,655.4531 Q304.7656,655.2656 304.6563,654.75 Q304.6094,654.3906 304.4219,654.2031 Q304.0938,653.8281 303.4844,653.6094 Q302.875,653.3906 302.25,653.3906 Q301.4844,653.3906 300.8516,653.7188 Q300.2188,654.0469 299.7266,654.7969 Q299.2344,655.5469 299.2344,656.5781 L299.2344,657.6719 Q299.2344,658.9063 300.125,659.7266 Q301.0156,660.5469 302.6094,660.5469 Q303.5469,660.5469 304.2031,660.2969 Q304.5938,660.1406 305.0156,659.7031 Q305.2813,659.4375 305.4297,659.3594 Q305.5781,659.2813 305.7813,659.2813 Q306.1094,659.2813 306.3672,659.5391 Q306.625,659.7969 306.625,660.1406 Q306.625,660.4844 306.2813,660.8906 Q305.7813,661.4688 304.9844,661.7969 Q303.9063,662.25 302.6094,662.25 Q301.0938,662.25 299.8906,661.625 Q298.9063,661.125 298.2188,660.0547 Q297.5313,658.9844 297.5313,657.7031 L297.5313,656.5469 Q297.5313,655.2188 298.1484,654.0703 Q298.7656,652.9219 299.8594,652.3047 Q300.9531,651.6875 302.1875,651.6875 Q302.9219,651.6875 303.5703,651.8516 Q304.2188,652.0156 304.7656,652.375 Z "/><text fill="#000000" font-family="sans-serif" font-size="12" lengthAdjust="spacingAndGlyphs" textLength="55" x="316" y="661.4102">QProcess</text><line style="stroke: #A80036; stroke-width: 1.5;" x1="288" x2="373" y1="672.5" y2="672.5"/><line style="stroke: #A80036; stroke-width: 1.5;" x1="288" x2="373" y1="680.5" y2="680.5"/><!--MD5=[95e275fee6d661fba6aa4d8c7c13a98b]
class CImageViewer--><rect fill="#FEFECE" filter="url(#f1sdauusik17xn)" height="99.3438" id="CImageViewer" style="stroke: #A80036; stroke-width: 1.5;" width="225" x="7" y="615"/><ellipse cx="74.75" cy="631" fill="#ADD1B2" rx="11" ry="11" style="stroke: #A80036; stroke-width: 1.0;"/><path d="M77.5156,626.875 Q77.6719,626.6563 77.8594,626.5469 Q78.0469,626.4375 78.2656,626.4375 Q78.6406,626.4375 78.875,626.6953 Q79.1094,626.9531 79.1094,627.5625 L79.1094,629.0156 Q79.1094,629.625 78.875,629.8906 Q78.6406,630.1563 78.2656,630.1563 Q77.9219,630.1563 77.7188,629.9531 Q77.5156,629.7656 77.4063,629.25 Q77.3594,628.8906 77.1719,628.7031 Q76.8438,628.3281 76.2344,628.1094 Q75.625,627.8906 75,627.8906 Q74.2344,627.8906 73.6016,628.2188 Q72.9688,628.5469 72.4766,629.2969 Q71.9844,630.0469 71.9844,631.0781 L71.9844,632.1719 Q71.9844,633.4063 72.875,634.2266 Q73.7656,635.0469 75.3594,635.0469 Q76.2969,635.0469 76.9531,634.7969 Q77.3438,634.6406 77.7656,634.2031 Q78.0313,633.9375 78.1797,633.8594 Q78.3281,633.7813 78.5313,633.7813 Q78.8594,633.7813 79.1172,634.0391 Q79.375,634.2969 79.375,634.6406 Q79.375,634.9844 79.0313,635.3906 Q78.5313,635.9688 77.7344,636.2969 Q76.6563,636.75 75.3594,636.75 Q73.8438,636.75 72.6406,636.125 Q71.6563,635.625 70.9688,634.5547 Q70.2813,633.4844 70.2813,632.2031 L70.2813,631.0469 Q70.2813,629.7188 70.8984,628.5703 Q71.5156,627.4219 72.6094,626.8047 Q73.7031,626.1875 74.9375,626.1875 Q75.6719,626.1875 76.3203,626.3516 Q76.9688,626.5156 77.5156,626.875 Z "/><text fill="#000000" font-family="sans-serif" font-size="12" lengthAdjust="spacingAndGlyphs" textLength="81" x="95.25" y="635.9102">CImageViewer</text><line style="stroke: #A80036; stroke-width: 1.5;" x1="8" x2="231" y1="647" y2="647"/><ellipse cx="18" cy="675.8359" fill="#84BE84" rx="3" ry="3" style="stroke: #038048; stroke-width: 1.0;"/><text fill="#000000" font-family="sans-serif" font-size="11" lengthAdjust="spacingAndGlyphs" textLength="199" x="27" y="680.2549">CImageViewer(QWidget *parent = nullptr)</text><ellipse cx="18" cy="689.6719" fill="#84BE84" rx="3" ry="3" style="stroke: #038048; stroke-width: 1.0;"/><text fill="#000000" font-family="sans-serif" font-size="11" lengthAdjust="spacingAndGlyphs" textLength="143" x="27" y="694.0908">bool loadFile(const QString &amp;)</text><ellipse cx="18" cy="703.5078" fill="#84BE84" rx="3" ry="3" style="stroke: #038048; stroke-width: 1.0;"/><text fill="#000000" font-family="sans-serif" font-size="11" lengthAdjust="spacingAndGlyphs" textLength="55" x="27" y="707.9268">void clear()</text><line style="stroke: #A80036; stroke-width: 1.0;" x1="8" x2="96" y1="661.918" y2="661.918"/><text fill="#000000" font-family="sans-serif" font-size="11" lengthAdjust="spacingAndGlyphs" textLength="47" x="96" y="665.9189">public API</text><line style="stroke: #A80036; stroke-width: 1.0;" x1="143" x2="231" y1="661.918" y2="661.918"/><!--MD5=[8627995bcaa22f2ec103094efbcbd46a]
class CUMLView--><rect fill="#FEFECE" filter="url(#f1sdauusik17xn)" height="186.3594" id="CUMLView" style="stroke: #A80036; stroke-width: 1.5;" width="311" x="114" y="242"/><ellipse cx="235.25" cy="258" fill="#ADD1B2" rx="11" ry="11" style="stroke: #A80036; stroke-width: 1.0;"/><path d="M238.0156,253.875 Q238.1719,253.6563 238.3594,253.5469 Q238.5469,253.4375 238.7656,253.4375 Q239.1406,253.4375 239.375,253.6953 Q239.6094,253.9531 239.6094,254.5625 L239.6094,256.0156 Q239.6094,256.625 239.375,256.8906 Q239.1406,257.1563 238.7656,257.1563 Q238.4219,257.1563 238.2188,256.9531 Q238.0156,256.7656 237.9063,256.25 Q237.8594,255.8906 237.6719,255.7031 Q237.3438,255.3281 236.7344,255.1094 Q236.125,254.8906 235.5,254.8906 Q234.7344,254.8906 234.1016,255.2188 Q233.4688,255.5469 232.9766,256.2969 Q232.4844,257.0469 232.4844,258.0781 L232.4844,259.1719 Q232.4844,260.4063 233.375,261.2266 Q234.2656,262.0469 235.8594,262.0469 Q236.7969,262.0469 237.4531,261.7969 Q237.8438,261.6406 238.2656,261.2031 Q238.5313,260.9375 238.6797,260.8594 Q238.8281,260.7813 239.0313,260.7813 Q239.3594,260.7813 239.6172,261.0391 Q239.875,261.2969 239.875,261.6406 Q239.875,261.9844 239.5313,262.3906 Q239.0313,262.9688 238.2344,263.2969 Q237.1563,263.75 235.8594,263.75 Q234.3438,263.75 233.1406,263.125 Q232.1563,262.625 231.4688,261.5547 Q230.7813,260.4844 230.7813,259.2031 L230.7813,258.0469 Q230.7813,256.7188 231.3984,255.5703 Q232.0156,254.4219 233.1094,253.8047 Q234.2031,253.1875 235.4375,253.1875 Q236.1719,253.1875 236.8203,253.3516 Q237.4688,253.5156 238.0156,253.875 Z "/><text fill="#000000" font-family="sans-serif" font-size="12" lengthAdjust="spacingAndGlyphs" textLength="60" x="255.75" y="262.9102">CUMLView</text><line style="stroke: #A80036; stroke-width: 1.5;" x1="115" x2="424" y1="274" y2="274"/><ellipse cx="125" cy="302.8359" fill="#84BE84" rx="3" ry="3" style="stroke: #038048; stroke-width: 1.0;"/><text fill="#000000" font-family="sans-serif" font-size="11" lengthAdjust="spacingAndGlyphs" textLength="182" x="134" y="307.2549">CUMLView(QWidget *parent = nullptr)</text><ellipse cx="125" cy="316.6719" fill="#84BE84" rx="3" ry="3" style="stroke: #038048; stroke-width: 1.0;"/><text fill="#000000" font-family="sans-serif" font-size="11" lengthAdjust="spacingAndGlyphs" textLength="285" x="134" y="321.0908">void generateUMLDiagram(const QString&amp; diagramContent)</text><ellipse cx="125" cy="330.5078" fill="#84BE84" rx="3" ry="3" style="stroke: #038048; stroke-width: 1.0;"/><text fill="#000000" font-family="sans-serif" font-size="11" lengthAdjust="spacingAndGlyphs" textLength="213" x="134" y="334.9268">bool isDiagramGenerationInProgress() const</text><ellipse cx="125" cy="344.3438" fill="#84BE84" rx="3" ry="3" style="stroke: #038048; stroke-width: 1.0;"/><text fill="#000000" font-family="sans-serif" font-size="11" lengthAdjust="spacingAndGlyphs" textLength="155" x="134" y="348.7627">void cancelDiagramGeneration()</text><ellipse cx="125" cy="358.1797" fill="#84BE84" rx="3" ry="3" style="stroke: #038048; stroke-width: 1.0;"/><text fill="#000000" font-family="sans-serif" font-size="11" lengthAdjust="spacingAndGlyphs" textLength="94" x="134" y="362.5986">void clearDiagram()</text><ellipse cx="125" cy="372.0156" fill="#84BE84" rx="3" ry="3" style="stroke: #038048; stroke-width: 1.0;"/><text fill="#000000" font-family="sans-serif" font-size="11" lengthAdjust="spacingAndGlyphs" textLength="143" x="134" y="376.4346">bool isDiagramShown() const</text><line style="stroke: #A80036; stroke-width: 1.0;" x1="115" x2="246" y1="288.918" y2="288.918"/><text fill="#000000" font-family="sans-serif" font-size="11" lengthAdjust="spacingAndGlyphs" textLength="47" x="246" y="292.9189">public API</text><line style="stroke: #A80036; stroke-width: 1.0;" x1="293" x2="424" y1="288.918" y2="288.918"/><ellipse cx="125" cy="403.6875" fill="#84BE84" rx="3" ry="3" style="stroke: #038048; stroke-width: 1.0;"/><text fill="#000000" font-family="sans-serif" font-size="11" lengthAdjust="spacingAndGlyphs" textLength="157" x="134" y="408.1064">void diagramGenerationStarted()</text><ellipse cx="125" cy="417.5234" fill="#84BE84" rx="3" ry="3" style="stroke: #038048; stroke-width: 1.0;"/><text fill="#000000" font-family="sans-serif" font-size="11" lengthAdjust="spacingAndGlyphs" textLength="227" x="134" y="421.9424">void diagramGenerationFinished(bool success)</text><line style="stroke: #A80036; stroke-width: 1.0;" x1="115" x2="252.5" y1="389.7695" y2="389.7695"/><text fill="#000000" font-family="sans-serif" font-size="11" lengthAdjust="spacingAndGlyphs" textLength="34" x="252.5" y="393.7705">signals</text><line style="stroke: #A80036; stroke-width: 1.0;" x1="286.5" x2="424" y1="389.7695" y2="389.7695"/><!--MD5=[6f29f313cd4199edbf91b9ce3a4faa98]
class Form--><rect fill="#FEFECE" filter="url(#f1sdauusik17xn)" height="48" id="Form" style="stroke: #A80036; stroke-width: 1.5;" width="61" x="239" y="7"/><ellipse cx="254" cy="23" fill="#ADD1B2" rx="11" ry="11" style="stroke: #A80036; stroke-width: 1.0;"/><path d="M256.7656,18.875 Q256.9219,18.6563 257.1094,18.5469 Q257.2969,18.4375 257.5156,18.4375 Q257.8906,18.4375 258.125,18.6953 Q258.3594,18.9531 258.3594,19.5625 L258.3594,21.0156 Q258.3594,21.625 258.125,21.8906 Q257.8906,22.1563 257.5156,22.1563 Q257.1719,22.1563 256.9688,21.9531 Q256.7656,21.7656 256.6563,21.25 Q256.6094,20.8906 256.4219,20.7031 Q256.0938,20.3281 255.4844,20.1094 Q254.875,19.8906 254.25,19.8906 Q253.4844,19.8906 252.8516,20.2188 Q252.2188,20.5469 251.7266,21.2969 Q251.2344,22.0469 251.2344,23.0781 L251.2344,24.1719 Q251.2344,25.4063 252.125,26.2266 Q253.0156,27.0469 254.6094,27.0469 Q255.5469,27.0469 256.2031,26.7969 Q256.5938,26.6406 257.0156,26.2031 Q257.2813,25.9375 257.4297,25.8594 Q257.5781,25.7813 257.7813,25.7813 Q258.1094,25.7813 258.3672,26.0391 Q258.625,26.2969 258.625,26.6406 Q258.625,26.9844 258.2813,27.3906 Q257.7813,27.9688 256.9844,28.2969 Q255.9063,28.75 254.6094,28.75 Q253.0938,28.75 251.8906,28.125 Q250.9063,27.625 250.2188,26.5547 Q249.5313,25.4844 249.5313,24.2031 L249.5313,23.0469 Q249.5313,21.7188 250.1484,20.5703 Q250.7656,19.4219 251.8594,18.8047 Q252.9531,18.1875 254.1875,18.1875 Q254.9219,18.1875 255.5703,18.3516 Q256.2188,18.5156 256.7656,18.875 Z "/><text fill="#000000" font-family="sans-serif" font-size="12" lengthAdjust="spacingAndGlyphs" textLength="29" x="268" y="27.9102">Form</text><line style="stroke: #A80036; stroke-width: 1.5;" x1="240" x2="299" y1="39" y2="39"/><line style="stroke: #A80036; stroke-width: 1.5;" x1="240" x2="299" y1="47" y2="47"/><!--MD5=[65cf5b7ad40f1b0ece06d7cb106e6435]
class CDLTMessageAnalyzer--><rect fill="#FEFECE" filter="url(#f1sdauusik17xn)" height="48" id="CDLTMessageAnalyzer" style="stroke: #A80036; stroke-width: 1.5;" width="160" x="335.5" y="7"/><ellipse cx="350.5" cy="23" fill="#ADD1B2" rx="11" ry="11" style="stroke: #A80036; stroke-width: 1.0;"/><path d="M353.2656,18.875 Q353.4219,18.6563 353.6094,18.5469 Q353.7969,18.4375 354.0156,18.4375 Q354.3906,18.4375 354.625,18.6953 Q354.8594,18.9531 354.8594,19.5625 L354.8594,21.0156 Q354.8594,21.625 354.625,21.8906 Q354.3906,22.1563 354.0156,22.1563 Q353.6719,22.1563 353.4688,21.9531 Q353.2656,21.7656 353.1563,21.25 Q353.1094,20.8906 352.9219,20.7031 Q352.5938,20.3281 351.9844,20.1094 Q351.375,19.8906 350.75,19.8906 Q349.9844,19.8906 349.3516,20.2188 Q348.7188,20.5469 348.2266,21.2969 Q347.7344,22.0469 347.7344,23.0781 L347.7344,24.1719 Q347.7344,25.4063 348.625,26.2266 Q349.5156,27.0469 351.1094,27.0469 Q352.0469,27.0469 352.7031,26.7969 Q353.0938,26.6406 353.5156,26.2031 Q353.7813,25.9375 353.9297,25.8594 Q354.0781,25.7813 354.2813,25.7813 Q354.6094,25.7813 354.8672,26.0391 Q355.125,26.2969 355.125,26.6406 Q355.125,26.9844 354.7813,27.3906 Q354.2813,27.9688 353.4844,28.2969 Q352.4063,28.75 351.1094,28.75 Q349.5938,28.75 348.3906,28.125 Q347.4063,27.625 346.7188,26.5547 Q346.0313,25.4844 346.0313,24.2031 L346.0313,23.0469 Q346.0313,21.7188 346.6484,20.5703 Q347.2656,19.4219 348.3594,18.8047 Q349.4531,18.1875 350.6875,18.1875 Q351.4219,18.1875 352.0703,18.3516 Q352.7188,18.5156 353.2656,18.875 Z "/><text fill="#000000" font-family="sans-serif" font-size="12" lengthAdjust="spacingAndGlyphs" textLength="128" x="364.5" y="27.9102">CDLTMessageAnalyzer</text><line style="stroke: #A80036; stroke-width: 1.5;" x1="336.5" x2="494.5" y1="39" y2="39"/><line style="stroke: #A80036; stroke-width: 1.5;" x1="336.5" x2="494.5" y1="47" y2="47"/><!--MD5=[0f442ce51c8f609dc58d5735936368d3]
class plantuml--><rect fill="#FEFECE" filter="url(#f1sdauusik17xn)" height="48" id="plantuml" style="stroke: #A80036; stroke-width: 1.5;" width="80" x="290.5" y="854"/><ellipse cx="305.5" cy="870" fill="#ADD1B2" rx="11" ry="11" style="stroke: #A80036; stroke-width: 1.0;"/><path d="M308.2656,865.875 Q308.4219,865.6563 308.6094,865.5469 Q308.7969,865.4375 309.0156,865.4375 Q309.3906,865.4375 309.625,865.6953 Q309.8594,865.9531 309.8594,866.5625 L309.8594,868.0156 Q309.8594,868.625 309.625,868.8906 Q309.3906,869.1563 309.0156,869.1563 Q308.6719,869.1563 308.4688,868.9531 Q308.2656,868.7656 308.1563,868.25 Q308.1094,867.8906 307.9219,867.7031 Q307.5938,867.3281 306.9844,867.1094 Q306.375,866.8906 305.75,866.8906 Q304.9844,866.8906 304.3516,867.2188 Q303.7188,867.5469 303.2266,868.2969 Q302.7344,869.0469 302.7344,870.0781 L302.7344,871.1719 Q302.7344,872.4063 303.625,873.2266 Q304.5156,874.0469 306.1094,874.0469 Q307.0469,874.0469 307.7031,873.7969 Q308.0938,873.6406 308.5156,873.2031 Q308.7813,872.9375 308.9297,872.8594 Q309.0781,872.7813 309.2813,872.7813 Q309.6094,872.7813 309.8672,873.0391 Q310.125,873.2969 310.125,873.6406 Q310.125,873.9844 309.7813,874.3906 Q309.2813,874.9688 308.4844,875.2969 Q307.4063,875.75 306.1094,875.75 Q304.5938,875.75 303.3906,875.125 Q302.4063,874.625 301.7188,873.5547 Q301.0313,872.4844 301.0313,871.2031 L301.0313,870.0469 Q301.0313,868.7188 301.6484,867.5703 Q302.2656,866.4219 303.3594,865.8047 Q304.4531,865.1875 305.6875,865.1875 Q306.4219,865.1875 307.0703,865.3516 Q307.7188,865.5156 308.2656,865.875 Z "/><text fill="#000000" font-family="sans-serif" font-size="12" lengthAdjust="spacingAndGlyphs" textLength="48" x="319.5" y="874.9102">plantuml</text><line style="stroke: #A80036; stroke-width: 1.5;" x1="291.5" x2="369.5" y1="886" y2="886"/><line style="stroke: #A80036; stroke-width: 1.5;" x1="291.5" x2="369.5" y1="894" y2="894"/><!--MD5=[40d74cb6cda27ae80516c53696d28715]
reverse link QWidget to CImageViewer--><path d="M105.2728,557.151 C107.683,575.166 110.494,596.182 112.978,614.752 " fill="none" id="QWidget&lt;-CImageViewer" style="stroke: #A80036; stroke-width: 1.0;"/><polygon fill="none" points="98.295,557.783,102.5812,537.032,112.171,555.927,98.295,557.783" style="stroke: #A80036; stroke-width: 1.0;"/><text fill="#000000" font-family="sans-serif" font-size="13" lengthAdjust="spacingAndGlyphs" textLength="46" x="110.5" y="581.4951">extends</text><!--MD5=[4c4d624cc1f5bb3c63ffc4a570d46ea1]
reverse link QScrollArea to CUMLView--><path d="M175.438,181.445 C186.336,199.12 199.601,220.634 212.692,241.866 " fill="none" id="QScrollArea&lt;-CUMLView" style="stroke: #A80036; stroke-width: 1.0;"/><polygon fill="none" points="169.393,184.978,164.854,164.28,181.309,177.631,169.393,184.978" style="stroke: #A80036; stroke-width: 1.0;"/><text fill="#000000" font-family="sans-serif" font-size="13" lengthAdjust="spacingAndGlyphs" textLength="46" x="193.5" y="208.4951">extends</text><!--MD5=[478217ad1617da04c59f9a9ff06f62fd]
reverse link Form to CUMLView--><path d="M269.5,68.47 C269.5,111.138 269.5,183.373 269.5,241.739 " fill="none" id="Form&lt;-CUMLView" style="stroke: #A80036; stroke-width: 1.0;"/><polygon fill="#A80036" points="269.5,55.196,265.5,61.196,269.5,67.196,273.5,61.196,269.5,55.196" style="stroke: #A80036; stroke-width: 1.0;"/><text fill="#000000" font-family="sans-serif" font-size="13" lengthAdjust="spacingAndGlyphs" textLength="49" x="270.5" y="145.4951">contains</text><text fill="#000000" font-family="sans-serif" font-size="13" lengthAdjust="spacingAndGlyphs" textLength="7" x="261.6469" y="76.5817">1</text><text fill="#000000" font-family="sans-serif" font-size="13" lengthAdjust="spacingAndGlyphs" textLength="7" x="262.2211" y="231.1646">1</text><!--MD5=[4cbaa7a6f03709053cb8a00ef0211089]
reverse link CUMLView to CImageViewer--><path d="M229.581,440.292 C211.382,485.413 188.733,538.442 165.5,585 C160.633,594.752 155.049,604.951 149.486,614.646 " fill="none" id="CUMLView&lt;-CImageViewer" style="stroke: #A80036; stroke-width: 1.0;"/><polygon fill="#A80036" points="234.472,428.092,228.5267,432.1729,230.0071,439.2304,235.9524,435.1495,234.472,428.092" style="stroke: #A80036; stroke-width: 1.0;"/><text fill="#000000" font-family="sans-serif" font-size="13" lengthAdjust="spacingAndGlyphs" textLength="49" x="209.5" y="518.4951">contains</text><text fill="#000000" font-family="sans-serif" font-size="13" lengthAdjust="spacingAndGlyphs" textLength="7" x="224.2814" y="449.9585">1</text><text fill="#000000" font-family="sans-serif" font-size="13" lengthAdjust="spacingAndGlyphs" textLength="7" x="146.2106" y="604.0059">1</text><!--MD5=[baa2cda36405ee533415805d2380a8dc]
reverse link CUMLView to QProcess--><path d="M289.075,441.095 C302.25,511.828 318.558,599.386 326.186,640.34 " fill="none" id="CUMLView&lt;-QProcess" style="stroke: #A80036; stroke-width: 1.0;"/><polygon fill="#A80036" points="286.654,428.099,283.8201,434.7299,288.851,439.8962,291.6849,433.2653,286.654,428.099" style="stroke: #A80036; stroke-width: 1.0;"/><text fill="#000000" font-family="sans-serif" font-size="13" lengthAdjust="spacingAndGlyphs" textLength="49" x="308.5" y="518.4951">contains</text><text fill="#000000" font-family="sans-serif" font-size="13" lengthAdjust="spacingAndGlyphs" textLength="7" x="280.7847" y="449.9661">1</text><text fill="#000000" font-family="sans-serif" font-size="13" lengthAdjust="spacingAndGlyphs" textLength="7" x="317.1837" y="629.6392">2</text><!--MD5=[7a6e50a1335e2d087a65656ed407df27]
reverse link QProcess to plantuml--><path d="M330.5,701.617 C330.5,745.234 330.5,817.299 330.5,853.9916 " fill="none" id="QProcess&lt;-plantuml" style="stroke: #A80036; stroke-width: 1.0;"/><polygon fill="#A80036" points="330.5,688.537,326.5,694.537,330.5,700.537,334.5,694.537,330.5,688.537" style="stroke: #A80036; stroke-width: 1.0;"/><text fill="#000000" font-family="sans-serif" font-size="13" lengthAdjust="spacingAndGlyphs" textLength="43" x="331.5" y="789.4951">runs jar</text><text fill="#000000" font-family="sans-serif" font-size="13" lengthAdjust="spacingAndGlyphs" textLength="7" x="322.6469" y="709.884">1</text><text fill="#000000" font-family="sans-serif" font-size="13" lengthAdjust="spacingAndGlyphs" textLength="7" x="322.6031" y="843.3296">1</text><!--MD5=[8269fe1df8c28066ff0ec29cd5808493]
reverse link CDLTMessageAnalyzer to CUMLView--><path d="M398.536,67.089 C378.001,109.566 342.626,182.739 314.103,241.739 " fill="none" id="CDLTMessageAnalyzer&lt;-CUMLView" style="stroke: #A80036; stroke-width: 1.0;"/><polygon fill="#FFFFFF" points="404.286,55.196,398.0736,58.8574,399.0639,66.0002,405.2763,62.3388,404.286,55.196" style="stroke: #A80036; stroke-width: 1.0;"/><text fill="#000000" font-family="sans-serif" font-size="13" lengthAdjust="spacingAndGlyphs" textLength="31" x="374.5" y="145.4951">using</text><text fill="#000000" font-family="sans-serif" font-size="13" lengthAdjust="spacingAndGlyphs" textLength="7" x="393.6995" y="76.5817">1</text><text fill="#000000" font-family="sans-serif" font-size="13" lengthAdjust="spacingAndGlyphs" textLength="7" x="310.3784" y="231.1646">1</text><!--MD5=[84e2ed0babe3b729823cc780d263beb3]
@startuml

'QT's classes
class QWidget
class QScrollArea
class QProcess

'Plugin's classes
class CImageViewer
{
    - -public API- -
    +CImageViewer(QWidget *parent = nullptr)
    +bool loadFile(const QString &)
    +void clear()
}

class CUMLView
{
    - -public API- -
    +CUMLView(QWidget *parent = nullptr)
    +void generateUMLDiagram(const QString& diagramContent)
    +bool isDiagramGenerationInProgress() const
    +void cancelDiagramGeneration()
    +void clearDiagram()
    +bool isDiagramShown() const
	- -signals- -
    +void diagramGenerationStarted()
    +void diagramGenerationFinished(bool success)
}

class Form

class CDLTMessageAnalyzer
{
}

class plantuml
{
}

'Inheritance section
QWidget <|- - CImageViewer : extends
QScrollArea <|- - CUMLView : extends

'Composition section
Form "1" *- - - "1" CUMLView : contains
CUMLView "1" *- - - "1" CImageViewer : contains
CUMLView "1" *- - - "2" QProcess : contains
QProcess "1" *- - - "1" plantuml : runs jar

'Agregation section
CDLTMessageAnalyzer "1" o- - - "1" CUMLView : using

@enduml

@startuml

class QWidget
class QScrollArea
class QProcess

class CImageViewer
{
    - -public API- -
    +CImageViewer(QWidget *parent = nullptr)
    +bool loadFile(const QString &)
    +void clear()
}

class CUMLView
{
    - -public API- -
    +CUMLView(QWidget *parent = nullptr)
    +void generateUMLDiagram(const QString& diagramContent)
    +bool isDiagramGenerationInProgress() const
    +void cancelDiagramGeneration()
    +void clearDiagram()
    +bool isDiagramShown() const
	- -signals- -
    +void diagramGenerationStarted()
    +void diagramGenerationFinished(bool success)
}

class Form

class CDLTMessageAnalyzer
{
}

class plantuml
{
}

QWidget <|- - CImageViewer : extends
QScrollArea <|- - CUMLView : extends

Form "1" *- - - "1" CUMLView : contains
CUMLView "1" *- - - "1" CImageViewer : contains
CUMLView "1" *- - - "2" QProcess : contains
QProcess "1" *- - - "1" plantuml : runs jar

CDLTMessageAnalyzer "1" o- - - "1" CUMLView : using

@enduml

PlantUML version 1.2020.15(Sun Jun 28 14:39:45 EEST 2020)
(GPL source distribution)
Java Runtime: Java(TM) SE Runtime Environment
JVM: Java HotSpot(TM) 64-Bit Server VM
Default Encoding: Cp1251
Language: en
Country: US
--></g></svg>